{
.appVersion = "1352";
DisplayStrings = (
abcdefghijklmnopqrstuvwxyz,
"oó/obreve ô/ocircumflexacute/ocircumflexdotbelow/ocircumflexgrave/ocircumflexhookabove/ocircumflextilde/odblgrave ö/odieresismacron/odotaccentmacron/odotbelow ò/ohookabove/ohorn/ohornacute/ohorndotbelow/ohorngrave/ohornhookabove/ohorntilde/ohungarumlaut/oinvertedbreve/omacron/oogonek ø/oslashacute õ/otildemacron",
"AÁ/Abreve/Abreveacute/Abrevedotbelow/Abrevegrave/Abrevehookabove/Abrevetilde/Acaron Â/Acircumflexacute/Acircumflexdotbelow/Acircumflexgrave/Acircumflexhookabove/Acircumflextilde/Adblgrave Ä/Adotbelow À/Ahookabove/Ainvertedbreve/Amacron/Aogonek Å/Aringacute ÃÆ/AEacute",
"UÚ/Ubreve/Ucaron Û/Udblgrave Ü/Udieresiscaron/Udieresisgrave/Udieresismacron/Udotbelow Ù/Uhookabove/Uhorn/Uhornacute/Uhorndotbelow/Uhorngrave/Uhornhookabove/Uhorntilde/Uhungarumlaut/Uinvertedbreve/Umacron/Uogonek/Uring/Utilde VW/Wacute/Wcircumflex/Wdieresis/Wgrave XYÝ/Ycircumflex/Ydieresis/Ydotbelow/Ygrave/Yhookabove/Ymacron/Ytilde",
"uú/ubreve û/udblgrave ü/udotbelow ù/uhookabove/uhorn/uhornacute/uhorndotbelow/uhorngrave/uhornhookabove/uhorntilde/uhungarumlaut/uinvertedbreve/umacron u/uogonek/uring/utilde",
"email@coree.com/nbspace",
"nn/Placeholder no/Placeholder oo/space HH/Placeholder HO/Placeholder OO\012o,:;/ellipsis !¡?¿nn?·/bullet *#///backslash/periodcentered.loclCAT.case/periodcentered.loclCAT (){}[]-­/endash/emdash/hyphentwo _o/quotesinglbase/quotedblbase \012/quotedblleft/quotedblright/quoteleft/quoteright «»/guilsinglleft/guilsinglright \"'/leftanglebracket-math/rightanglebracket-math",
ABCDEFGHIJKLMNOPQRSTUVWXYZ
);
classes = (
{
automatic = 1;

glyphs = (
{
glyphname = .notdef;
lastChange = "2021-10-09 01:58:11 +0000";
layers = (
{
background = {
paths = (
{
closed = 1;
nodes = (
"283 -3 LINE",
"290 5 LINE",
"290 371 LINE",
"283 379 LINE",
"31 379 LINE",
"23 371 LINE",
"23 5 LINE",
"31 -3 LINE"
);
},
{
closed = 1;
nodes = (
"92 90 LINE",
"145 189 LINE",
"92 286 LINE",
"99 300 LINE",
"153 203 LINE",
"207 301 LINE",
"216 286 LINE",
"160 187 LINE",
"216 90 LINE",
"207 76 LINE",
"153 173 LINE",
"99 76 LINE"
);
},
{
closed = 1;
nodes = (
"40 362 LINE",
"274 362 LINE",
"274 14 LINE",
"40 14 LINE"
);
},
{
closed = 1;
nodes = (
"260 26 LINE",
"260 347 LINE",
"53 347 LINE",
"53 26 LINE"
);
}
);
};
layerId = "95C423A7-595F-441F-915A-E5EF8B5EF971";
paths = (
{
closed = 1;
nodes = (
"283 -3 LINE",
"290 5 LINE",
"290 371 LINE",
"283 379 LINE",
"31 379 LINE",
"23 371 LINE",
"23 5 LINE",
"31 -3 LINE"
);
},
{
closed = 1;
nodes = (
"92 90 LINE",
"145 189 LINE",
"92 286 LINE",
"99 300 LINE",
"153 203 LINE",
"207 301 LINE",
"216 286 LINE",
"160 187 LINE",
"216 90 LINE",
"207 76 LINE",
"153 173 LINE",
"99 76 LINE"
);
},
{
closed = 1;
nodes = (
"40 362 LINE",
"274 362 LINE",
"274 14 LINE",
"40 14 LINE"
);
},
{
closed = 1;
nodes = (
"260 26 LINE",
"260 347 LINE",
"53 347 LINE",
"53 26 LINE"
);
}
);
width = 313;
}
);
note = .notdef;
},
{
glyphname = A;
lastChange = "2021-10-09 01:58:11 +0000";
layers = (
{
anchors = (
{
name = bottom;
position = "{607, 0}";
},
{
name = ogonek;
position = "{794, 3}";
},
{
name = top;
position = "{1088, 569}";
}
);
background = {
paths = (
{
closed = 1;
nodes = (
"970 422 OFFCURVE",
"1083 546 OFFCURVE",
"1083 556 CURVE SMOOTH",
"1083 565 OFFCURVE",
"1068 569 OFFCURVE",
"1061 569 CURVE SMOOTH",
"1060 569 OFFCURVE",
"1058 569 OFFCURVE",
"1056 569 CURVE",
"1035 561 OFFCURVE",
"896 440 OFFCURVE",
"880 418 CURVE SMOOTH",
"878 414 OFFCURVE",
"875 411 OFFCURVE",
"875 407 CURVE SMOOTH",
"875 394 OFFCURVE",
"900 391 OFFCURVE",
"909 389 CURVE",
"874 343 OFFCURVE",
"842 296 OFFCURVE",
"813 247 CURVE",
"786 242 OFFCURVE",
"760 239 OFFCURVE",
"733 236 CURVE",
"786 299 OFFCURVE",
"836 367 OFFCURVE",
"879 437 CURVE",
"880 438 OFFCURVE",
"880 440 OFFCURVE",
"880 441 CURVE SMOOTH",
"880 444 OFFCURVE",
"877 445 OFFCURVE",
"874 445 CURVE SMOOTH",
"870 445 OFFCURVE",
"867 443 OFFCURVE",
"864 440 CURVE SMOOTH",
"860 433 OFFCURVE",
"855 426 OFFCURVE",
"851 419 CURVE SMOOTH",
"839 403 OFFCURVE",
"827 387 OFFCURVE",
"815 371 CURVE SMOOTH",
"778 323 OFFCURVE",
"738 276 OFFCURVE",
"695 233 CURVE",
"655 229 OFFCURVE",
"496 219 OFFCURVE",
"470 208 CURVE SMOOTH",
"465 206 OFFCURVE",
"457 203 OFFCURVE",
"457 196 CURVE SMOOTH",
"457 194 OFFCURVE",
"458 191 OFFCURVE",
"459 190 CURVE SMOOTH",
"471 176 OFFCURVE",
"518 162 OFFCURVE",
"536 158 CURVE SMOOTH",
"560 153 OFFCURVE",
"584 150 OFFCURVE",
"607 148 CURVE",
"504 53 OFFCURVE",
"285 -125 OFFCURVE",
"134 -125 CURVE SMOOTH",
"71 -125 OFFCURVE",
"30 -91 OFFCURVE",
"30 -27 CURVE SMOOTH",
"30 83 OFFCURVE",
"134 188 OFFCURVE",
"222 240 CURVE SMOOTH",
"260 263 OFFCURVE",
"302 280 OFFCURVE",
"345 293 CURVE SMOOTH",
"362 297 OFFCURVE",
"379 300 OFFCURVE",
"396 300 CURVE SMOOTH",
"411 300 OFFCURVE",
"434 297 OFFCURVE",
"443 283 CURVE SMOOTH",
"445 280 OFFCURVE",
"446 278 OFFCURVE",
"450 278 CURVE SMOOTH",
"454 278 OFFCURVE",
"459 282 OFFCURVE",
"459 286 CURVE SMOOTH",
"459 287 OFFCURVE",
"458 289 OFFCURVE",
"458 289 CURVE",
"448 311 OFFCURVE",
"418 316 OFFCURVE",
"396 316 CURVE SMOOTH",
"377 316 OFFCURVE",
"358 313 OFFCURVE",
"340 308 CURVE SMOOTH",
"294 294 OFFCURVE",
"248 276 OFFCURVE",
"205 253 CURVE SMOOTH",
"112 200 OFFCURVE",
"9 99 OFFCURVE",
"9 -16 CURVE SMOOTH",
"9 -98 OFFCURVE",
"63 -143 OFFCURVE",
"142 -143 CURVE SMOOTH",
"187 -143 OFFCURVE",
"234 -129 OFFCURVE",
"275 -111 CURVE SMOOTH",
"417 -51 OFFCURVE",
"540 36 OFFCURVE",
"649 145 CURVE",
"674 143 OFFCURVE",
"700 143 OFFCURVE",
"725 143 CURVE SMOOTH",
"738 143 OFFCURVE",
"751 143 OFFCURVE",
"763 143 CURVE",
"754 118 OFFCURVE",
"747 90 OFFCURVE",
"747 63 CURVE SMOOTH",
"747 33 OFFCURVE",
"756 7 OFFCURVE",
"780 -13 CURVE",
"782 -13 OFFCURVE",
"783 -14 OFFCURVE",
"785 -14 CURVE SMOOTH",
"790 -14 OFFCURVE",
"794 -10 OFFCURVE",
"794 -5 CURVE SMOOTH",
"794 3 OFFCURVE",
"774 7 OFFCURVE",
"774 44 CURVE SMOOTH",
"774 76 OFFCURVE",
"787 116 OFFCURVE",
"800 145 CURVE",
"811 147 OFFCURVE",
"868 151 OFFCURVE",
"868 166 CURVE SMOOTH",
"868 169 OFFCURVE",
"866 171 OFFCURVE",
"863 171 CURVE SMOOTH",
"862 171 OFFCURVE",
"861 170 OFFCURVE",
"860 170 CURVE",
"843 163 OFFCURVE",
"825 161 OFFCURVE",
"806 160 CURVE",
"818 187 OFFCURVE",
"833 215 OFFCURVE",
"848 242 CURVE",
"885 250 OFFCURVE",
"1074 297 OFFCURVE",
"1074 346 CURVE SMOOTH",
"1074 378 OFFCURVE",
"977 394 OFFCURVE",
"952 399 CURVE"
);
},
{
closed = 1;
nodes = (
"1020 520 OFFCURVE",
"1014 513 OFFCURVE",
"1008 505 CURVE SMOOTH",
"980 473 OFFCURVE",
"950 440 OFFCURVE",
"923 406 CURVE",
"918 407 OFFCURVE",
"905 411 OFFCURVE",
"905 418 CURVE SMOOTH",
"905 423 OFFCURVE",
"910 428 OFFCURVE",
"913 431 CURVE SMOOTH",
"937 453 OFFCURVE",
"962 474 OFFCURVE",
"986 495 CURVE SMOOTH",
"999 506 OFFCURVE",
"1012 518 OFFCURVE",
"1026 527 CURVE"
);
},
{
closed = 1;
nodes = (
"956 376 OFFCURVE",
"973 373 OFFCURVE",
"991 369 CURVE SMOOTH",
"1003 365 OFFCURVE",
"1018 363 OFFCURVE",
"1029 358 CURVE SMOOTH",
"1034 356 OFFCURVE",
"1045 353 OFFCURVE",
"1045 345 CURVE SMOOTH",
"1045 342 OFFCURVE",
"1043 339 OFFCURVE",
"1042 336 CURVE",
"1020 296 OFFCURVE",
"898 265 OFFCURVE",
"856 256 CURVE",
"882 299 OFFCURVE",
"909 341 OFFCURVE",
"938 381 CURVE"
);
},
{
closed = 1;
nodes = (
"746 222 OFFCURVE",
"775 227 OFFCURVE",
"805 233 CURVE",
"791 209 OFFCURVE",
"779 183 OFFCURVE",
"769 158 CURVE",
"735 158 OFFCURVE",
"701 160 OFFCURVE",
"667 163 CURVE",
"684 181 OFFCURVE",
"700 199 OFFCURVE",
"716 217 CURVE"
);
},
{
closed = 1;
nodes = (
"549 185 OFFCURVE",
"549 185 OFFCURVE",
"549 185 CURVE",
"558 189 OFFCURVE",
"568 191 OFFCURVE",
"577 193 CURVE SMOOTH",
"609 200 OFFCURVE",
"641 205 OFFCURVE",
"673 210 CURVE",
"659 196 OFFCURVE",
"644 182 OFFCURVE",
"630 168 CURVE",
"605 172 OFFCURVE",
"572 176 OFFCURVE",
"549 185 CURVE",
"549 185 OFFCURVE",
"549 185 OFFCURVE",
"549 185 CURVE"
);
}
);
};
layerId = "95C423A7-595F-441F-915A-E5EF8B5EF971";
paths = (
{
closed = 1;
nodes = (
"187 -143 OFFCURVE",
"234 -129 OFFCURVE",
"275 -111 CURVE SMOOTH",
"417 -51 OFFCURVE",
"540 36 OFFCURVE",
"649 145 CURVE",
"668 144 OFFCURVE",
"707 143 OFFCURVE",
"736 143 CURVE SMOOTH",
"747 143 OFFCURVE",
"757 143 OFFCURVE",
"763 143 CURVE",
"754 118 OFFCURVE",
"747 90 OFFCURVE",
"747 63 CURVE SMOOTH",
"747 33 OFFCURVE",
"756 7 OFFCURVE",
"780 -13 CURVE",
"782 -13 OFFCURVE",
"783 -14 OFFCURVE",
"785 -14 CURVE SMOOTH",
"790 -14 OFFCURVE",
"794 -10 OFFCURVE",
"794 -5 CURVE SMOOTH",
"794 3 OFFCURVE",
"774 7 OFFCURVE",
"774 44 CURVE SMOOTH",
"774 76 OFFCURVE",
"787 116 OFFCURVE",
"800 145 CURVE",
"811 147 OFFCURVE",
"868 151 OFFCURVE",
"868 166 CURVE SMOOTH",
"868 169 OFFCURVE",
"866 171 OFFCURVE",
"863 171 CURVE SMOOTH",
"862 171 OFFCURVE",
"861 170 OFFCURVE",
"860 170 CURVE",
"843 163 OFFCURVE",
"825 161 OFFCURVE",
"806 160 CURVE",
"818 187 OFFCURVE",
"833 215 OFFCURVE",
"848 242 CURVE",
"885 250 OFFCURVE",
"1074 297 OFFCURVE",
"1074 346 CURVE SMOOTH",
"1074 378 OFFCURVE",
"977 394 OFFCURVE",
"952 399 CURVE",
"970 422 OFFCURVE",
"1083 546 OFFCURVE",
"1083 556 CURVE SMOOTH",
"1083 565 OFFCURVE",
"1068 569 OFFCURVE",
"1061 569 CURVE",
"1053 568 OFFCURVE",
"1054 569 OFFCURVE",
"1038 557 CURVE SMOOTH",
"990 522 OFFCURVE",
"875 423 OFFCURVE",
"875 407 CURVE SMOOTH",
"875 394 OFFCURVE",
"900 391 OFFCURVE",
"909 389 CURVE",
"874 343 OFFCURVE",
"842 296 OFFCURVE",
"813 247 CURVE",
"786 242 OFFCURVE",
"760 239 OFFCURVE",
"733 236 CURVE",
"784 297 OFFCURVE",
"833 362 OFFCURVE",
"874 430 CURVE",
"877 433 OFFCURVE",
"880 438 OFFCURVE",
"880 441 CURVE SMOOTH",
"880 444 OFFCURVE",
"877 445 OFFCURVE",
"874 445 CURVE SMOOTH",
"870 445 OFFCURVE",
"866 443 OFFCURVE",
"864 440 CURVE SMOOTH",
"851 419 LINE SMOOTH",
"840 402 OFFCURVE",
"827 387 OFFCURVE",
"815 371 CURVE SMOOTH",
"778 323 OFFCURVE",
"738 276 OFFCURVE",
"695 233 CURVE",
"655 229 OFFCURVE",
"496 219 OFFCURVE",
"470 208 CURVE SMOOTH",
"465 206 OFFCURVE",
"457 203 OFFCURVE",
"457 196 CURVE SMOOTH",
"457 179 OFFCURVE",
"517 162 OFFCURVE",
"536 158 CURVE SMOOTH",
"560 153 OFFCURVE",
"584 150 OFFCURVE",
"607 148 CURVE",
"504 53 OFFCURVE",
"285 -125 OFFCURVE",
"134 -125 CURVE SMOOTH",
"71 -125 OFFCURVE",
"30 -91 OFFCURVE",
"30 -27 CURVE SMOOTH",
"30 83 OFFCURVE",
"134 188 OFFCURVE",
"222 240 CURVE SMOOTH",
"269 268 OFFCURVE",
"347 300 OFFCURVE",
"396 300 CURVE SMOOTH",
"411 300 OFFCURVE",
"434 297 OFFCURVE",
"443 283 CURVE SMOOTH",
"445 280 OFFCURVE",
"446 278 OFFCURVE",
"450 278 CURVE SMOOTH",
"454 278 OFFCURVE",
"459 281 OFFCURVE",
"459 285 CURVE SMOOTH",
"459 286 OFFCURVE",
"459 287 OFFCURVE",
"458 287 CURVE",
"453 308 OFFCURVE",
"422 316 OFFCURVE",
"396 316 CURVE SMOOTH",
"345 316 OFFCURVE",
"259 283 OFFCURVE",
"205 253 CURVE SMOOTH",
"112 200 OFFCURVE",
"9 99 OFFCURVE",
"9 -16 CURVE SMOOTH",
"9 -98 OFFCURVE",
"63 -143 OFFCURVE",
"142 -143 CURVE SMOOTH"
);
},
{
closed = 1;
nodes = (
"605 172 OFFCURVE",
"557 180 OFFCURVE",
"549 185 CURVE",
"567 193 OFFCURVE",
"621 202 OFFCURVE",
"673 210 CURVE",
"659 196 OFFCURVE",
"644 182 OFFCURVE",
"630 168 CURVE"
);
},
{
closed = 1;
nodes = (
"735 158 OFFCURVE",
"701 160 OFFCURVE",
"667 163 CURVE",
"684 181 OFFCURVE",
"700 199 OFFCURVE",
"716 217 CURVE",
"746 222 OFFCURVE",
"775 227 OFFCURVE",
"805 233 CURVE",
"791 209 OFFCURVE",
"779 183 OFFCURVE",
"769 158 CURVE"
);
},
{
closed = 1;
nodes = (
"882 299 OFFCURVE",
"909 341 OFFCURVE",
"938 381 CURVE",
"954 377 OFFCURVE",
"1015 363 OFFCURVE",
"1029 358 CURVE",
"1034 356 OFFCURVE",
"1045 353 OFFCURVE",
"1045 345 CURVE SMOOTH",
"1045 304 OFFCURVE",
"903 267 OFFCURVE",
"856 256 CURVE"
);
},
{
closed = 1;
nodes = (
"918 407 OFFCURVE",
"905 411 OFFCURVE",
"905 418 CURVE SMOOTH",
"905 427 OFFCURVE",
"938 454 OFFCURVE",
"962 474 CURVE SMOOTH",
"980 491 OFFCURVE",
"1012 518 OFFCURVE",
"1026 527 CURVE",
"1020 520 OFFCURVE",
"1014 513 OFFCURVE",
"1008 505 CURVE SMOOTH",
"980 473 OFFCURVE",
"950 440 OFFCURVE",
"923 406 CURVE"
);
}
);
width = 908;
}
);
note = A;
unicode = 0041;
},
{
glyphname = Aacute;
lastChange = "2021-10-09 01:58:11 +0000";
layers = (
{
background = {
paths = (
{
closed = 1;
nodes = (
"1080 603 OFFCURVE",
"1082 604 OFFCURVE",
"1084 605 CURVE SMOOTH",
"1114 623 OFFCURVE",
"1144 638 OFFCURVE",
"1174 654 CURVE SMOOTH",
"1182 658 OFFCURVE",
"1196 667 OFFCURVE",
"1196 677 CURVE SMOOTH",
"1196 684 OFFCURVE",
"1187 687 OFFCURVE",
"1182 687 CURVE SMOOTH",
"1170 687 OFFCURVE",
"1160 681 OFFCURVE",
"1152 674 CURVE SMOOTH",
"1141 664 OFFCURVE",
"1074 618 OFFCURVE",
"1074 608 CURVE SMOOTH",
"1074 605 OFFCURVE",
"1076 603 OFFCURVE",
"1078 603 CURVE SMOOTH"
);
},
{
closed = 1;
nodes = (
"970 422 OFFCURVE",
"1083 546 OFFCURVE",
"1083 556 CURVE SMOOTH",
"1083 565 OFFCURVE",
"1068 569 OFFCURVE",
"1061 569 CURVE SMOOTH",
"1060 569 OFFCURVE",
"1058 569 OFFCURVE",
"1056 569 CURVE",
"1035 561 OFFCURVE",
"896 440 OFFCURVE",
"880 418 CURVE SMOOTH",
"878 414 OFFCURVE",
"875 411 OFFCURVE",
"875 407 CURVE SMOOTH",
"875 394 OFFCURVE",
"900 391 OFFCURVE",
"909 389 CURVE",
"874 343 OFFCURVE",
"842 296 OFFCURVE",
"813 247 CURVE",
"786 242 OFFCURVE",
"760 239 OFFCURVE",
"733 236 CURVE",
"786 299 OFFCURVE",
"836 367 OFFCURVE",
"879 437 CURVE",
"880 438 OFFCURVE",
"880 440 OFFCURVE",
"880 441 CURVE SMOOTH",
"880 444 OFFCURVE",
"877 445 OFFCURVE",
"874 445 CURVE SMOOTH",
"870 445 OFFCURVE",
"867 443 OFFCURVE",
"864 440 CURVE SMOOTH",
"860 433 OFFCURVE",
"855 426 OFFCURVE",
"851 419 CURVE SMOOTH",
"839 403 OFFCURVE",
"827 387 OFFCURVE",
"815 371 CURVE SMOOTH",
"778 323 OFFCURVE",
"738 276 OFFCURVE",
"695 233 CURVE",
"655 229 OFFCURVE",
"496 219 OFFCURVE",
"470 208 CURVE SMOOTH",
"465 206 OFFCURVE",
"457 203 OFFCURVE",
"457 196 CURVE SMOOTH",
"457 194 OFFCURVE",
"458 191 OFFCURVE",
"459 190 CURVE SMOOTH",
"471 176 OFFCURVE",
"518 162 OFFCURVE",
"536 158 CURVE SMOOTH",
"560 153 OFFCURVE",
"584 150 OFFCURVE",
"607 148 CURVE",
"504 53 OFFCURVE",
"285 -125 OFFCURVE",
"134 -125 CURVE SMOOTH",
"71 -125 OFFCURVE",
"30 -91 OFFCURVE",
"30 -27 CURVE SMOOTH",
"30 83 OFFCURVE",
"134 188 OFFCURVE",
"222 240 CURVE SMOOTH",
"260 263 OFFCURVE",
"302 280 OFFCURVE",
"345 293 CURVE SMOOTH",
"362 297 OFFCURVE",
"379 300 OFFCURVE",
"396 300 CURVE SMOOTH",
"411 300 OFFCURVE",
"434 297 OFFCURVE",
"443 283 CURVE SMOOTH",
"445 280 OFFCURVE",
"446 278 OFFCURVE",
"450 278 CURVE SMOOTH",
"454 278 OFFCURVE",
"459 282 OFFCURVE",
"459 286 CURVE SMOOTH",
"459 287 OFFCURVE",
"458 289 OFFCURVE",
"458 289 CURVE",
"448 311 OFFCURVE",
"418 316 OFFCURVE",
"396 316 CURVE SMOOTH",
"377 316 OFFCURVE",
"358 313 OFFCURVE",
"340 308 CURVE SMOOTH",
"294 294 OFFCURVE",
"248 276 OFFCURVE",
"205 253 CURVE SMOOTH",
"112 200 OFFCURVE",
"9 99 OFFCURVE",
"9 -16 CURVE SMOOTH",
"9 -98 OFFCURVE",
"63 -143 OFFCURVE",
"142 -143 CURVE SMOOTH",
"187 -143 OFFCURVE",
"234 -129 OFFCURVE",
"275 -111 CURVE SMOOTH",
"417 -51 OFFCURVE",
"540 36 OFFCURVE",
"649 145 CURVE",
"674 143 OFFCURVE",
"700 143 OFFCURVE",
"725 143 CURVE SMOOTH",
"738 143 OFFCURVE",
"751 143 OFFCURVE",
"763 143 CURVE",
"754 118 OFFCURVE",
"747 90 OFFCURVE",
"747 63 CURVE SMOOTH",
"747 33 OFFCURVE",
"756 7 OFFCURVE",
"780 -13 CURVE",
"782 -13 OFFCURVE",
"783 -14 OFFCURVE",
"785 -14 CURVE SMOOTH",
"790 -14 OFFCURVE",
"794 -10 OFFCURVE",
"794 -5 CURVE SMOOTH",
"794 3 OFFCURVE",
"774 7 OFFCURVE",
"774 44 CURVE SMOOTH",
"774 76 OFFCURVE",
"787 116 OFFCURVE",
"800 145 CURVE",
"811 147 OFFCURVE",
"868 151 OFFCURVE",
"868 166 CURVE SMOOTH",
"868 169 OFFCURVE",
"866 171 OFFCURVE",
"863 171 CURVE SMOOTH",
"862 171 OFFCURVE",
"861 170 OFFCURVE",
"860 170 CURVE",
"843 163 OFFCURVE",
"825 161 OFFCURVE",
"806 160 CURVE",
"818 187 OFFCURVE",
"833 215 OFFCURVE",
"848 242 CURVE",
"885 250 OFFCURVE",
"1074 297 OFFCURVE",
"1074 346 CURVE SMOOTH",
"1074 378 OFFCURVE",
"977 394 OFFCURVE",
"952 399 CURVE"
);
},
{
closed = 1;
nodes = (
"1020 520 OFFCURVE",
"1014 513 OFFCURVE",
"1008 505 CURVE SMOOTH",
"980 473 OFFCURVE",
"950 440 OFFCURVE",
"923 406 CURVE",
"918 407 OFFCURVE",
"905 411 OFFCURVE",
"905 418 CURVE SMOOTH",
"905 423 OFFCURVE",
"910 428 OFFCURVE",
"913 431 CURVE SMOOTH",
"937 453 OFFCURVE",
"962 474 OFFCURVE",
"986 495 CURVE SMOOTH",
"999 506 OFFCURVE",
"1012 518 OFFCURVE",
"1026 527 CURVE"
);
},
{
closed = 1;
nodes = (
"956 376 OFFCURVE",
"973 373 OFFCURVE",
"991 369 CURVE SMOOTH",
"1003 365 OFFCURVE",
"1018 363 OFFCURVE",
"1029 358 CURVE SMOOTH",
"1034 356 OFFCURVE",
"1045 353 OFFCURVE",
"1045 345 CURVE SMOOTH",
"1045 342 OFFCURVE",
"1043 339 OFFCURVE",
"1042 336 CURVE",
"1020 296 OFFCURVE",
"898 265 OFFCURVE",
"856 256 CURVE",
"882 299 OFFCURVE",
"909 341 OFFCURVE",
"938 381 CURVE"
);
},
{
closed = 1;
nodes = (
"746 222 OFFCURVE",
"775 227 OFFCURVE",
"805 233 CURVE",
"791 209 OFFCURVE",
"779 183 OFFCURVE",
"769 158 CURVE",
"735 158 OFFCURVE",
"701 160 OFFCURVE",
"667 163 CURVE",
"684 181 OFFCURVE",
"700 199 OFFCURVE",
"716 217 CURVE"
);
},
{
closed = 1;
nodes = (
"549 185 OFFCURVE",
"549 185 OFFCURVE",
"549 185 CURVE",
"558 189 OFFCURVE",
"568 191 OFFCURVE",
"577 193 CURVE SMOOTH",
"609 200 OFFCURVE",
"641 205 OFFCURVE",
"673 210 CURVE",
"659 196 OFFCURVE",
"644 182 OFFCURVE",
"630 168 CURVE",
"605 172 OFFCURVE",
"572 176 OFFCURVE",
"549 185 CURVE",
"549 185 OFFCURVE",
"549 185 OFFCURVE",
"549 185 CURVE"
);
}
);
};
components = (
{
name = A;
},
{
name = acutecomb.case;
transform = "{1, 0, 0, 1, 1065, 349}";
}
);
layerId = "95C423A7-595F-441F-915A-E5EF8B5EF971";
width = 908;
}
);
note = Aacute;
unicode = 00C1;
},
{
glyphname = Adieresis;
lastChange = "2021-10-09 01:58:11 +0000";
layers = (
{
background = {
paths = (
{
closed = 1;
nodes = (
"1068 686 LINE",
"1067 687 OFFCURVE",
"1067 687 OFFCURVE",
"1066 687 CURVE SMOOTH",
"1054 687 OFFCURVE",
"1017 664 OFFCURVE",
"1017 650 CURVE SMOOTH",
"1017 644 OFFCURVE",
"1024 631 OFFCURVE",
"1031 631 CURVE SMOOTH",
"1040 631 OFFCURVE",
"1047 645 OFFCURVE",
"1049 653 CURVE SMOOTH",
"1052 660 OFFCURVE",
"1054 668 OFFCURVE",
"1059 674 CURVE",
"1060 676 OFFCURVE",
"1068 685 OFFCURVE",
"1068 685 CURVE SMOOTH",
"1068 687 LINE"
);
},
{
closed = 1;
nodes = (
"1146 686 LINE",
"1145 687 OFFCURVE",
"1145 687 OFFCURVE",
"1144 687 CURVE SMOOTH",
"1132 687 OFFCURVE",
"1095 664 OFFCURVE",
"1095 650 CURVE SMOOTH",
"1095 644 OFFCURVE",
"1102 631 OFFCURVE",
"1109 631 CURVE SMOOTH",
"1118 631 OFFCURVE",
"1125 645 OFFCURVE",
"1127 653 CURVE SMOOTH",
"1130 660 OFFCURVE",
"1133 668 OFFCURVE",
"1137 674 CURVE",
"1138 676 OFFCURVE",
"1146 685 OFFCURVE",
"1146 685 CURVE SMOOTH",
"1146 687 LINE"
);
},
{
closed = 1;
nodes = (
"970 422 OFFCURVE",
"1083 546 OFFCURVE",
"1083 556 CURVE SMOOTH",
"1083 565 OFFCURVE",
"1068 569 OFFCURVE",
"1061 569 CURVE SMOOTH",
"1060 569 OFFCURVE",
"1058 569 OFFCURVE",
"1056 569 CURVE",
"1035 561 OFFCURVE",
"896 440 OFFCURVE",
"880 418 CURVE SMOOTH",
"878 414 OFFCURVE",
"875 411 OFFCURVE",
"875 407 CURVE SMOOTH",
"875 394 OFFCURVE",
"900 391 OFFCURVE",
"909 389 CURVE",
"874 343 OFFCURVE",
"842 296 OFFCURVE",
"813 247 CURVE",
"786 242 OFFCURVE",
"760 239 OFFCURVE",
"733 236 CURVE",
"786 299 OFFCURVE",
"836 367 OFFCURVE",
"879 437 CURVE",
"880 438 OFFCURVE",
"880 440 OFFCURVE",
"880 441 CURVE SMOOTH",
"880 444 OFFCURVE",
"877 445 OFFCURVE",
"874 445 CURVE SMOOTH",
"870 445 OFFCURVE",
"867 443 OFFCURVE",
"864 440 CURVE SMOOTH",
"860 433 OFFCURVE",
"855 426 OFFCURVE",
"851 419 CURVE SMOOTH",
"839 403 OFFCURVE",
"827 387 OFFCURVE",
"815 371 CURVE SMOOTH",
"778 323 OFFCURVE",
"738 276 OFFCURVE",
"695 233 CURVE",
"655 229 OFFCURVE",
"496 219 OFFCURVE",
"470 208 CURVE SMOOTH",
"465 206 OFFCURVE",
"457 203 OFFCURVE",
"457 196 CURVE SMOOTH",
"457 194 OFFCURVE",
"458 191 OFFCURVE",
"459 190 CURVE SMOOTH",
"471 176 OFFCURVE",
"518 162 OFFCURVE",
"536 158 CURVE SMOOTH",
"560 153 OFFCURVE",
"584 150 OFFCURVE",
"607 148 CURVE",
"504 53 OFFCURVE",
"285 -125 OFFCURVE",
"134 -125 CURVE SMOOTH",
"71 -125 OFFCURVE",
"30 -91 OFFCURVE",
"30 -27 CURVE SMOOTH",
"30 83 OFFCURVE",
"134 188 OFFCURVE",
"222 240 CURVE SMOOTH",
"260 263 OFFCURVE",
"302 280 OFFCURVE",
"345 293 CURVE SMOOTH",
"362 297 OFFCURVE",
"379 300 OFFCURVE",
"396 300 CURVE SMOOTH",
"411 300 OFFCURVE",
"434 297 OFFCURVE",
"443 283 CURVE SMOOTH",
"445 280 OFFCURVE",
"446 278 OFFCURVE",
"450 278 CURVE SMOOTH",
"454 278 OFFCURVE",
"459 282 OFFCURVE",
"459 286 CURVE SMOOTH",
"459 287 OFFCURVE",
"458 289 OFFCURVE",
"458 289 CURVE",
"448 311 OFFCURVE",
"418 316 OFFCURVE",
"396 316 CURVE SMOOTH",
"377 316 OFFCURVE",
"358 313 OFFCURVE",
"340 308 CURVE SMOOTH",
"294 294 OFFCURVE",
"248 276 OFFCURVE",
"205 253 CURVE SMOOTH",
"112 200 OFFCURVE",
"9 99 OFFCURVE",
"9 -16 CURVE SMOOTH",
"9 -98 OFFCURVE",
"63 -143 OFFCURVE",
"142 -143 CURVE SMOOTH",
"187 -143 OFFCURVE",
"234 -129 OFFCURVE",
"275 -111 CURVE SMOOTH",
"417 -51 OFFCURVE",
"540 36 OFFCURVE",
"649 145 CURVE",
"674 143 OFFCURVE",
"700 143 OFFCURVE",
"725 143 CURVE SMOOTH",
"738 143 OFFCURVE",
"751 143 OFFCURVE",
"763 143 CURVE",
"754 118 OFFCURVE",
"747 90 OFFCURVE",
"747 63 CURVE SMOOTH",
"747 33 OFFCURVE",
"756 7 OFFCURVE",
"780 -13 CURVE",
"782 -13 OFFCURVE",
"783 -14 OFFCURVE",
"785 -14 CURVE SMOOTH",
"790 -14 OFFCURVE",
"794 -10 OFFCURVE",
"794 -5 CURVE SMOOTH",
"794 3 OFFCURVE",
"774 7 OFFCURVE",
"774 44 CURVE SMOOTH",
"774 76 OFFCURVE",
"787 116 OFFCURVE",
"800 145 CURVE",
"811 147 OFFCURVE",
"868 151 OFFCURVE",
"868 166 CURVE SMOOTH",
"868 169 OFFCURVE",
"866 171 OFFCURVE",
"863 171 CURVE SMOOTH",
"862 171 OFFCURVE",
"861 170 OFFCURVE",
"860 170 CURVE",
"843 163 OFFCURVE",
"825 161 OFFCURVE",
"806 160 CURVE",
"818 187 OFFCURVE",
"833 215 OFFCURVE",
"848 242 CURVE",
"885 250 OFFCURVE",
"1074 297 OFFCURVE",
"1074 346 CURVE SMOOTH",
"1074 378 OFFCURVE",
"977 394 OFFCURVE",
"952 399 CURVE"
);
},
{
closed = 1;
nodes = (
"1020 520 OFFCURVE",
"1014 513 OFFCURVE",
"1008 505 CURVE SMOOTH",
"980 473 OFFCURVE",
"950 440 OFFCURVE",
"923 406 CURVE",
"918 407 OFFCURVE",
"905 411 OFFCURVE",
"905 418 CURVE SMOOTH",
"905 423 OFFCURVE",
"910 428 OFFCURVE",
"913 431 CURVE SMOOTH",
"937 453 OFFCURVE",
"962 474 OFFCURVE",
"986 495 CURVE SMOOTH",
"999 506 OFFCURVE",
"1012 518 OFFCURVE",
"1026 527 CURVE"
);
},
{
closed = 1;
nodes = (
"956 376 OFFCURVE",
"973 373 OFFCURVE",
"991 369 CURVE SMOOTH",
"1003 365 OFFCURVE",
"1018 363 OFFCURVE",
"1029 358 CURVE SMOOTH",
"1034 356 OFFCURVE",
"1045 353 OFFCURVE",
"1045 345 CURVE SMOOTH",
"1045 342 OFFCURVE",
"1043 339 OFFCURVE",
"1042 336 CURVE",
"1020 296 OFFCURVE",
"898 265 OFFCURVE",
"856 256 CURVE",
"882 299 OFFCURVE",
"909 341 OFFCURVE",
"938 381 CURVE"
);
},
{
closed = 1;
nodes = (
"746 222 OFFCURVE",
"775 227 OFFCURVE",
"805 233 CURVE",
"791 209 OFFCURVE",
"779 183 OFFCURVE",
"769 158 CURVE",
"735 158 OFFCURVE",
"701 160 OFFCURVE",
"667 163 CURVE",
"684 181 OFFCURVE",
"700 199 OFFCURVE",
"716 217 CURVE"
);
},
{
closed = 1;
nodes = (
"549 185 OFFCURVE",
"549 185 OFFCURVE",
"549 185 CURVE",
"558 189 OFFCURVE",
"568 191 OFFCURVE",
"577 193 CURVE SMOOTH",
"609 200 OFFCURVE",
"641 205 OFFCURVE",
"673 210 CURVE",
"659 196 OFFCURVE",
"644 182 OFFCURVE",
"630 168 CURVE",
"605 172 OFFCURVE",
"572 176 OFFCURVE",
"549 185 CURVE",
"549 185 OFFCURVE",
"549 185 OFFCURVE",
"549 185 CURVE"
);
}
);
};
components = (
{
name = A;
},
{
name = dieresiscomb.case;
transform = "{1, 0, 0, 1, 1041, 349}";
}
);
layerId = "95C423A7-595F-441F-915A-E5EF8B5EF971";
width = 908;
}
);
note = Adieresis;
unicode = 00C4;
},
{
glyphname = Agrave;
lastChange = "2021-10-09 01:58:11 +0000";
layers = (
{
background = {
paths = (
{
closed = 1;
nodes = (
"1125 589 OFFCURVE",
"1127 591 OFFCURVE",
"1127 594 CURVE SMOOTH",
"1127 604 OFFCURVE",
"1060 650 OFFCURVE",
"1049 660 CURVE SMOOTH",
"1042 667 OFFCURVE",
"1031 673 OFFCURVE",
"1020 673 CURVE SMOOTH",
"1014 673 OFFCURVE",
"1005 670 OFFCURVE",
"1005 663 CURVE SMOOTH",
"1005 653 OFFCURVE",
"1019 644 OFFCURVE",
"1027 640 CURVE SMOOTH",
"1057 624 OFFCURVE",
"1087 609 OFFCURVE",
"1117 591 CURVE SMOOTH",
"1119 590 OFFCURVE",
"1121 589 OFFCURVE",
"1123 589 CURVE SMOOTH"
);
},
{
closed = 1;
nodes = (
"970 422 OFFCURVE",
"1083 546 OFFCURVE",
"1083 556 CURVE SMOOTH",
"1083 565 OFFCURVE",
"1068 569 OFFCURVE",
"1061 569 CURVE SMOOTH",
"1060 569 OFFCURVE",
"1058 569 OFFCURVE",
"1056 569 CURVE",
"1035 561 OFFCURVE",
"896 440 OFFCURVE",
"880 418 CURVE SMOOTH",
"878 414 OFFCURVE",
"875 411 OFFCURVE",
"875 407 CURVE SMOOTH",
"875 394 OFFCURVE",
"900 391 OFFCURVE",
"909 389 CURVE",
"874 343 OFFCURVE",
"842 296 OFFCURVE",
"813 247 CURVE",
"786 242 OFFCURVE",
"760 239 OFFCURVE",
"733 236 CURVE",
"786 299 OFFCURVE",
"836 367 OFFCURVE",
"879 437 CURVE",
"880 438 OFFCURVE",
"880 440 OFFCURVE",
"880 441 CURVE SMOOTH",
"880 444 OFFCURVE",
"877 445 OFFCURVE",
"874 445 CURVE SMOOTH",
"870 445 OFFCURVE",
"867 443 OFFCURVE",
"864 440 CURVE SMOOTH",
"860 433 OFFCURVE",
"855 426 OFFCURVE",
"851 419 CURVE SMOOTH",
"839 403 OFFCURVE",
"827 387 OFFCURVE",
"815 371 CURVE SMOOTH",
"778 323 OFFCURVE",
"738 276 OFFCURVE",
"695 233 CURVE",
"655 229 OFFCURVE",
"496 219 OFFCURVE",
"470 208 CURVE SMOOTH",
"465 206 OFFCURVE",
"457 203 OFFCURVE",
"457 196 CURVE SMOOTH",
"457 194 OFFCURVE",
"458 191 OFFCURVE",
"459 190 CURVE SMOOTH",
"471 176 OFFCURVE",
"518 162 OFFCURVE",
"536 158 CURVE SMOOTH",
"560 153 OFFCURVE",
"584 150 OFFCURVE",
"607 148 CURVE",
"504 53 OFFCURVE",
"285 -125 OFFCURVE",
"134 -125 CURVE SMOOTH",
"71 -125 OFFCURVE",
"30 -91 OFFCURVE",
"30 -27 CURVE SMOOTH",
"30 83 OFFCURVE",
"134 188 OFFCURVE",
"222 240 CURVE SMOOTH",
"260 263 OFFCURVE",
"302 280 OFFCURVE",
"345 293 CURVE SMOOTH",
"362 297 OFFCURVE",
"379 300 OFFCURVE",
"396 300 CURVE SMOOTH",
"411 300 OFFCURVE",
"434 297 OFFCURVE",
"443 283 CURVE SMOOTH",
"445 280 OFFCURVE",
"446 278 OFFCURVE",
"450 278 CURVE SMOOTH",
"454 278 OFFCURVE",
"459 282 OFFCURVE",
"459 286 CURVE SMOOTH",
"459 287 OFFCURVE",
"458 289 OFFCURVE",
"458 289 CURVE",
"448 311 OFFCURVE",
"418 316 OFFCURVE",
"396 316 CURVE SMOOTH",
"377 316 OFFCURVE",
"358 313 OFFCURVE",
"340 308 CURVE SMOOTH",
"294 294 OFFCURVE",
"248 276 OFFCURVE",
"205 253 CURVE SMOOTH",
"112 200 OFFCURVE",
"9 99 OFFCURVE",
"9 -16 CURVE SMOOTH",
"9 -98 OFFCURVE",
"63 -143 OFFCURVE",
"142 -143 CURVE SMOOTH",
"187 -143 OFFCURVE",
"234 -129 OFFCURVE",
"275 -111 CURVE SMOOTH",
"417 -51 OFFCURVE",
"540 36 OFFCURVE",
"649 145 CURVE",
"674 143 OFFCURVE",
"700 143 OFFCURVE",
"725 143 CURVE SMOOTH",
"738 143 OFFCURVE",
"751 143 OFFCURVE",
"763 143 CURVE",
"754 118 OFFCURVE",
"747 90 OFFCURVE",
"747 63 CURVE SMOOTH",
"747 33 OFFCURVE",
"756 7 OFFCURVE",
"780 -13 CURVE",
"782 -13 OFFCURVE",
"783 -14 OFFCURVE",
"785 -14 CURVE SMOOTH",
"790 -14 OFFCURVE",
"794 -10 OFFCURVE",
"794 -5 CURVE SMOOTH",
"794 3 OFFCURVE",
"774 7 OFFCURVE",
"774 44 CURVE SMOOTH",
"774 76 OFFCURVE",
"787 116 OFFCURVE",
"800 145 CURVE",
"811 147 OFFCURVE",
"868 151 OFFCURVE",
"868 166 CURVE SMOOTH",
"868 169 OFFCURVE",
"866 171 OFFCURVE",
"863 171 CURVE SMOOTH",
"862 171 OFFCURVE",
"861 170 OFFCURVE",
"860 170 CURVE",
"843 163 OFFCURVE",
"825 161 OFFCURVE",
"806 160 CURVE",
"818 187 OFFCURVE",
"833 215 OFFCURVE",
"848 242 CURVE",
"885 250 OFFCURVE",
"1074 297 OFFCURVE",
"1074 346 CURVE SMOOTH",
"1074 378 OFFCURVE",
"977 394 OFFCURVE",
"952 399 CURVE"
);
},
{
closed = 1;
nodes = (
"1020 520 OFFCURVE",
"1014 513 OFFCURVE",
"1008 505 CURVE SMOOTH",
"980 473 OFFCURVE",
"950 440 OFFCURVE",
"923 406 CURVE",
"918 407 OFFCURVE",
"905 411 OFFCURVE",
"905 418 CURVE SMOOTH",
"905 423 OFFCURVE",
"910 428 OFFCURVE",
"913 431 CURVE SMOOTH",
"937 453 OFFCURVE",
"962 474 OFFCURVE",
"986 495 CURVE SMOOTH",
"999 506 OFFCURVE",
"1012 518 OFFCURVE",
"1026 527 CURVE"
);
},
{
closed = 1;
nodes = (
"956 376 OFFCURVE",
"973 373 OFFCURVE",
"991 369 CURVE SMOOTH",
"1003 365 OFFCURVE",
"1018 363 OFFCURVE",
"1029 358 CURVE SMOOTH",
"1034 356 OFFCURVE",
"1045 353 OFFCURVE",
"1045 345 CURVE SMOOTH",
"1045 342 OFFCURVE",
"1043 339 OFFCURVE",
"1042 336 CURVE",
"1020 296 OFFCURVE",
"898 265 OFFCURVE",
"856 256 CURVE",
"882 299 OFFCURVE",
"909 341 OFFCURVE",
"938 381 CURVE"
);
},
{
closed = 1;
nodes = (
"746 222 OFFCURVE",
"775 227 OFFCURVE",
"805 233 CURVE",
"791 209 OFFCURVE",
"779 183 OFFCURVE",
"769 158 CURVE",
"735 158 OFFCURVE",
"701 160 OFFCURVE",
"667 163 CURVE",
"684 181 OFFCURVE",
"700 199 OFFCURVE",
"716 217 CURVE"
);
},
{
closed = 1;
nodes = (
"549 185 OFFCURVE",
"549 185 OFFCURVE",
"549 185 CURVE",
"558 189 OFFCURVE",
"568 191 OFFCURVE",
"577 193 CURVE SMOOTH",
"609 200 OFFCURVE",
"641 205 OFFCURVE",
"673 210 CURVE",
"659 196 OFFCURVE",
"644 182 OFFCURVE",
"630 168 CURVE",
"605 172 OFFCURVE",
"572 176 OFFCURVE",
"549 185 CURVE",
"549 185 OFFCURVE",
"549 185 OFFCURVE",
"549 185 CURVE"
);
}
);
};
components = (
{
name = A;
},
{
name = gravecomb.case;
transform = "{1, 0, 0, 1, 1039, 349}";
}
);
layerId = "95C423A7-595F-441F-915A-E5EF8B5EF971";
width = 908;
}
);
note = Agrave;
unicode = 00C0;
},
{
glyphname = Aring;
lastChange = "2021-10-09 01:58:11 +0000";
layers = (
{
background = {
paths = (
{
closed = 1;
nodes = (
"1111 561 OFFCURVE",
"1139 591 OFFCURVE",
"1139 622 CURVE SMOOTH",
"1139 638 OFFCURVE",
"1129 656 OFFCURVE",
"1111 656 CURVE SMOOTH",
"1098 656 OFFCURVE",
"1084 646 OFFCURVE",
"1078 634 CURVE",
"1063 630 OFFCURVE",
"1053 600 OFFCURVE",
"1053 586 CURVE SMOOTH",
"1053 570 OFFCURVE",
"1064 561 OFFCURVE",
"1080 561 CURVE SMOOTH"
);
},
{
closed = 1;
nodes = (
"1123 602 OFFCURVE",
"1109 573 OFFCURVE",
"1087 573 CURVE SMOOTH",
"1080 573 OFFCURVE",
"1077 580 OFFCURVE",
"1077 586 CURVE SMOOTH",
"1077 608 OFFCURVE",
"1091 614 OFFCURVE",
"1098 632 CURVE",
"1091 635 LINE",
"1096 639 OFFCURVE",
"1103 643 OFFCURVE",
"1109 643 CURVE SMOOTH",
"1121 643 OFFCURVE",
"1123 629 OFFCURVE",
"1123 621 CURVE SMOOTH"
);
},
{
closed = 1;
nodes = (
"970 422 OFFCURVE",
"1083 546 OFFCURVE",
"1083 556 CURVE SMOOTH",
"1083 565 OFFCURVE",
"1068 569 OFFCURVE",
"1061 569 CURVE SMOOTH",
"1060 569 OFFCURVE",
"1058 569 OFFCURVE",
"1056 569 CURVE",
"1035 561 OFFCURVE",
"896 440 OFFCURVE",
"880 418 CURVE SMOOTH",
"878 414 OFFCURVE",
"875 411 OFFCURVE",
"875 407 CURVE SMOOTH",
"875 394 OFFCURVE",
"900 391 OFFCURVE",
"909 389 CURVE",
"874 343 OFFCURVE",
"842 296 OFFCURVE",
"813 247 CURVE",
"786 242 OFFCURVE",
"760 239 OFFCURVE",
"733 236 CURVE",
"786 299 OFFCURVE",
"836 367 OFFCURVE",
"879 437 CURVE",
"880 438 OFFCURVE",
"880 440 OFFCURVE",
"880 441 CURVE SMOOTH",
"880 444 OFFCURVE",
"877 445 OFFCURVE",
"874 445 CURVE SMOOTH",
"870 445 OFFCURVE",
"867 443 OFFCURVE",
"864 440 CURVE SMOOTH",
"860 433 OFFCURVE",
"855 426 OFFCURVE",
"851 419 CURVE SMOOTH",
"839 403 OFFCURVE",
"827 387 OFFCURVE",
"815 371 CURVE SMOOTH",
"778 323 OFFCURVE",
"738 276 OFFCURVE",
"695 233 CURVE",
"655 229 OFFCURVE",
"496 219 OFFCURVE",
"470 208 CURVE SMOOTH",
"465 206 OFFCURVE",
"457 203 OFFCURVE",
"457 196 CURVE SMOOTH",
"457 194 OFFCURVE",
"458 191 OFFCURVE",
"459 190 CURVE SMOOTH",
"471 176 OFFCURVE",
"518 162 OFFCURVE",
"536 158 CURVE SMOOTH",
"560 153 OFFCURVE",
"584 150 OFFCURVE",
"607 148 CURVE",
"504 53 OFFCURVE",
"285 -125 OFFCURVE",
"134 -125 CURVE SMOOTH",
"71 -125 OFFCURVE",
"30 -91 OFFCURVE",
"30 -27 CURVE SMOOTH",
"30 83 OFFCURVE",
"134 188 OFFCURVE",
"222 240 CURVE SMOOTH",
"260 263 OFFCURVE",
"302 280 OFFCURVE",
"345 293 CURVE SMOOTH",
"362 297 OFFCURVE",
"379 300 OFFCURVE",
"396 300 CURVE SMOOTH",
"411 300 OFFCURVE",
"434 297 OFFCURVE",
"443 283 CURVE SMOOTH",
"445 280 OFFCURVE",
"446 278 OFFCURVE",
"450 278 CURVE SMOOTH",
"454 278 OFFCURVE",
"459 282 OFFCURVE",
"459 286 CURVE SMOOTH",
"459 287 OFFCURVE",
"458 289 OFFCURVE",
"458 289 CURVE",
"448 311 OFFCURVE",
"418 316 OFFCURVE",
"396 316 CURVE SMOOTH",
"377 316 OFFCURVE",
"358 313 OFFCURVE",
"340 308 CURVE SMOOTH",
"294 294 OFFCURVE",
"248 276 OFFCURVE",
"205 253 CURVE SMOOTH",
"112 200 OFFCURVE",
"9 99 OFFCURVE",
"9 -16 CURVE SMOOTH",
"9 -98 OFFCURVE",
"63 -143 OFFCURVE",
"142 -143 CURVE SMOOTH",
"187 -143 OFFCURVE",
"234 -129 OFFCURVE",
"275 -111 CURVE SMOOTH",
"417 -51 OFFCURVE",
"540 36 OFFCURVE",
"649 145 CURVE",
"674 143 OFFCURVE",
"700 143 OFFCURVE",
"725 143 CURVE SMOOTH",
"738 143 OFFCURVE",
"751 143 OFFCURVE",
"763 143 CURVE",
"754 118 OFFCURVE",
"747 90 OFFCURVE",
"747 63 CURVE SMOOTH",
"747 33 OFFCURVE",
"756 7 OFFCURVE",
"780 -13 CURVE",
"782 -13 OFFCURVE",
"783 -14 OFFCURVE",
"785 -14 CURVE SMOOTH",
"790 -14 OFFCURVE",
"794 -10 OFFCURVE",
"794 -5 CURVE SMOOTH",
"794 3 OFFCURVE",
"774 7 OFFCURVE",
"774 44 CURVE SMOOTH",
"774 76 OFFCURVE",
"787 116 OFFCURVE",
"800 145 CURVE",
"811 147 OFFCURVE",
"868 151 OFFCURVE",
"868 166 CURVE SMOOTH",
"868 169 OFFCURVE",
"866 171 OFFCURVE",
"863 171 CURVE SMOOTH",
"862 171 OFFCURVE",
"861 170 OFFCURVE",
"860 170 CURVE",
"843 163 OFFCURVE",
"825 161 OFFCURVE",
"806 160 CURVE",
"818 187 OFFCURVE",
"833 215 OFFCURVE",
"848 242 CURVE",
"885 250 OFFCURVE",
"1074 297 OFFCURVE",
"1074 346 CURVE SMOOTH",
"1074 378 OFFCURVE",
"977 394 OFFCURVE",
"952 399 CURVE"
);
},
{
closed = 1;
nodes = (
"1020 520 OFFCURVE",
"1014 513 OFFCURVE",
"1008 505 CURVE SMOOTH",
"980 473 OFFCURVE",
"950 440 OFFCURVE",
"923 406 CURVE",
"918 407 OFFCURVE",
"905 411 OFFCURVE",
"905 418 CURVE SMOOTH",
"905 423 OFFCURVE",
"910 428 OFFCURVE",
"913 431 CURVE SMOOTH",
"937 453 OFFCURVE",
"962 474 OFFCURVE",
"986 495 CURVE SMOOTH",
"999 506 OFFCURVE",
"1012 518 OFFCURVE",
"1026 527 CURVE"
);
},
{
closed = 1;
nodes = (
"956 376 OFFCURVE",
"973 373 OFFCURVE",
"991 369 CURVE SMOOTH",
"1003 365 OFFCURVE",
"1018 363 OFFCURVE",
"1029 358 CURVE SMOOTH",
"1034 356 OFFCURVE",
"1045 353 OFFCURVE",
"1045 345 CURVE SMOOTH",
"1045 342 OFFCURVE",
"1043 339 OFFCURVE",
"1042 336 CURVE",
"1020 296 OFFCURVE",
"898 265 OFFCURVE",
"856 256 CURVE",
"882 299 OFFCURVE",
"909 341 OFFCURVE",
"938 381 CURVE"
);
},
{
closed = 1;
nodes = (
"746 222 OFFCURVE",
"775 227 OFFCURVE",
"805 233 CURVE",
"791 209 OFFCURVE",
"779 183 OFFCURVE",
"769 158 CURVE",
"735 158 OFFCURVE",
"701 160 OFFCURVE",
"667 163 CURVE",
"684 181 OFFCURVE",
"700 199 OFFCURVE",
"716 217 CURVE"
);
},
{
closed = 1;
nodes = (
"549 185 OFFCURVE",
"549 185 OFFCURVE",
"549 185 CURVE",
"558 189 OFFCURVE",
"568 191 OFFCURVE",
"577 193 CURVE SMOOTH",
"609 200 OFFCURVE",
"641 205 OFFCURVE",
"673 210 CURVE",
"659 196 OFFCURVE",
"644 182 OFFCURVE",
"630 168 CURVE",
"605 172 OFFCURVE",
"572 176 OFFCURVE",
"549 185 CURVE",
"549 185 OFFCURVE",
"549 185 OFFCURVE",
"549 185 CURVE"
);
}
);
};
components = (
{
name = A;
},
{
name = ringcomb.case;
transform = "{1, 0, 0, 1, 1059, 349}";
}
);
layerId = "95C423A7-595F-441F-915A-E5EF8B5EF971";
width = 908;
}
);
note = Aring;
unicode = 00C5;
},
{
glyphname = Atilde;
lastChange = "2021-10-09 01:58:11 +0000";
layers = (
{
background = {
paths = (
{
closed = 1;
nodes = (
"1138 603 OFFCURVE",
"1163 624 OFFCURVE",
"1163 633 CURVE SMOOTH",
"1163 634 OFFCURVE",
"1162 634 OFFCURVE",
"1161 634 CURVE SMOOTH",
"1155 634 OFFCURVE",
"1144 619 OFFCURVE",
"1127 619 CURVE SMOOTH",
"1087 619 OFFCURVE",
"1063 644 OFFCURVE",
"1036 644 CURVE SMOOTH",
"1025 644 OFFCURVE",
"999 624 OFFCURVE",
"996 614 CURVE",
"996 613 OFFCURVE",
"998 611 OFFCURVE",
"1000 611 CURVE SMOOTH",
"1005 611 OFFCURVE",
"1018 629 OFFCURVE",
"1035 629 CURVE SMOOTH",
"1065 629 OFFCURVE",
"1096 603 OFFCURVE",
"1128 603 CURVE SMOOTH"
);
},
{
closed = 1;
nodes = (
"970 422 OFFCURVE",
"1083 546 OFFCURVE",
"1083 556 CURVE SMOOTH",
"1083 565 OFFCURVE",
"1068 569 OFFCURVE",
"1061 569 CURVE SMOOTH",
"1060 569 OFFCURVE",
"1058 569 OFFCURVE",
"1056 569 CURVE",
"1035 561 OFFCURVE",
"896 440 OFFCURVE",
"880 418 CURVE SMOOTH",
"878 414 OFFCURVE",
"875 411 OFFCURVE",
"875 407 CURVE SMOOTH",
"875 394 OFFCURVE",
"900 391 OFFCURVE",
"909 389 CURVE",
"874 343 OFFCURVE",
"842 296 OFFCURVE",
"813 247 CURVE",
"786 242 OFFCURVE",
"760 239 OFFCURVE",
"733 236 CURVE",
"786 299 OFFCURVE",
"836 367 OFFCURVE",
"879 437 CURVE",
"880 438 OFFCURVE",
"880 440 OFFCURVE",
"880 441 CURVE SMOOTH",
"880 444 OFFCURVE",
"877 445 OFFCURVE",
"874 445 CURVE SMOOTH",
"870 445 OFFCURVE",
"867 443 OFFCURVE",
"864 440 CURVE SMOOTH",
"860 433 OFFCURVE",
"855 426 OFFCURVE",
"851 419 CURVE SMOOTH",
"839 403 OFFCURVE",
"827 387 OFFCURVE",
"815 371 CURVE SMOOTH",
"778 323 OFFCURVE",
"738 276 OFFCURVE",
"695 233 CURVE",
"655 229 OFFCURVE",
"496 219 OFFCURVE",
"470 208 CURVE SMOOTH",
"465 206 OFFCURVE",
"457 203 OFFCURVE",
"457 196 CURVE SMOOTH",
"457 194 OFFCURVE",
"458 191 OFFCURVE",
"459 190 CURVE SMOOTH",
"471 176 OFFCURVE",
"518 162 OFFCURVE",
"536 158 CURVE SMOOTH",
"560 153 OFFCURVE",
"584 150 OFFCURVE",
"607 148 CURVE",
"504 53 OFFCURVE",
"285 -125 OFFCURVE",
"134 -125 CURVE SMOOTH",
"71 -125 OFFCURVE",
"30 -91 OFFCURVE",
"30 -27 CURVE SMOOTH",
"30 83 OFFCURVE",
"134 188 OFFCURVE",
"222 240 CURVE SMOOTH",
"260 263 OFFCURVE",
"302 280 OFFCURVE",
"345 293 CURVE SMOOTH",
"362 297 OFFCURVE",
"379 300 OFFCURVE",
"396 300 CURVE SMOOTH",
"411 300 OFFCURVE",
"434 297 OFFCURVE",
"443 283 CURVE SMOOTH",
"445 280 OFFCURVE",
"446 278 OFFCURVE",
"450 278 CURVE SMOOTH",
"454 278 OFFCURVE",
"459 282 OFFCURVE",
"459 286 CURVE SMOOTH",
"459 287 OFFCURVE",
"458 289 OFFCURVE",
"458 289 CURVE",
"448 311 OFFCURVE",
"418 316 OFFCURVE",
"396 316 CURVE SMOOTH",
"377 316 OFFCURVE",
"358 313 OFFCURVE",
"340 308 CURVE SMOOTH",
"294 294 OFFCURVE",
"248 276 OFFCURVE",
"205 253 CURVE SMOOTH",
"112 200 OFFCURVE",
"9 99 OFFCURVE",
"9 -16 CURVE SMOOTH",
"9 -98 OFFCURVE",
"63 -143 OFFCURVE",
"142 -143 CURVE SMOOTH",
"187 -143 OFFCURVE",
"234 -129 OFFCURVE",
"275 -111 CURVE SMOOTH",
"417 -51 OFFCURVE",
"540 36 OFFCURVE",
"649 145 CURVE",
"674 143 OFFCURVE",
"700 143 OFFCURVE",
"725 143 CURVE SMOOTH",
"738 143 OFFCURVE",
"751 143 OFFCURVE",
"763 143 CURVE",
"754 118 OFFCURVE",
"747 90 OFFCURVE",
"747 63 CURVE SMOOTH",
"747 33 OFFCURVE",
"756 7 OFFCURVE",
"780 -13 CURVE",
"782 -13 OFFCURVE",
"783 -14 OFFCURVE",
"785 -14 CURVE SMOOTH",
"790 -14 OFFCURVE",
"794 -10 OFFCURVE",
"794 -5 CURVE SMOOTH",
"794 3 OFFCURVE",
"774 7 OFFCURVE",
"774 44 CURVE SMOOTH",
"774 76 OFFCURVE",
"787 116 OFFCURVE",
"800 145 CURVE",
"811 147 OFFCURVE",
"868 151 OFFCURVE",
"868 166 CURVE SMOOTH",
"868 169 OFFCURVE",
"866 171 OFFCURVE",
"863 171 CURVE SMOOTH",
"862 171 OFFCURVE",
"861 170 OFFCURVE",
"860 170 CURVE",
"843 163 OFFCURVE",
"825 161 OFFCURVE",
"806 160 CURVE",
"818 187 OFFCURVE",
"833 215 OFFCURVE",
"848 242 CURVE",
"885 250 OFFCURVE",
"1074 297 OFFCURVE",
"1074 346 CURVE SMOOTH",
"1074 378 OFFCURVE",
"977 394 OFFCURVE",
"952 399 CURVE"
);
},
{
closed = 1;
nodes = (
"1020 520 OFFCURVE",
"1014 513 OFFCURVE",
"1008 505 CURVE SMOOTH",
"980 473 OFFCURVE",
"950 440 OFFCURVE",
"923 406 CURVE",
"918 407 OFFCURVE",
"905 411 OFFCURVE",
"905 418 CURVE SMOOTH",
"905 423 OFFCURVE",
"910 428 OFFCURVE",
"913 431 CURVE SMOOTH",
"937 453 OFFCURVE",
"962 474 OFFCURVE",
"986 495 CURVE SMOOTH",
"999 506 OFFCURVE",
"1012 518 OFFCURVE",
"1026 527 CURVE"
);
},
{
closed = 1;
nodes = (
"956 376 OFFCURVE",
"973 373 OFFCURVE",
"991 369 CURVE SMOOTH",
"1003 365 OFFCURVE",
"1018 363 OFFCURVE",
"1029 358 CURVE SMOOTH",
"1034 356 OFFCURVE",
"1045 353 OFFCURVE",
"1045 345 CURVE SMOOTH",
"1045 342 OFFCURVE",
"1043 339 OFFCURVE",
"1042 336 CURVE",
"1020 296 OFFCURVE",
"898 265 OFFCURVE",
"856 256 CURVE",
"882 299 OFFCURVE",
"909 341 OFFCURVE",
"938 381 CURVE"
);
},
{
closed = 1;
nodes = (
"746 222 OFFCURVE",
"775 227 OFFCURVE",
"805 233 CURVE",
"791 209 OFFCURVE",
"779 183 OFFCURVE",
"769 158 CURVE",
"735 158 OFFCURVE",
"701 160 OFFCURVE",
"667 163 CURVE",
"684 181 OFFCURVE",
"700 199 OFFCURVE",
"716 217 CURVE"
);
},
{
closed = 1;
nodes = (
"549 185 OFFCURVE",
"549 185 OFFCURVE",
"549 185 CURVE",
"558 189 OFFCURVE",
"568 191 OFFCURVE",
"577 193 CURVE SMOOTH",
"609 200 OFFCURVE",
"641 205 OFFCURVE",
"673 210 CURVE",
"659 196 OFFCURVE",
"644 182 OFFCURVE",
"630 168 CURVE",
"605 172 OFFCURVE",
"572 176 OFFCURVE",
"549 185 CURVE",
"549 185 OFFCURVE",
"549 185 OFFCURVE",
"549 185 CURVE"
);
}
);
};
components = (
{
name = A;
},
{
name = tildecomb.case;
transform = "{1, 0, 0, 1, 1014, 349}";
}
);
layerId = "95C423A7-595F-441F-915A-E5EF8B5EF971";
width = 908;
}
);
note = Atilde;
unicode = 00C3;
},
{
glyphname = AE;
lastChange = "2021-10-09 01:58:11 +0000";
layers = (
{
anchors = (
{
name = bottom;
position = "{752, 0}";
},
{
name = top;
position = "{1144, 558}";
}
);
background = {
paths = (
{
closed = 1;
nodes = (
"965 477 OFFCURVE",
"994 506 OFFCURVE",
"1026 527 CURVE",
"1020 520 OFFCURVE",
"1014 513 OFFCURVE",
"1008 505 CURVE SMOOTH",
"937 423 OFFCURVE",
"868 342 OFFCURVE",
"813 247 CURVE",
"786 242 OFFCURVE",
"760 239 OFFCURVE",
"733 236 CURVE",
"763 272 OFFCURVE",
"873 382 OFFCURVE",
"936 452 CURVE"
);
},
{
closed = 1;
nodes = (
"746 222 OFFCURVE",
"775 227 OFFCURVE",
"805 233 CURVE",
"791 209 OFFCURVE",
"779 183 OFFCURVE",
"769 158 CURVE",
"735 158 OFFCURVE",
"701 160 OFFCURVE",
"667 163 CURVE",
"684 181 OFFCURVE",
"700 199 OFFCURVE",
"716 217 CURVE"
);
},
{
closed = 1;
nodes = (
"549 185 OFFCURVE",
"549 185 OFFCURVE",
"549 185 CURVE",
"558 189 OFFCURVE",
"568 191 OFFCURVE",
"577 193 CURVE SMOOTH",
"609 200 OFFCURVE",
"641 205 OFFCURVE",
"673 210 CURVE",
"659 196 OFFCURVE",
"644 182 OFFCURVE",
"630 168 CURVE",
"605 172 OFFCURVE",
"572 176 OFFCURVE",
"549 185 CURVE",
"549 185 OFFCURVE",
"549 185 OFFCURVE",
"549 185 CURVE"
);
},
{
closed = 1;
nodes = (
"1340 488 OFFCURVE",
"1364 494 OFFCURVE",
"1364 509 CURVE SMOOTH",
"1364 514 OFFCURVE",
"1361 518 OFFCURVE",
"1357 521 CURVE SMOOTH",
"1339 538 OFFCURVE",
"1289 545 OFFCURVE",
"1265 545 CURVE SMOOTH",
"1260 545 OFFCURVE",
"1255 545 OFFCURVE",
"1250 544 CURVE SMOOTH",
"1227 543 OFFCURVE",
"1205 538 OFFCURVE",
"1185 531 CURVE SMOOTH",
"1141 514 OFFCURVE",
"1087 474 OFFCURVE",
"1087 423 CURVE SMOOTH",
"1087 389 OFFCURVE",
"1112 363 OFFCURVE",
"1140 347 CURVE",
"1063 338 OFFCURVE",
"983 316 OFFCURVE",
"914 280 CURVE SMOOTH",
"892 267 OFFCURVE",
"867 252 OFFCURVE",
"843 233 CURVE",
"848 242 LINE",
"885 296 OFFCURVE",
"923 373 OFFCURVE",
"952 399 CURVE",
"970 422 OFFCURVE",
"1083 546 OFFCURVE",
"1083 556 CURVE SMOOTH",
"1083 565 OFFCURVE",
"1068 569 OFFCURVE",
"1061 569 CURVE SMOOTH",
"1060 569 OFFCURVE",
"1058 569 OFFCURVE",
"1056 569 CURVE",
"997 547 OFFCURVE",
"742 280 OFFCURVE",
"695 233 CURVE",
"655 229 OFFCURVE",
"496 219 OFFCURVE",
"470 208 CURVE SMOOTH",
"465 206 OFFCURVE",
"457 203 OFFCURVE",
"457 196 CURVE SMOOTH",
"457 194 OFFCURVE",
"458 191 OFFCURVE",
"459 190 CURVE SMOOTH",
"471 176 OFFCURVE",
"518 162 OFFCURVE",
"536 158 CURVE SMOOTH",
"560 153 OFFCURVE",
"584 150 OFFCURVE",
"607 148 CURVE",
"504 53 OFFCURVE",
"285 -125 OFFCURVE",
"134 -125 CURVE SMOOTH",
"71 -125 OFFCURVE",
"30 -91 OFFCURVE",
"30 -27 CURVE SMOOTH",
"30 83 OFFCURVE",
"134 188 OFFCURVE",
"222 240 CURVE SMOOTH",
"260 263 OFFCURVE",
"302 280 OFFCURVE",
"345 293 CURVE SMOOTH",
"362 297 OFFCURVE",
"379 300 OFFCURVE",
"396 300 CURVE SMOOTH",
"411 300 OFFCURVE",
"434 297 OFFCURVE",
"443 283 CURVE SMOOTH",
"445 280 OFFCURVE",
"446 278 OFFCURVE",
"450 278 CURVE SMOOTH",
"454 278 OFFCURVE",
"459 282 OFFCURVE",
"459 286 CURVE SMOOTH",
"459 287 OFFCURVE",
"458 289 OFFCURVE",
"458 289 CURVE",
"448 311 OFFCURVE",
"418 316 OFFCURVE",
"396 316 CURVE SMOOTH",
"377 316 OFFCURVE",
"358 313 OFFCURVE",
"340 308 CURVE SMOOTH",
"294 294 OFFCURVE",
"248 276 OFFCURVE",
"205 253 CURVE SMOOTH",
"112 200 OFFCURVE",
"9 100 OFFCURVE",
"9 -16 CURVE SMOOTH",
"9 -98 OFFCURVE",
"63 -143 OFFCURVE",
"142 -143 CURVE SMOOTH",
"187 -143 OFFCURVE",
"234 -129 OFFCURVE",
"275 -111 CURVE SMOOTH",
"417 -51 OFFCURVE",
"540 36 OFFCURVE",
"649 145 CURVE",
"674 143 OFFCURVE",
"700 143 OFFCURVE",
"725 143 CURVE SMOOTH",
"738 143 OFFCURVE",
"751 143 OFFCURVE",
"763 143 CURVE",
"754 118 OFFCURVE",
"747 90 OFFCURVE",
"747 63 CURVE SMOOTH",
"747 33 OFFCURVE",
"756 7 OFFCURVE",
"780 -13 CURVE",
"782 -13 OFFCURVE",
"783 -14 OFFCURVE",
"785 -14 CURVE SMOOTH",
"790 -14 OFFCURVE",
"794 -10 OFFCURVE",
"794 -5 CURVE SMOOTH",
"794 2 OFFCURVE",
"776 7 OFFCURVE",
"774 37 CURVE",
"796 0 OFFCURVE",
"839 -25 OFFCURVE",
"880 -38 CURVE",
"880 -102 OFFCURVE",
"912 -151 OFFCURVE",
"971 -175 CURVE",
"972 -175 OFFCURVE",
"973 -176 OFFCURVE",
"974 -176 CURVE SMOOTH",
"980 -176 OFFCURVE",
"983 -171 OFFCURVE",
"983 -166 CURVE SMOOTH",
"983 -162 OFFCURVE",
"982 -160 OFFCURVE",
"978 -158 CURVE",
"969 -154 OFFCURVE",
"961 -151 OFFCURVE",
"953 -145 CURVE SMOOTH",
"917 -122 OFFCURVE",
"899 -86 OFFCURVE",
"898 -44 CURVE",
"940 -56 OFFCURVE",
"983 -60 OFFCURVE",
"1027 -60 CURVE SMOOTH",
"1094 -60 OFFCURVE",
"1161 -51 OFFCURVE",
"1225 -34 CURVE SMOOTH",
"1262 -25 OFFCURVE",
"1297 -13 OFFCURVE",
"1332 3 CURVE SMOOTH",
"1403 36 OFFCURVE",
"1493 100 OFFCURVE",
"1503 185 CURVE SMOOTH",
"1503 189 OFFCURVE",
"1503 192 OFFCURVE",
"1503 195 CURVE SMOOTH",
"1503 271 OFFCURVE",
"1424 293 OFFCURVE",
"1362 293 CURVE SMOOTH",
"1327 293 OFFCURVE",
"1293 288 OFFCURVE",
"1260 280 CURVE SMOOTH",
"1125 247 OFFCURVE",
"960 179 OFFCURVE",
"898 44 CURVE SMOOTH",
"888 23 OFFCURVE",
"882 -1 OFFCURVE",
"880 -25 CURVE",
"834 -8 OFFCURVE",
"796 25 OFFCURVE",
"796 77 CURVE SMOOTH",
"796 102 OFFCURVE",
"805 125 OFFCURVE",
"818 147 CURVE",
"839 150 OFFCURVE",
"868 156 OFFCURVE",
"868 166 CURVE SMOOTH",
"868 169 OFFCURVE",
"866 171 OFFCURVE",
"863 171 CURVE SMOOTH",
"862 171 OFFCURVE",
"861 170 OFFCURVE",
"860 170 CURVE",
"849 166 OFFCURVE",
"839 163 OFFCURVE",
"828 162 CURVE",
"856 201 OFFCURVE",
"899 233 OFFCURVE",
"935 253 CURVE SMOOTH",
"1005 294 OFFCURVE",
"1095 321 OFFCURVE",
"1175 332 CURVE",
"1207 323 OFFCURVE",
"1243 318 OFFCURVE",
"1276 318 CURVE SMOOTH",
"1288 318 OFFCURVE",
"1331 320 OFFCURVE",
"1331 338 CURVE SMOOTH",
"1331 356 OFFCURVE",
"1253 354 OFFCURVE",
"1240 354 CURVE SMOOTH",
"1217 354 OFFCURVE",
"1194 353 OFFCURVE",
"1172 351 CURVE",
"1145 365 OFFCURVE",
"1122 389 OFFCURVE",
"1122 422 CURVE SMOOTH",
"1122 486 OFFCURVE",
"1196 523 OFFCURVE",
"1251 528 CURVE SMOOTH",
"1259 529 OFFCURVE",
"1267 529 OFFCURVE",
"1275 529 CURVE SMOOTH",
"1297 529 OFFCURVE",
"1324 526 OFFCURVE",
"1341 510 CURVE",
"1342 509 OFFCURVE",
"1342 508 OFFCURVE",
"1342 507 CURVE SMOOTH",
"1342 493 OFFCURVE",
"1314 503 OFFCURVE",
"1314 494 CURVE SMOOTH",
"1314 489 OFFCURVE",
"1325 488 OFFCURVE",
"1328 488 CURVE SMOOTH"
);
},
{
closed = 1;
nodes = (
"899 -7 OFFCURVE",
"905 16 OFFCURVE",
"914 36 CURVE SMOOTH",
"971 163 OFFCURVE",
"1138 233 OFFCURVE",
"1264 262 CURVE SMOOTH",
"1297 270 OFFCURVE",
"1331 276 OFFCURVE",
"1365 276 CURVE SMOOTH",
"1411 276 OFFCURVE",
"1476 262 OFFCURVE",
"1476 203 CURVE SMOOTH",
"1476 198 OFFCURVE",
"1476 192 OFFCURVE",
"1474 187 CURVE SMOOTH",
"1459 113 OFFCURVE",
"1367 53 OFFCURVE",
"1303 24 CURVE SMOOTH",
"1272 10 OFFCURVE",
"1238 -2 OFFCURVE",
"1205 -11 CURVE SMOOTH",
"1136 -29 OFFCURVE",
"1065 -42 OFFCURVE",
"994 -42 CURVE SMOOTH",
"962 -42 OFFCURVE",
"929 -39 OFFCURVE",
"898 -30 CURVE"
);
}
);
};
layerId = "95C423A7-595F-441F-915A-E5EF8B5EF971";
paths = (
{
closed = 1;
nodes = (
"980 -176 OFFCURVE",
"983 -171 OFFCURVE",
"983 -166 CURVE SMOOTH",
"983 -162 OFFCURVE",
"982 -160 OFFCURVE",
"978 -158 CURVE",
"969 -154 OFFCURVE",
"961 -151 OFFCURVE",
"953 -145 CURVE SMOOTH",
"917 -122 OFFCURVE",
"899 -86 OFFCURVE",
"898 -44 CURVE",
"940 -56 OFFCURVE",
"983 -60 OFFCURVE",
"1027 -60 CURVE SMOOTH",
"1094 -60 OFFCURVE",
"1161 -51 OFFCURVE",
"1225 -34 CURVE SMOOTH",
"1262 -25 OFFCURVE",
"1297 -13 OFFCURVE",
"1332 3 CURVE SMOOTH",
"1403 36 OFFCURVE",
"1493 100 OFFCURVE",
"1503 185 CURVE",
"1503 195 LINE SMOOTH",
"1503 271 OFFCURVE",
"1424 293 OFFCURVE",
"1362 293 CURVE SMOOTH",
"1327 293 OFFCURVE",
"1293 288 OFFCURVE",
"1260 280 CURVE SMOOTH",
"1125 247 OFFCURVE",
"960 179 OFFCURVE",
"898 44 CURVE SMOOTH",
"888 23 OFFCURVE",
"882 -1 OFFCURVE",
"880 -25 CURVE",
"834 -8 OFFCURVE",
"796 25 OFFCURVE",
"796 77 CURVE SMOOTH",
"796 102 OFFCURVE",
"805 125 OFFCURVE",
"818 147 CURVE",
"839 150 OFFCURVE",
"868 156 OFFCURVE",
"868 166 CURVE SMOOTH",
"868 169 OFFCURVE",
"866 171 OFFCURVE",
"863 171 CURVE SMOOTH",
"862 171 OFFCURVE",
"861 170 OFFCURVE",
"860 170 CURVE",
"849 166 OFFCURVE",
"839 163 OFFCURVE",
"828 162 CURVE",
"856 201 OFFCURVE",
"899 233 OFFCURVE",
"935 253 CURVE SMOOTH",
"1005 294 OFFCURVE",
"1095 321 OFFCURVE",
"1175 332 CURVE",
"1207 323 OFFCURVE",
"1243 318 OFFCURVE",
"1276 318 CURVE SMOOTH",
"1288 318 OFFCURVE",
"1331 320 OFFCURVE",
"1331 338 CURVE SMOOTH",
"1331 352 OFFCURVE",
"1279 354 OFFCURVE",
"1253 354 CURVE SMOOTH",
"1226 354 OFFCURVE",
"1199 353 OFFCURVE",
"1172 351 CURVE",
"1145 365 OFFCURVE",
"1122 389 OFFCURVE",
"1122 422 CURVE SMOOTH",
"1122 486 OFFCURVE",
"1196 523 OFFCURVE",
"1251 528 CURVE SMOOTH",
"1259 529 OFFCURVE",
"1267 529 OFFCURVE",
"1275 529 CURVE SMOOTH",
"1297 529 OFFCURVE",
"1324 526 OFFCURVE",
"1341 510 CURVE",
"1342 509 OFFCURVE",
"1342 508 OFFCURVE",
"1342 507 CURVE SMOOTH",
"1342 493 OFFCURVE",
"1314 503 OFFCURVE",
"1314 494 CURVE SMOOTH",
"1314 489 OFFCURVE",
"1325 488 OFFCURVE",
"1328 488 CURVE SMOOTH",
"1340 488 OFFCURVE",
"1364 494 OFFCURVE",
"1364 509 CURVE SMOOTH",
"1364 514 OFFCURVE",
"1361 518 OFFCURVE",
"1357 521 CURVE SMOOTH",
"1339 538 OFFCURVE",
"1289 545 OFFCURVE",
"1265 545 CURVE SMOOTH",
"1260 545 OFFCURVE",
"1255 545 OFFCURVE",
"1250 544 CURVE SMOOTH",
"1227 543 OFFCURVE",
"1205 538 OFFCURVE",
"1185 531 CURVE SMOOTH",
"1141 514 OFFCURVE",
"1087 474 OFFCURVE",
"1087 423 CURVE SMOOTH",
"1087 389 OFFCURVE",
"1112 363 OFFCURVE",
"1140 347 CURVE",
"1063 338 OFFCURVE",
"983 316 OFFCURVE",
"914 280 CURVE SMOOTH",
"892 267 OFFCURVE",
"867 252 OFFCURVE",
"843 233 CURVE",
"848 242 LINE",
"885 296 OFFCURVE",
"923 373 OFFCURVE",
"952 399 CURVE",
"970 422 OFFCURVE",
"1083 546 OFFCURVE",
"1083 556 CURVE SMOOTH",
"1083 565 OFFCURVE",
"1068 569 OFFCURVE",
"1061 569 CURVE SMOOTH",
"1056 569 LINE",
"997 547 OFFCURVE",
"742 280 OFFCURVE",
"695 233 CURVE",
"655 229 OFFCURVE",
"496 219 OFFCURVE",
"470 208 CURVE SMOOTH",
"465 206 OFFCURVE",
"457 203 OFFCURVE",
"457 196 CURVE SMOOTH",
"457 194 OFFCURVE",
"458 191 OFFCURVE",
"459 190 CURVE SMOOTH",
"471 176 OFFCURVE",
"518 162 OFFCURVE",
"536 158 CURVE SMOOTH",
"560 153 OFFCURVE",
"584 150 OFFCURVE",
"607 148 CURVE",
"504 53 OFFCURVE",
"285 -125 OFFCURVE",
"134 -125 CURVE SMOOTH",
"71 -125 OFFCURVE",
"30 -91 OFFCURVE",
"30 -27 CURVE SMOOTH",
"30 83 OFFCURVE",
"134 188 OFFCURVE",
"222 240 CURVE SMOOTH",
"260 263 OFFCURVE",
"302 280 OFFCURVE",
"345 293 CURVE SMOOTH",
"362 297 OFFCURVE",
"379 300 OFFCURVE",
"396 300 CURVE SMOOTH",
"411 300 OFFCURVE",
"434 297 OFFCURVE",
"443 283 CURVE SMOOTH",
"445 280 OFFCURVE",
"446 278 OFFCURVE",
"450 278 CURVE SMOOTH",
"454 278 OFFCURVE",
"459 282 OFFCURVE",
"459 286 CURVE SMOOTH",
"459 287 OFFCURVE",
"458 289 OFFCURVE",
"458 289 CURVE",
"448 311 OFFCURVE",
"418 316 OFFCURVE",
"396 316 CURVE SMOOTH",
"377 316 OFFCURVE",
"358 313 OFFCURVE",
"340 308 CURVE SMOOTH",
"294 294 OFFCURVE",
"248 276 OFFCURVE",
"205 253 CURVE SMOOTH",
"112 200 OFFCURVE",
"9 100 OFFCURVE",
"9 -16 CURVE SMOOTH",
"9 -98 OFFCURVE",
"63 -143 OFFCURVE",
"142 -143 CURVE SMOOTH",
"187 -143 OFFCURVE",
"234 -129 OFFCURVE",
"275 -111 CURVE SMOOTH",
"417 -51 OFFCURVE",
"540 36 OFFCURVE",
"649 145 CURVE",
"674 143 OFFCURVE",
"700 143 OFFCURVE",
"725 143 CURVE SMOOTH",
"738 143 OFFCURVE",
"751 143 OFFCURVE",
"763 143 CURVE",
"754 118 OFFCURVE",
"747 90 OFFCURVE",
"747 63 CURVE SMOOTH",
"747 33 OFFCURVE",
"756 7 OFFCURVE",
"780 -13 CURVE",
"782 -13 OFFCURVE",
"783 -14 OFFCURVE",
"785 -14 CURVE SMOOTH",
"790 -14 OFFCURVE",
"794 -10 OFFCURVE",
"794 -5 CURVE SMOOTH",
"794 2 OFFCURVE",
"776 7 OFFCURVE",
"774 37 CURVE",
"796 0 OFFCURVE",
"839 -25 OFFCURVE",
"880 -38 CURVE",
"880 -102 OFFCURVE",
"912 -151 OFFCURVE",
"971 -175 CURVE",
"972 -175 OFFCURVE",
"973 -176 OFFCURVE",
"974 -176 CURVE SMOOTH"
);
},
{
closed = 1;
nodes = (
"605 172 OFFCURVE",
"572 176 OFFCURVE",
"549 185 CURVE",
"549 185 LINE",
"549 185 OFFCURVE",
"549 185 OFFCURVE",
"549 185 CURVE",
"558 189 OFFCURVE",
"568 191 OFFCURVE",
"577 193 CURVE SMOOTH",
"609 200 OFFCURVE",
"641 205 OFFCURVE",
"673 210 CURVE",
"659 196 OFFCURVE",
"644 182 OFFCURVE",
"630 168 CURVE"
);
},
{
closed = 1;
nodes = (
"735 158 OFFCURVE",
"701 160 OFFCURVE",
"667 163 CURVE",
"684 181 OFFCURVE",
"700 199 OFFCURVE",
"716 217 CURVE",
"746 222 OFFCURVE",
"775 227 OFFCURVE",
"805 233 CURVE",
"791 209 OFFCURVE",
"779 183 OFFCURVE",
"769 158 CURVE"
);
},
{
closed = 1;
nodes = (
"763 272 OFFCURVE",
"873 382 OFFCURVE",
"936 452 CURVE",
"965 477 OFFCURVE",
"994 506 OFFCURVE",
"1026 527 CURVE",
"1020 520 OFFCURVE",
"1014 513 OFFCURVE",
"1008 505 CURVE SMOOTH",
"937 423 OFFCURVE",
"868 342 OFFCURVE",
"813 247 CURVE",
"786 242 OFFCURVE",
"760 239 OFFCURVE",
"733 236 CURVE"
);
},
{
closed = 1;
nodes = (
"962 -42 OFFCURVE",
"929 -39 OFFCURVE",
"898 -30 CURVE",
"899 -7 OFFCURVE",
"905 16 OFFCURVE",
"914 36 CURVE SMOOTH",
"971 163 OFFCURVE",
"1138 233 OFFCURVE",
"1264 262 CURVE SMOOTH",
"1297 270 OFFCURVE",
"1331 276 OFFCURVE",
"1365 276 CURVE SMOOTH",
"1411 276 OFFCURVE",
"1476 262 OFFCURVE",
"1476 203 CURVE SMOOTH",
"1476 198 OFFCURVE",
"1476 192 OFFCURVE",
"1474 187 CURVE",
"1459 113 OFFCURVE",
"1367 53 OFFCURVE",
"1303 24 CURVE SMOOTH",
"1272 10 OFFCURVE",
"1238 -2 OFFCURVE",
"1205 -11 CURVE SMOOTH",
"1136 -29 OFFCURVE",
"1065 -42 OFFCURVE",
"994 -42 CURVE SMOOTH"
);
}
);
width = 1504;
}
);
note = AE;
unicode = 00C6;
},
{
glyphname = B;
lastChange = "2021-10-09 01:58:11 +0000";
layers = (
{
background = {
paths = (
{
closed = 1;
nodes = (
"671 473 OFFCURVE",
"671 489 OFFCURVE",
"671 495 CURVE SMOOTH",
"671 534 OFFCURVE",
"639 551 OFFCURVE",
"603 551 CURVE SMOOTH",
"568 551 OFFCURVE",
"517 534 OFFCURVE",
"484 521 CURVE",
"438 538 OFFCURVE",
"387 544 OFFCURVE",
"338 544 CURVE SMOOTH",
"307 544 OFFCURVE",
"276 542 OFFCURVE",
"246 538 CURVE SMOOTH",
"185 529 OFFCURVE",
"45 489 OFFCURVE",
"12 435 CURVE SMOOTH",
"9 430 OFFCURVE",
"6 424 OFFCURVE",
"6 418 CURVE SMOOTH",
"6 402 OFFCURVE",
"23 398 OFFCURVE",
"36 398 CURVE SMOOTH",
"42 398 OFFCURVE",
"53 398 OFFCURVE",
"53 405 CURVE SMOOTH",
"53 413 OFFCURVE",
"28 405 OFFCURVE",
"28 416 CURVE SMOOTH",
"28 420 OFFCURVE",
"30 423 OFFCURVE",
"32 425 CURVE SMOOTH",
"65 478 OFFCURVE",
"198 514 OFFCURVE",
"257 522 CURVE SMOOTH",
"283 525 OFFCURVE",
"311 527 OFFCURVE",
"337 527 CURVE SMOOTH",
"376 527 OFFCURVE",
"418 523 OFFCURVE",
"455 508 CURVE",
"358 463 OFFCURVE",
"273 391 OFFCURVE",
"209 303 CURVE",
"200 305 OFFCURVE",
"191 307 OFFCURVE",
"181 307 CURVE SMOOTH",
"177 307 OFFCURVE",
"160 306 OFFCURVE",
"160 299 CURVE SMOOTH",
"160 289 OFFCURVE",
"179 279 OFFCURVE",
"187 276 CURVE",
"139 206 OFFCURVE",
"103 129 OFFCURVE",
"80 49 CURVE",
"44 47 OFFCURVE",
"-75 34 OFFCURVE",
"-75 -16 CURVE SMOOTH",
"-75 -36 OFFCURVE",
"-52 -40 OFFCURVE",
"-37 -40 CURVE SMOOTH",
"6 -40 OFFCURVE",
"48 -40 OFFCURVE",
"91 -40 CURVE SMOOTH",
"95 -40 OFFCURVE",
"100 -39 OFFCURVE",
"100 -33 CURVE SMOOTH",
"100 -22 OFFCURVE",
"87 -16 OFFCURVE",
"87 -4 CURVE SMOOTH",
"87 5 OFFCURVE",
"89 13 OFFCURVE",
"90 20 CURVE",
"105 22 OFFCURVE",
"120 22 OFFCURVE",
"134 22 CURVE SMOOTH",
"238 22 OFFCURVE",
"343 7 OFFCURVE",
"444 -15 CURVE SMOOTH",
"461 -18 OFFCURVE",
"477 -20 OFFCURVE",
"494 -20 CURVE SMOOTH",
"547 -20 OFFCURVE",
"609 7 OFFCURVE",
"609 68 CURVE SMOOTH",
"609 172 OFFCURVE",
"418 243 OFFCURVE",
"338 269 CURVE",
"409 280 OFFCURVE",
"518 309 OFFCURVE",
"559 375 CURVE SMOOTH",
"568 389 OFFCURVE",
"573 405 OFFCURVE",
"573 422 CURVE SMOOTH",
"573 459 OFFCURVE",
"546 488 OFFCURVE",
"515 505 CURVE",
"543 518 OFFCURVE",
"582 532 OFFCURVE",
"613 532 CURVE SMOOTH",
"639 532 OFFCURVE",
"659 522 OFFCURVE",
"659 493 CURVE SMOOTH",
"659 488 OFFCURVE",
"657 483 OFFCURVE",
"657 478 CURVE SMOOTH",
"657 476 OFFCURVE",
"658 473 OFFCURVE",
"662 473 CURVE SMOOTH"
);
},
{
closed = 1;
nodes = (
"513 476 OFFCURVE",
"533 450 OFFCURVE",
"533 418 CURVE SMOOTH",
"533 329 OFFCURVE",
"374 287 OFFCURVE",
"305 279 CURVE",
"283 285 OFFCURVE",
"262 292 OFFCURVE",
"240 297 CURVE",
"307 375 OFFCURVE",
"394 446 OFFCURVE",
"487 493 CURVE"
);
},
{
closed = 1;
nodes = (
"228 283 LINE",
"237 282 OFFCURVE",
"245 280 OFFCURVE",
"254 277 CURVE",
"244 278 OFFCURVE",
"235 278 OFFCURVE",
"225 280 CURVE"
);
},
{
closed = 1;
nodes = (
"190 291 LINE",
"189 291 OFFCURVE",
"189 292 OFFCURVE",
"189 293 CURVE",
"189 293 OFFCURVE",
"189 293 OFFCURVE",
"189 293 CURVE",
"191 292 OFFCURVE",
"192 291 OFFCURVE",
"193 291 CURVE"
);
},
{
closed = 1;
nodes = (
"197 290 LINE",
"196 289 LINE",
"193 291 LINE"
);
},
{
closed = 1;
nodes = (
"382 238 OFFCURVE",
"564 171 OFFCURVE",
"564 67 CURVE SMOOTH",
"564 21 OFFCURVE",
"524 -3 OFFCURVE",
"482 -3 CURVE SMOOTH",
"471 -3 OFFCURVE",
"462 -2 OFFCURVE",
"452 -1 CURVE SMOOTH",
"338 22 OFFCURVE",
"223 50 OFFCURVE",
"105 49 CURVE SMOOTH",
"98 49 LINE",
"122 129 OFFCURVE",
"163 202 OFFCURVE",
"214 267 CURVE",
"231 263 OFFCURVE",
"247 262 OFFCURVE",
"263 262 CURVE SMOOTH",
"275 262 OFFCURVE",
"287 263 OFFCURVE",
"300 264 CURVE"
);
},
{
closed = 1;
nodes = (
"-38 7 OFFCURVE",
"56 18 OFFCURVE",
"72 19 CURVE",
"69 10 OFFCURVE",
"67 1 OFFCURVE",
"65 -8 CURVE SMOOTH",
"61 -25 OFFCURVE",
"35 -27 OFFCURVE",
"22 -27 CURVE SMOOTH",
"13 -27 OFFCURVE",
"-38 -24 OFFCURVE",
"-38 -12 CURVE SMOOTH"
);
}
);
};
layerId = "95C423A7-595F-441F-915A-E5EF8B5EF971";
paths = (
{
closed = 1;
nodes = (
"95 -40 OFFCURVE",
"100 -39 OFFCURVE",
"100 -33 CURVE SMOOTH",
"100 -22 OFFCURVE",
"87 -16 OFFCURVE",
"87 -4 CURVE SMOOTH",
"87 5 OFFCURVE",
"89 13 OFFCURVE",
"90 20 CURVE",
"105 22 OFFCURVE",
"120 22 OFFCURVE",
"134 22 CURVE SMOOTH",
"322 22 OFFCURVE",
"425 -20 OFFCURVE",
"500 -20 CURVE SMOOTH",
"547 -20 OFFCURVE",
"609 7 OFFCURVE",
"609 68 CURVE SMOOTH",
"609 172 OFFCURVE",
"418 243 OFFCURVE",
"338 269 CURVE",
"409 280 OFFCURVE",
"518 309 OFFCURVE",
"559 375 CURVE SMOOTH",
"568 389 OFFCURVE",
"573 405 OFFCURVE",
"573 422 CURVE SMOOTH",
"573 459 OFFCURVE",
"546 488 OFFCURVE",
"515 505 CURVE",
"543 518 OFFCURVE",
"582 532 OFFCURVE",
"613 532 CURVE SMOOTH",
"639 532 OFFCURVE",
"659 522 OFFCURVE",
"659 493 CURVE SMOOTH",
"659 488 OFFCURVE",
"657 483 OFFCURVE",
"657 478 CURVE SMOOTH",
"657 476 OFFCURVE",
"658 473 OFFCURVE",
"662 473 CURVE SMOOTH",
"671 473 OFFCURVE",
"671 489 OFFCURVE",
"671 495 CURVE SMOOTH",
"671 534 OFFCURVE",
"639 551 OFFCURVE",
"603 551 CURVE SMOOTH",
"568 551 OFFCURVE",
"517 534 OFFCURVE",
"484 521 CURVE",
"438 538 OFFCURVE",
"387 544 OFFCURVE",
"338 544 CURVE SMOOTH",
"307 544 OFFCURVE",
"276 542 OFFCURVE",
"246 538 CURVE SMOOTH",
"185 529 OFFCURVE",
"45 489 OFFCURVE",
"12 435 CURVE SMOOTH",
"9 430 OFFCURVE",
"6 424 OFFCURVE",
"6 418 CURVE SMOOTH",
"6 402 OFFCURVE",
"23 398 OFFCURVE",
"36 398 CURVE SMOOTH",
"42 398 OFFCURVE",
"53 398 OFFCURVE",
"53 405 CURVE SMOOTH",
"53 413 OFFCURVE",
"28 405 OFFCURVE",
"28 416 CURVE SMOOTH",
"28 420 OFFCURVE",
"30 423 OFFCURVE",
"32 425 CURVE",
"65 478 OFFCURVE",
"198 514 OFFCURVE",
"257 522 CURVE SMOOTH",
"283 525 OFFCURVE",
"311 527 OFFCURVE",
"337 527 CURVE SMOOTH",
"376 527 OFFCURVE",
"418 523 OFFCURVE",
"455 508 CURVE",
"358 463 OFFCURVE",
"273 391 OFFCURVE",
"209 303 CURVE",
"200 305 OFFCURVE",
"191 307 OFFCURVE",
"181 307 CURVE SMOOTH",
"177 307 OFFCURVE",
"160 306 OFFCURVE",
"160 299 CURVE SMOOTH",
"160 289 OFFCURVE",
"179 279 OFFCURVE",
"187 276 CURVE",
"139 206 OFFCURVE",
"103 129 OFFCURVE",
"80 49 CURVE",
"44 47 OFFCURVE",
"-75 34 OFFCURVE",
"-75 -16 CURVE SMOOTH",
"-75 -36 OFFCURVE",
"-52 -40 OFFCURVE",
"-37 -40 CURVE SMOOTH",
"6 -40 OFFCURVE",
"48 -40 OFFCURVE",
"91 -40 CURVE SMOOTH"
);
},
{
closed = 1;
nodes = (
"13 -27 OFFCURVE",
"-38 -24 OFFCURVE",
"-38 -12 CURVE SMOOTH",
"-38 7 OFFCURVE",
"56 18 OFFCURVE",
"72 19 CURVE",
"69 10 OFFCURVE",
"67 1 OFFCURVE",
"65 -8 CURVE SMOOTH",
"61 -25 OFFCURVE",
"35 -27 OFFCURVE",
"22 -27 CURVE SMOOTH"
);
},
{
closed = 1;
nodes = (
"425 -3 OFFCURVE",
"265 49 OFFCURVE",
"105 49 CURVE SMOOTH",
"98 49 LINE",
"122 129 OFFCURVE",
"163 202 OFFCURVE",
"214 267 CURVE",
"231 263 OFFCURVE",
"247 262 OFFCURVE",
"263 262 CURVE SMOOTH",
"275 262 OFFCURVE",
"287 263 OFFCURVE",
"300 264 CURVE",
"382 238 OFFCURVE",
"564 171 OFFCURVE",
"564 67 CURVE SMOOTH",
"564 21 OFFCURVE",
"524 -3 OFFCURVE",
"482 -3 CURVE SMOOTH"
);
},
{
closed = 1;
nodes = (
"196 289 OFFCURVE",
"194 289 OFFCURVE",
"193 289 CURVE SMOOTH",
"191 290 OFFCURVE",
"189 291 OFFCURVE",
"189 293 CURVE",
"189 293 LINE",
"192 293 OFFCURVE",
"194 291 OFFCURVE",
"197 290 CURVE",
"196 289 LINE"
);
},
{
closed = 1;
nodes = (
"244 278 OFFCURVE",
"235 278 OFFCURVE",
"225 280 CURVE",
"228 283 LINE",
"237 282 OFFCURVE",
"245 280 OFFCURVE",
"254 277 CURVE"
);
},
{
closed = 1;
nodes = (
"283 285 OFFCURVE",
"262 292 OFFCURVE",
"240 297 CURVE",
"307 375 OFFCURVE",
"394 446 OFFCURVE",
"487 493 CURVE",
"513 476 OFFCURVE",
"533 450 OFFCURVE",
"533 418 CURVE SMOOTH",
"533 329 OFFCURVE",
"374 287 OFFCURVE",
"305 279 CURVE"
);
}
);
width = 621;
}
);
note = B;
unicode = 0042;
},
{
glyphname = C;
lastChange = "2021-10-09 01:58:11 +0000";
layers = (
{
anchors = (
{
name = bottom;
position = "{251, -38}";
},
{
name = top;
position = "{530, 533}";
}
);
background = {
paths = (
{
closed = 1;
nodes = (
"351 -40 OFFCURVE",
"490 -3 OFFCURVE",
"582 54 CURVE SMOOTH",
"614 73 OFFCURVE",
"644 94 OFFCURVE",
"673 118 CURVE SMOOTH",
"718 154 OFFCURVE",
"807 237 OFFCURVE",
"807 300 CURVE SMOOTH",
"807 306 OFFCURVE",
"804 327 OFFCURVE",
"795 327 CURVE SMOOTH",
"791 327 OFFCURVE",
"789 324 OFFCURVE",
"789 320 CURVE SMOOTH",
"789 315 OFFCURVE",
"793 310 OFFCURVE",
"793 302 CURVE SMOOTH",
"793 246 OFFCURVE",
"690 158 OFFCURVE",
"650 127 CURVE SMOOTH",
"622 105 OFFCURVE",
"594 86 OFFCURVE",
"564 68 CURVE SMOOTH",
"480 16 OFFCURVE",
"360 -19 OFFCURVE",
"260 -19 CURVE SMOOTH",
"165 -19 OFFCURVE",
"63 15 OFFCURVE",
"63 128 CURVE SMOOTH",
"63 185 OFFCURVE",
"91 244 OFFCURVE",
"123 291 CURVE",
"144 299 OFFCURVE",
"166 307 OFFCURVE",
"188 313 CURVE SMOOTH",
"191 314 OFFCURVE",
"195 314 OFFCURVE",
"198 316 CURVE SMOOTH",
"203 318 OFFCURVE",
"209 323 OFFCURVE",
"209 329 CURVE SMOOTH",
"209 338 OFFCURVE",
"197 338 OFFCURVE",
"191 338 CURVE SMOOTH",
"180 338 OFFCURVE",
"169 337 OFFCURVE",
"158 336 CURVE",
"218 403 OFFCURVE",
"293 457 OFFCURVE",
"377 488 CURVE SMOOTH",
"382 490 OFFCURVE",
"413 501 OFFCURVE",
"415 501 CURVE SMOOTH",
"426 501 OFFCURVE",
"438 499 OFFCURVE",
"449 498 CURVE SMOOTH",
"508 491 OFFCURVE",
"583 473 OFFCURVE",
"636 445 CURVE SMOOTH",
"649 437 OFFCURVE",
"660 429 OFFCURVE",
"672 419 CURVE SMOOTH",
"676 414 OFFCURVE",
"681 411 OFFCURVE",
"687 411 CURVE SMOOTH",
"703 411 OFFCURVE",
"708 433 OFFCURVE",
"708 445 CURVE SMOOTH",
"708 458 OFFCURVE",
"704 469 OFFCURVE",
"697 480 CURVE SMOOTH",
"693 486 OFFCURVE",
"683 493 OFFCURVE",
"676 498 CURVE SMOOTH",
"635 523 OFFCURVE",
"578 533 OFFCURVE",
"530 533 CURVE SMOOTH",
"505 533 OFFCURVE",
"480 531 OFFCURVE",
"455 526 CURVE SMOOTH",
"445 525 OFFCURVE",
"425 518 OFFCURVE",
"418 518 CURVE SMOOTH",
"407 517 OFFCURVE",
"396 518 OFFCURVE",
"386 517 CURVE SMOOTH",
"371 516 OFFCURVE",
"354 514 OFFCURVE",
"339 513 CURVE SMOOTH",
"251 503 OFFCURVE",
"98 465 OFFCURVE",
"29 407 CURVE SMOOTH",
"17 396 OFFCURVE",
"1 380 OFFCURVE",
"1 363 CURVE SMOOTH",
"1 327 OFFCURVE",
"72 319 OFFCURVE",
"98 317 CURVE",
"90 307 OFFCURVE",
"82 296 OFFCURVE",
"74 285 CURVE",
"65 281 OFFCURVE",
"35 267 OFFCURVE",
"35 255 CURVE SMOOTH",
"35 253 OFFCURVE",
"37 249 OFFCURVE",
"41 249 CURVE SMOOTH",
"44 249 OFFCURVE",
"45 251 OFFCURVE",
"47 253 CURVE SMOOTH",
"49 256 OFFCURVE",
"55 260 OFFCURVE",
"58 262 CURVE",
"36 223 OFFCURVE",
"20 180 OFFCURVE",
"20 135 CURVE SMOOTH",
"20 103 OFFCURVE",
"29 72 OFFCURVE",
"45 44 CURVE SMOOTH",
"83 -24 OFFCURVE",
"172 -40 OFFCURVE",
"243 -40 CURVE SMOOTH"
);
},
{
closed = 1;
nodes = (
"498 516 OFFCURVE",
"514 518 OFFCURVE",
"530 518 CURVE SMOOTH",
"574 518 OFFCURVE",
"626 509 OFFCURVE",
"665 486 CURVE SMOOTH",
"670 483 OFFCURVE",
"680 476 OFFCURVE",
"684 471 CURVE SMOOTH",
"687 466 OFFCURVE",
"689 461 OFFCURVE",
"689 455 CURVE SMOOTH",
"689 453 OFFCURVE",
"689 449 OFFCURVE",
"686 449 CURVE SMOOTH",
"683 449 OFFCURVE",
"680 453 OFFCURVE",
"678 454 CURVE SMOOTH",
"644 484 OFFCURVE",
"528 508 OFFCURVE",
"483 514 CURVE"
);
},
{
closed = 1;
nodes = (
"19 377 OFFCURVE",
"32 387 OFFCURVE",
"40 394 CURVE SMOOTH",
"53 406 OFFCURVE",
"70 416 OFFCURVE",
"85 423 CURVE SMOOTH",
"165 465 OFFCURVE",
"271 491 OFFCURVE",
"360 499 CURVE",
"267 462 OFFCURVE",
"180 407 OFFCURVE",
"112 333 CURVE",
"94 333 OFFCURVE",
"19 338 OFFCURVE",
"19 365 CURVE SMOOTH"
);
},
{
closed = 1;
nodes = (
"147 318 LINE",
"143 316 LINE",
"143 318 LINE"
);
}
);
};
layerId = "95C423A7-595F-441F-915A-E5EF8B5EF971";
paths = (
{
closed = 1;
nodes = (
"351 -40 OFFCURVE",
"490 -3 OFFCURVE",
"582 54 CURVE SMOOTH",
"614 73 OFFCURVE",
"644 94 OFFCURVE",
"673 118 CURVE SMOOTH",
"718 154 OFFCURVE",
"807 237 OFFCURVE",
"807 300 CURVE SMOOTH",
"807 306 OFFCURVE",
"804 327 OFFCURVE",
"795 327 CURVE SMOOTH",
"791 327 OFFCURVE",
"789 324 OFFCURVE",
"789 320 CURVE SMOOTH",
"789 315 OFFCURVE",
"793 310 OFFCURVE",
"793 302 CURVE SMOOTH",
"793 246 OFFCURVE",
"690 158 OFFCURVE",
"650 127 CURVE SMOOTH",
"622 105 OFFCURVE",
"594 86 OFFCURVE",
"564 68 CURVE SMOOTH",
"480 16 OFFCURVE",
"360 -19 OFFCURVE",
"260 -19 CURVE SMOOTH",
"165 -19 OFFCURVE",
"63 15 OFFCURVE",
"63 128 CURVE SMOOTH",
"63 185 OFFCURVE",
"91 244 OFFCURVE",
"123 291 CURVE",
"144 299 OFFCURVE",
"166 307 OFFCURVE",
"188 313 CURVE SMOOTH",
"191 314 OFFCURVE",
"195 314 OFFCURVE",
"198 316 CURVE SMOOTH",
"203 318 OFFCURVE",
"209 323 OFFCURVE",
"209 329 CURVE SMOOTH",
"209 338 OFFCURVE",
"197 338 OFFCURVE",
"191 338 CURVE SMOOTH",
"180 338 OFFCURVE",
"169 337 OFFCURVE",
"158 336 CURVE",
"218 403 OFFCURVE",
"293 457 OFFCURVE",
"377 488 CURVE SMOOTH",
"382 490 OFFCURVE",
"413 501 OFFCURVE",
"415 501 CURVE SMOOTH",
"426 501 OFFCURVE",
"438 499 OFFCURVE",
"449 498 CURVE SMOOTH",
"508 491 OFFCURVE",
"583 473 OFFCURVE",
"636 445 CURVE SMOOTH",
"649 437 OFFCURVE",
"660 429 OFFCURVE",
"672 419 CURVE SMOOTH",
"676 414 OFFCURVE",
"681 411 OFFCURVE",
"687 411 CURVE SMOOTH",
"703 411 OFFCURVE",
"708 433 OFFCURVE",
"708 445 CURVE SMOOTH",
"708 458 OFFCURVE",
"704 469 OFFCURVE",
"697 480 CURVE SMOOTH",
"693 486 OFFCURVE",
"683 493 OFFCURVE",
"676 498 CURVE SMOOTH",
"635 523 OFFCURVE",
"578 533 OFFCURVE",
"530 533 CURVE SMOOTH",
"505 533 OFFCURVE",
"480 531 OFFCURVE",
"455 526 CURVE SMOOTH",
"445 525 OFFCURVE",
"425 518 OFFCURVE",
"418 518 CURVE SMOOTH",
"402 518 LINE SMOOTH",
"396 518 OFFCURVE",
"391 518 OFFCURVE",
"386 517 CURVE SMOOTH",
"339 513 LINE SMOOTH",
"251 503 OFFCURVE",
"98 465 OFFCURVE",
"29 407 CURVE SMOOTH",
"17 396 OFFCURVE",
"1 380 OFFCURVE",
"1 363 CURVE SMOOTH",
"1 327 OFFCURVE",
"72 319 OFFCURVE",
"98 317 CURVE",
"90 307 OFFCURVE",
"82 296 OFFCURVE",
"74 285 CURVE",
"65 281 OFFCURVE",
"35 267 OFFCURVE",
"35 255 CURVE SMOOTH",
"35 253 OFFCURVE",
"37 249 OFFCURVE",
"41 249 CURVE SMOOTH",
"44 249 OFFCURVE",
"45 251 OFFCURVE",
"47 253 CURVE SMOOTH",
"49 256 OFFCURVE",
"55 260 OFFCURVE",
"58 262 CURVE",
"36 223 OFFCURVE",
"20 180 OFFCURVE",
"20 135 CURVE SMOOTH",
"20 103 OFFCURVE",
"29 72 OFFCURVE",
"45 44 CURVE SMOOTH",
"83 -24 OFFCURVE",
"172 -40 OFFCURVE",
"243 -40 CURVE SMOOTH"
);
},
{
closed = 1;
nodes = (
"94 333 OFFCURVE",
"19 338 OFFCURVE",
"19 365 CURVE SMOOTH",
"19 377 OFFCURVE",
"32 387 OFFCURVE",
"40 394 CURVE SMOOTH",
"53 406 OFFCURVE",
"70 416 OFFCURVE",
"85 423 CURVE SMOOTH",
"165 465 OFFCURVE",
"271 491 OFFCURVE",
"360 499 CURVE",
"267 462 OFFCURVE",
"180 407 OFFCURVE",
"112 333 CURVE"
);
},
{
closed = 1;
nodes = (
"683 449 OFFCURVE",
"680 453 OFFCURVE",
"678 454 CURVE SMOOTH",
"644 484 OFFCURVE",
"528 508 OFFCURVE",
"483 514 CURVE",
"498 516 OFFCURVE",
"514 518 OFFCURVE",
"530 518 CURVE SMOOTH",
"574 518 OFFCURVE",
"626 509 OFFCURVE",
"665 486 CURVE",
"670 483 OFFCURVE",
"680 476 OFFCURVE",
"684 471 CURVE",
"687 466 OFFCURVE",
"689 461 OFFCURVE",
"689 455 CURVE SMOOTH",
"689 453 OFFCURVE",
"689 449 OFFCURVE",
"686 449 CURVE SMOOTH"
);
}
);
width = 813;
}
);
note = C;
unicode = 0043;
},
{
glyphname = Ccedilla;
lastChange = "2021-10-09 01:58:11 +0000";
layers = (
{
background = {
paths = (
{
closed = 1;
nodes = (
"351 -40 OFFCURVE",
"490 -3 OFFCURVE",
"582 54 CURVE SMOOTH",
"614 73 OFFCURVE",
"644 94 OFFCURVE",
"673 118 CURVE SMOOTH",
"718 154 OFFCURVE",
"807 237 OFFCURVE",
"807 300 CURVE SMOOTH",
"807 306 OFFCURVE",
"804 327 OFFCURVE",
"795 327 CURVE SMOOTH",
"791 327 OFFCURVE",
"789 324 OFFCURVE",
"789 320 CURVE SMOOTH",
"789 315 OFFCURVE",
"793 310 OFFCURVE",
"793 302 CURVE SMOOTH",
"793 246 OFFCURVE",
"690 158 OFFCURVE",
"650 127 CURVE SMOOTH",
"622 105 OFFCURVE",
"594 86 OFFCURVE",
"564 68 CURVE SMOOTH",
"480 16 OFFCURVE",
"360 -19 OFFCURVE",
"260 -19 CURVE SMOOTH",
"165 -19 OFFCURVE",
"63 15 OFFCURVE",
"63 128 CURVE SMOOTH",
"63 185 OFFCURVE",
"91 244 OFFCURVE",
"123 291 CURVE",
"144 299 OFFCURVE",
"166 307 OFFCURVE",
"188 313 CURVE SMOOTH",
"191 314 OFFCURVE",
"195 314 OFFCURVE",
"198 316 CURVE SMOOTH",
"203 318 OFFCURVE",
"209 323 OFFCURVE",
"209 329 CURVE SMOOTH",
"209 338 OFFCURVE",
"197 338 OFFCURVE",
"191 338 CURVE SMOOTH",
"180 338 OFFCURVE",
"169 337 OFFCURVE",
"158 336 CURVE",
"218 403 OFFCURVE",
"293 457 OFFCURVE",
"377 488 CURVE SMOOTH",
"382 490 OFFCURVE",
"413 501 OFFCURVE",
"415 501 CURVE SMOOTH",
"426 501 OFFCURVE",
"438 499 OFFCURVE",
"449 498 CURVE SMOOTH",
"508 491 OFFCURVE",
"583 473 OFFCURVE",
"636 445 CURVE SMOOTH",
"649 437 OFFCURVE",
"660 429 OFFCURVE",
"672 419 CURVE SMOOTH",
"676 414 OFFCURVE",
"681 411 OFFCURVE",
"687 411 CURVE SMOOTH",
"703 411 OFFCURVE",
"708 433 OFFCURVE",
"708 445 CURVE SMOOTH",
"708 458 OFFCURVE",
"704 469 OFFCURVE",
"697 480 CURVE SMOOTH",
"693 486 OFFCURVE",
"683 493 OFFCURVE",
"676 498 CURVE SMOOTH",
"635 523 OFFCURVE",
"578 533 OFFCURVE",
"530 533 CURVE SMOOTH",
"505 533 OFFCURVE",
"480 531 OFFCURVE",
"455 526 CURVE SMOOTH",
"445 525 OFFCURVE",
"425 518 OFFCURVE",
"418 518 CURVE SMOOTH",
"407 517 OFFCURVE",
"396 518 OFFCURVE",
"386 517 CURVE SMOOTH",
"371 516 OFFCURVE",
"354 514 OFFCURVE",
"339 513 CURVE SMOOTH",
"251 503 OFFCURVE",
"98 465 OFFCURVE",
"29 407 CURVE SMOOTH",
"17 396 OFFCURVE",
"1 380 OFFCURVE",
"1 363 CURVE SMOOTH",
"1 327 OFFCURVE",
"72 319 OFFCURVE",
"98 317 CURVE",
"90 307 OFFCURVE",
"82 296 OFFCURVE",
"74 285 CURVE",
"65 281 OFFCURVE",
"35 267 OFFCURVE",
"35 255 CURVE SMOOTH",
"35 253 OFFCURVE",
"37 249 OFFCURVE",
"41 249 CURVE SMOOTH",
"44 249 OFFCURVE",
"45 251 OFFCURVE",
"47 253 CURVE SMOOTH",
"49 256 OFFCURVE",
"55 260 OFFCURVE",
"58 262 CURVE",
"36 223 OFFCURVE",
"20 180 OFFCURVE",
"20 135 CURVE SMOOTH",
"20 103 OFFCURVE",
"29 72 OFFCURVE",
"45 44 CURVE SMOOTH",
"73 -6 OFFCURVE",
"128 -27 OFFCURVE",
"183 -35 CURVE",
"180 -38 OFFCURVE",
"177 -41 OFFCURVE",
"173 -46 CURVE SMOOTH",
"163 -56 OFFCURVE",
"158 -71 OFFCURVE",
"158 -82 CURVE SMOOTH",
"158 -102 OFFCURVE",
"185 -122 OFFCURVE",
"185 -138 CURVE SMOOTH",
"185 -177 OFFCURVE",
"154 -169 OFFCURVE",
"129 -174 CURVE",
"127 -174 OFFCURVE",
"124 -176 OFFCURVE",
"124 -178 CURVE SMOOTH",
"124 -181 OFFCURVE",
"126 -184 OFFCURVE",
"129 -184 CURVE SMOOTH",
"159 -184 OFFCURVE",
"207 -169 OFFCURVE",
"207 -133 CURVE SMOOTH",
"207 -106 OFFCURVE",
"176 -88 OFFCURVE",
"176 -73 CURVE SMOOTH",
"176 -64 OFFCURVE",
"181 -57 OFFCURVE",
"185 -50 CURVE SMOOTH",
"188 -44 OFFCURVE",
"190 -40 OFFCURVE",
"191 -36 CURVE",
"209 -38 OFFCURVE",
"226 -40 OFFCURVE",
"243 -40 CURVE SMOOTH"
);
},
{
closed = 1;
nodes = (
"498 516 OFFCURVE",
"514 518 OFFCURVE",
"530 518 CURVE SMOOTH",
"574 518 OFFCURVE",
"626 509 OFFCURVE",
"665 486 CURVE SMOOTH",
"670 483 OFFCURVE",
"680 476 OFFCURVE",
"684 471 CURVE SMOOTH",
"687 466 OFFCURVE",
"689 461 OFFCURVE",
"689 455 CURVE SMOOTH",
"689 453 OFFCURVE",
"689 449 OFFCURVE",
"686 449 CURVE SMOOTH",
"683 449 OFFCURVE",
"680 453 OFFCURVE",
"678 454 CURVE SMOOTH",
"644 484 OFFCURVE",
"528 508 OFFCURVE",
"483 514 CURVE"
);
},
{
closed = 1;
nodes = (
"19 377 OFFCURVE",
"32 387 OFFCURVE",
"40 394 CURVE SMOOTH",
"53 406 OFFCURVE",
"70 416 OFFCURVE",
"85 423 CURVE SMOOTH",
"165 465 OFFCURVE",
"271 491 OFFCURVE",
"360 499 CURVE",
"267 462 OFFCURVE",
"180 407 OFFCURVE",
"112 333 CURVE",
"94 333 OFFCURVE",
"19 338 OFFCURVE",
"19 365 CURVE SMOOTH"
);
},
{
closed = 1;
nodes = (
"147 318 LINE",
"143 316 LINE",
"143 318 LINE"
);
}
);
};
components = (
{
name = C;
},
{
name = cedillacomb;
transform = "{1, 0, 0, 1, 189, -38}";
}
);
layerId = "95C423A7-595F-441F-915A-E5EF8B5EF971";
width = 813;
}
);
note = Ccedilla;
unicode = 00C7;
},
{
glyphname = D;
lastChange = "2021-10-09 01:58:11 +0000";
layers = (
{
anchors = (
{
name = bottom;
position = "{267, 0}";
},
{
name = center;
position = "{160, 250}";
},
{
name = top;
position = "{554, 493}";
}
);
background = {
paths = (
{
closed = 1;
nodes = (
"474 503 OFFCURVE",
"478 500 OFFCURVE",
"482 500 CURVE SMOOTH",
"491 500 OFFCURVE",
"494 513 OFFCURVE",
"494 518 CURVE SMOOTH",
"494 529 OFFCURVE",
"488 534 OFFCURVE",
"478 534 CURVE SMOOTH",
"458 534 OFFCURVE",
"395 499 OFFCURVE",
"375 487 CURVE",
"328 536 OFFCURVE",
"236 600 OFFCURVE",
"167 600 CURVE SMOOTH",
"94 600 OFFCURVE",
"76 531 OFFCURVE",
"76 471 CURVE SMOOTH",
"76 403 OFFCURVE",
"100 318 OFFCURVE",
"134 258 CURVE",
"88 194 OFFCURVE",
"35 107 OFFCURVE",
"8 32 CURVE SMOOTH",
"5 23 OFFCURVE",
"2 14 OFFCURVE",
"2 5 CURVE SMOOTH",
"2 -13 OFFCURVE",
"13 -22 OFFCURVE",
"29 -22 CURVE SMOOTH",
"44 -22 OFFCURVE",
"60 -14 OFFCURVE",
"73 -5 CURVE SMOOTH",
"88 6 OFFCURVE",
"128 61 OFFCURVE",
"140 78 CURVE",
"171 1 OFFCURVE",
"255 -55 OFFCURVE",
"338 -55 CURVE SMOOTH",
"387 -55 OFFCURVE",
"432 -35 OFFCURVE",
"466 2 CURVE SMOOTH",
"505 43 OFFCURVE",
"519 100 OFFCURVE",
"519 154 CURVE SMOOTH",
"519 267 OFFCURVE",
"463 389 OFFCURVE",
"389 472 CURVE",
"403 482 OFFCURVE",
"461 519 OFFCURVE",
"477 519 CURVE SMOOTH",
"478 519 OFFCURVE",
"479 518 OFFCURVE",
"479 516 CURVE SMOOTH",
"479 515 OFFCURVE",
"474 511 OFFCURVE",
"474 507 CURVE SMOOTH"
);
},
{
closed = 1;
nodes = (
"123 331 OFFCURVE",
"107 403 OFFCURVE",
"107 462 CURVE SMOOTH",
"107 511 OFFCURVE",
"119 579 OFFCURVE",
"182 579 CURVE SMOOTH",
"242 579 OFFCURVE",
"321 521 OFFCURVE",
"360 477 CURVE",
"278 424 OFFCURVE",
"207 354 OFFCURVE",
"148 276 CURVE"
);
},
{
closed = 1;
nodes = (
"440 376 OFFCURVE",
"480 254 OFFCURVE",
"480 147 CURVE SMOOTH",
"480 105 OFFCURVE",
"473 47 OFFCURVE",
"443 15 CURVE SMOOTH",
"413 -18 OFFCURVE",
"372 -37 OFFCURVE",
"327 -37 CURVE SMOOTH",
"249 -37 OFFCURVE",
"174 20 OFFCURVE",
"151 94 CURVE",
"154 98 OFFCURVE",
"163 111 OFFCURVE",
"163 116 CURVE SMOOTH",
"163 125 OFFCURVE",
"151 130 OFFCURVE",
"144 130 CURVE SMOOTH",
"136 130 OFFCURVE",
"130 127 OFFCURVE",
"130 118 CURVE SMOOTH",
"130 111 OFFCURVE",
"132 103 OFFCURVE",
"134 96 CURVE",
"122 80 OFFCURVE",
"78 18 OFFCURVE",
"63 7 CURVE SMOOTH",
"56 2 OFFCURVE",
"39 -7 OFFCURVE",
"30 -7 CURVE SMOOTH",
"25 -7 OFFCURVE",
"23 -6 OFFCURVE",
"23 0 CURVE SMOOTH",
"23 39 OFFCURVE",
"131 194 OFFCURVE",
"155 226 CURVE",
"181 191 OFFCURVE",
"215 156 OFFCURVE",
"254 137 CURVE SMOOTH",
"256 136 OFFCURVE",
"257 136 OFFCURVE",
"258 136 CURVE SMOOTH",
"261 136 OFFCURVE",
"263 138 OFFCURVE",
"263 142 CURVE SMOOTH",
"263 145 OFFCURVE",
"260 147 OFFCURVE",
"258 149 CURVE SMOOTH",
"250 154 OFFCURVE",
"242 158 OFFCURVE",
"235 162 CURVE SMOOTH",
"206 182 OFFCURVE",
"183 211 OFFCURVE",
"166 241 CURVE",
"226 321 OFFCURVE",
"294 400 OFFCURVE",
"373 461 CURVE"
);
},
{
closed = 1;
nodes = (
"145 115 OFFCURVE",
"144 115 OFFCURVE",
"143 115 CURVE",
"145 118 LINE",
"145 114 LINE"
);
}
);
};
layerId = "95C423A7-595F-441F-915A-E5EF8B5EF971";
paths = (
{
closed = 1;
nodes = (
"387 -55 OFFCURVE",
"432 -35 OFFCURVE",
"466 2 CURVE SMOOTH",
"505 43 OFFCURVE",
"519 100 OFFCURVE",
"519 154 CURVE SMOOTH",
"519 267 OFFCURVE",
"463 389 OFFCURVE",
"389 472 CURVE",
"403 482 OFFCURVE",
"461 519 OFFCURVE",
"477 519 CURVE SMOOTH",
"478 519 OFFCURVE",
"479 518 OFFCURVE",
"479 516 CURVE SMOOTH",
"479 515 OFFCURVE",
"474 511 OFFCURVE",
"474 507 CURVE SMOOTH",
"474 503 OFFCURVE",
"478 500 OFFCURVE",
"482 500 CURVE SMOOTH",
"491 500 OFFCURVE",
"494 513 OFFCURVE",
"494 518 CURVE SMOOTH",
"494 529 OFFCURVE",
"488 534 OFFCURVE",
"478 534 CURVE SMOOTH",
"458 534 OFFCURVE",
"395 499 OFFCURVE",
"375 487 CURVE",
"328 536 OFFCURVE",
"236 600 OFFCURVE",
"167 600 CURVE SMOOTH",
"94 600 OFFCURVE",
"76 531 OFFCURVE",
"76 471 CURVE SMOOTH",
"76 403 OFFCURVE",
"100 318 OFFCURVE",
"134 258 CURVE",
"88 194 OFFCURVE",
"35 107 OFFCURVE",
"8 32 CURVE SMOOTH",
"5 23 OFFCURVE",
"2 14 OFFCURVE",
"2 5 CURVE SMOOTH",
"2 -13 OFFCURVE",
"13 -22 OFFCURVE",
"29 -22 CURVE SMOOTH",
"44 -22 OFFCURVE",
"60 -14 OFFCURVE",
"73 -5 CURVE SMOOTH",
"88 6 OFFCURVE",
"128 61 OFFCURVE",
"140 78 CURVE",
"171 1 OFFCURVE",
"255 -55 OFFCURVE",
"338 -55 CURVE SMOOTH"
);
},
{
closed = 1;
nodes = (
"145 115 OFFCURVE",
"144 115 OFFCURVE",
"143 115 CURVE",
"145 118 LINE",
"145 114 LINE"
);
},
{
closed = 1;
nodes = (
"249 -37 OFFCURVE",
"174 20 OFFCURVE",
"151 94 CURVE",
"154 98 OFFCURVE",
"163 111 OFFCURVE",
"163 116 CURVE SMOOTH",
"163 125 OFFCURVE",
"151 130 OFFCURVE",
"144 130 CURVE SMOOTH",
"136 130 OFFCURVE",
"130 127 OFFCURVE",
"130 118 CURVE SMOOTH",
"130 111 OFFCURVE",
"132 103 OFFCURVE",
"134 96 CURVE",
"122 80 OFFCURVE",
"78 18 OFFCURVE",
"63 7 CURVE SMOOTH",
"56 2 OFFCURVE",
"39 -7 OFFCURVE",
"30 -7 CURVE SMOOTH",
"25 -7 OFFCURVE",
"23 -6 OFFCURVE",
"23 0 CURVE SMOOTH",
"23 39 OFFCURVE",
"131 194 OFFCURVE",
"155 226 CURVE",
"181 191 OFFCURVE",
"215 156 OFFCURVE",
"254 137 CURVE SMOOTH",
"256 136 OFFCURVE",
"257 136 OFFCURVE",
"258 136 CURVE SMOOTH",
"261 136 OFFCURVE",
"263 138 OFFCURVE",
"263 142 CURVE SMOOTH",
"263 145 OFFCURVE",
"260 147 OFFCURVE",
"258 149 CURVE",
"250 154 OFFCURVE",
"242 158 OFFCURVE",
"235 162 CURVE SMOOTH",
"206 182 OFFCURVE",
"183 211 OFFCURVE",
"166 241 CURVE",
"226 321 OFFCURVE",
"294 400 OFFCURVE",
"373 461 CURVE",
"440 376 OFFCURVE",
"480 254 OFFCURVE",
"480 147 CURVE SMOOTH",
"480 105 OFFCURVE",
"473 47 OFFCURVE",
"443 15 CURVE SMOOTH",
"413 -18 OFFCURVE",
"372 -37 OFFCURVE",
"327 -37 CURVE SMOOTH"
);
},
{
closed = 1;
nodes = (
"123 331 OFFCURVE",
"107 403 OFFCURVE",
"107 462 CURVE SMOOTH",
"107 511 OFFCURVE",
"119 579 OFFCURVE",
"182 579 CURVE SMOOTH",
"242 579 OFFCURVE",
"321 521 OFFCURVE",
"360 477 CURVE",
"278 424 OFFCURVE",
"207 354 OFFCURVE",
"148 276 CURVE"
);
}
);
width = 533;
}
);
note = D;
unicode = 0044;
},
{
glyphname = E;
lastChange = "2021-10-09 01:58:11 +0000";
layers = (
{
anchors = (
{
name = bottom;
position = "{292, -55}";
},
{
name = ogonek;
position = "{543, -6}";
},
{
name = top;
position = "{500, 545}";
},
{
name = topleft;
position = "{10, 542}";
}
);
background = {
paths = (
{
closed = 1;
nodes = (
"575 488 OFFCURVE",
"599 494 OFFCURVE",
"599 509 CURVE SMOOTH",
"599 514 OFFCURVE",
"596 518 OFFCURVE",
"593 521 CURVE SMOOTH",
"574 538 OFFCURVE",
"524 545 OFFCURVE",
"500 545 CURVE SMOOTH",
"495 545 OFFCURVE",
"491 545 OFFCURVE",
"485 544 CURVE SMOOTH",
"463 543 OFFCURVE",
"441 538 OFFCURVE",
"420 531 CURVE SMOOTH",
"376 514 OFFCURVE",
"322 474 OFFCURVE",
"322 423 CURVE SMOOTH",
"322 389 OFFCURVE",
"347 363 OFFCURVE",
"375 347 CURVE",
"298 338 OFFCURVE",
"218 316 OFFCURVE",
"150 280 CURVE SMOOTH",
"84 244 OFFCURVE",
"-8 178 OFFCURVE",
"-8 94 CURVE SMOOTH",
"-8 25 OFFCURVE",
"56 -18 OFFCURVE",
"114 -38 CURVE",
"114 -102 OFFCURVE",
"147 -151 OFFCURVE",
"206 -175 CURVE",
"207 -175 OFFCURVE",
"209 -176 OFFCURVE",
"210 -176 CURVE SMOOTH",
"215 -176 OFFCURVE",
"219 -171 OFFCURVE",
"219 -166 CURVE SMOOTH",
"219 -162 OFFCURVE",
"216 -160 OFFCURVE",
"213 -158 CURVE SMOOTH",
"205 -154 OFFCURVE",
"196 -151 OFFCURVE",
"188 -145 CURVE SMOOTH",
"153 -122 OFFCURVE",
"134 -86 OFFCURVE",
"133 -44 CURVE",
"175 -56 OFFCURVE",
"219 -60 OFFCURVE",
"262 -60 CURVE SMOOTH",
"329 -60 OFFCURVE",
"396 -51 OFFCURVE",
"460 -34 CURVE SMOOTH",
"497 -25 OFFCURVE",
"533 -13 OFFCURVE",
"567 3 CURVE SMOOTH",
"638 36 OFFCURVE",
"728 100 OFFCURVE",
"738 185 CURVE SMOOTH",
"738 189 OFFCURVE",
"738 192 OFFCURVE",
"738 195 CURVE SMOOTH",
"738 271 OFFCURVE",
"660 293 OFFCURVE",
"597 293 CURVE SMOOTH",
"563 293 OFFCURVE",
"529 288 OFFCURVE",
"496 280 CURVE SMOOTH",
"360 247 OFFCURVE",
"196 179 OFFCURVE",
"133 44 CURVE SMOOTH",
"123 23 OFFCURVE",
"117 -1 OFFCURVE",
"115 -25 CURVE",
"70 -8 OFFCURVE",
"32 25 OFFCURVE",
"32 77 CURVE SMOOTH",
"32 153 OFFCURVE",
"110 219 OFFCURVE",
"170 253 CURVE SMOOTH",
"240 294 OFFCURVE",
"331 321 OFFCURVE",
"411 332 CURVE",
"442 323 OFFCURVE",
"478 318 OFFCURVE",
"511 318 CURVE SMOOTH",
"523 318 OFFCURVE",
"565 320 OFFCURVE",
"565 338 CURVE SMOOTH",
"565 356 OFFCURVE",
"488 354 OFFCURVE",
"475 354 CURVE SMOOTH",
"453 354 OFFCURVE",
"430 353 OFFCURVE",
"407 351 CURVE",
"380 365 OFFCURVE",
"357 389 OFFCURVE",
"357 422 CURVE SMOOTH",
"357 486 OFFCURVE",
"431 523 OFFCURVE",
"486 528 CURVE SMOOTH",
"494 529 OFFCURVE",
"502 529 OFFCURVE",
"511 529 CURVE SMOOTH",
"533 529 OFFCURVE",
"560 526 OFFCURVE",
"576 510 CURVE SMOOTH",
"577 509 OFFCURVE",
"578 508 OFFCURVE",
"578 507 CURVE SMOOTH",
"578 493 OFFCURVE",
"549 503 OFFCURVE",
"549 494 CURVE SMOOTH",
"549 489 OFFCURVE",
"560 488 OFFCURVE",
"563 488 CURVE SMOOTH"
);
},
{
closed = 1;
nodes = (
"134 -7 OFFCURVE",
"141 16 OFFCURVE",
"150 36 CURVE SMOOTH",
"207 163 OFFCURVE",
"374 233 OFFCURVE",
"500 262 CURVE SMOOTH",
"533 270 OFFCURVE",
"566 276 OFFCURVE",
"600 276 CURVE SMOOTH",
"647 276 OFFCURVE",
"712 262 OFFCURVE",
"712 203 CURVE SMOOTH",
"712 198 OFFCURVE",
"711 192 OFFCURVE",
"710 187 CURVE SMOOTH",
"694 113 OFFCURVE",
"602 53 OFFCURVE",
"539 24 CURVE SMOOTH",
"507 10 OFFCURVE",
"474 -2 OFFCURVE",
"440 -11 CURVE SMOOTH",
"372 -29 OFFCURVE",
"300 -42 OFFCURVE",
"229 -42 CURVE SMOOTH",
"197 -42 OFFCURVE",
"164 -39 OFFCURVE",
"133 -30 CURVE"
);
}
);
};
layerId = "95C423A7-595F-441F-915A-E5EF8B5EF971";
paths = (
{
closed = 1;
nodes = (
"215 -176 OFFCURVE",
"219 -171 OFFCURVE",
"219 -166 CURVE SMOOTH",
"219 -162 OFFCURVE",
"216 -160 OFFCURVE",
"213 -158 CURVE SMOOTH",
"205 -154 OFFCURVE",
"196 -151 OFFCURVE",
"188 -145 CURVE SMOOTH",
"153 -122 OFFCURVE",
"134 -86 OFFCURVE",
"133 -44 CURVE",
"175 -56 OFFCURVE",
"219 -60 OFFCURVE",
"262 -60 CURVE SMOOTH",
"329 -60 OFFCURVE",
"396 -51 OFFCURVE",
"460 -34 CURVE SMOOTH",
"497 -25 OFFCURVE",
"533 -13 OFFCURVE",
"567 3 CURVE SMOOTH",
"638 36 OFFCURVE",
"728 100 OFFCURVE",
"738 185 CURVE SMOOTH",
"738 189 OFFCURVE",
"738 192 OFFCURVE",
"738 195 CURVE SMOOTH",
"738 271 OFFCURVE",
"660 293 OFFCURVE",
"597 293 CURVE SMOOTH",
"563 293 OFFCURVE",
"529 288 OFFCURVE",
"496 280 CURVE SMOOTH",
"360 247 OFFCURVE",
"196 179 OFFCURVE",
"133 44 CURVE SMOOTH",
"123 23 OFFCURVE",
"117 -1 OFFCURVE",
"115 -25 CURVE",
"70 -8 OFFCURVE",
"32 25 OFFCURVE",
"32 77 CURVE SMOOTH",
"32 153 OFFCURVE",
"110 219 OFFCURVE",
"170 253 CURVE SMOOTH",
"240 294 OFFCURVE",
"331 321 OFFCURVE",
"411 332 CURVE",
"442 323 OFFCURVE",
"478 318 OFFCURVE",
"511 318 CURVE SMOOTH",
"523 318 OFFCURVE",
"565 320 OFFCURVE",
"565 338 CURVE SMOOTH",
"565 352 OFFCURVE",
"513 354 OFFCURVE",
"488 354 CURVE SMOOTH",
"461 354 OFFCURVE",
"434 353 OFFCURVE",
"407 351 CURVE",
"380 365 OFFCURVE",
"357 389 OFFCURVE",
"357 422 CURVE SMOOTH",
"357 486 OFFCURVE",
"431 523 OFFCURVE",
"486 528 CURVE SMOOTH",
"494 529 OFFCURVE",
"502 529 OFFCURVE",
"511 529 CURVE SMOOTH",
"533 529 OFFCURVE",
"560 526 OFFCURVE",
"576 510 CURVE",
"577 509 OFFCURVE",
"578 508 OFFCURVE",
"578 507 CURVE SMOOTH",
"578 493 OFFCURVE",
"549 503 OFFCURVE",
"549 494 CURVE SMOOTH",
"549 489 OFFCURVE",
"560 488 OFFCURVE",
"563 488 CURVE SMOOTH",
"575 488 OFFCURVE",
"599 494 OFFCURVE",
"599 509 CURVE SMOOTH",
"599 514 OFFCURVE",
"596 518 OFFCURVE",
"593 521 CURVE SMOOTH",
"574 538 OFFCURVE",
"524 545 OFFCURVE",
"500 545 CURVE SMOOTH",
"495 545 OFFCURVE",
"491 545 OFFCURVE",
"485 544 CURVE SMOOTH",
"463 543 OFFCURVE",
"441 538 OFFCURVE",
"420 531 CURVE SMOOTH",
"376 514 OFFCURVE",
"322 474 OFFCURVE",
"322 423 CURVE SMOOTH",
"322 389 OFFCURVE",
"347 363 OFFCURVE",
"375 347 CURVE",
"298 338 OFFCURVE",
"218 316 OFFCURVE",
"150 280 CURVE SMOOTH",
"84 244 OFFCURVE",
"-8 178 OFFCURVE",
"-8 94 CURVE SMOOTH",
"-8 25 OFFCURVE",
"56 -18 OFFCURVE",
"114 -38 CURVE",
"114 -102 OFFCURVE",
"147 -151 OFFCURVE",
"206 -175 CURVE",
"210 -176 LINE SMOOTH"
);
},
{
closed = 1;
nodes = (
"197 -42 OFFCURVE",
"164 -39 OFFCURVE",
"133 -30 CURVE",
"134 -7 OFFCURVE",
"141 16 OFFCURVE",
"150 36 CURVE SMOOTH",
"207 163 OFFCURVE",
"374 233 OFFCURVE",
"500 262 CURVE SMOOTH",
"533 270 OFFCURVE",
"566 276 OFFCURVE",
"600 276 CURVE SMOOTH",
"647 276 OFFCURVE",
"712 262 OFFCURVE",
"712 203 CURVE SMOOTH",
"712 198 OFFCURVE",
"711 192 OFFCURVE",
"710 187 CURVE SMOOTH",
"694 113 OFFCURVE",
"602 53 OFFCURVE",
"539 24 CURVE SMOOTH",
"507 10 OFFCURVE",
"474 -2 OFFCURVE",
"440 -11 CURVE SMOOTH",
"372 -29 OFFCURVE",
"300 -42 OFFCURVE",
"229 -42 CURVE SMOOTH"
);
}
);
width = 740;
}
);
note = E;
unicode = 0045;
},
{
glyphname = Eacute;
lastChange = "2021-10-09 01:58:11 +0000";
layers = (
{
background = {
paths = (
{
closed = 1;
nodes = (
"515 577 OFFCURVE",
"517 578 OFFCURVE",
"519 579 CURVE SMOOTH",
"549 596 OFFCURVE",
"579 612 OFFCURVE",
"609 628 CURVE SMOOTH",
"617 632 OFFCURVE",
"631 640 OFFCURVE",
"631 651 CURVE SMOOTH",
"631 658 OFFCURVE",
"622 661 OFFCURVE",
"616 661 CURVE SMOOTH",
"605 661 OFFCURVE",
"594 654 OFFCURVE",
"587 647 CURVE SMOOTH",
"576 638 OFFCURVE",
"509 592 OFFCURVE",
"509 582 CURVE SMOOTH",
"509 579 OFFCURVE",
"511 577 OFFCURVE",
"513 577 CURVE SMOOTH"
);
},
{
closed = 1;
nodes = (
"575 488 OFFCURVE",
"599 494 OFFCURVE",
"599 509 CURVE SMOOTH",
"599 514 OFFCURVE",
"596 518 OFFCURVE",
"593 521 CURVE SMOOTH",
"574 538 OFFCURVE",
"524 545 OFFCURVE",
"500 545 CURVE SMOOTH",
"495 545 OFFCURVE",
"491 545 OFFCURVE",
"485 544 CURVE SMOOTH",
"463 543 OFFCURVE",
"441 538 OFFCURVE",
"420 531 CURVE SMOOTH",
"376 514 OFFCURVE",
"322 474 OFFCURVE",
"322 423 CURVE SMOOTH",
"322 389 OFFCURVE",
"347 363 OFFCURVE",
"375 347 CURVE",
"298 338 OFFCURVE",
"218 316 OFFCURVE",
"150 280 CURVE SMOOTH",
"84 244 OFFCURVE",
"-8 178 OFFCURVE",
"-8 94 CURVE SMOOTH",
"-8 25 OFFCURVE",
"56 -18 OFFCURVE",
"114 -38 CURVE",
"114 -102 OFFCURVE",
"147 -151 OFFCURVE",
"206 -175 CURVE",
"207 -175 OFFCURVE",
"209 -176 OFFCURVE",
"210 -176 CURVE SMOOTH",
"215 -176 OFFCURVE",
"219 -171 OFFCURVE",
"219 -166 CURVE SMOOTH",
"219 -162 OFFCURVE",
"216 -160 OFFCURVE",
"213 -158 CURVE SMOOTH",
"205 -154 OFFCURVE",
"196 -151 OFFCURVE",
"188 -145 CURVE SMOOTH",
"153 -122 OFFCURVE",
"134 -86 OFFCURVE",
"133 -44 CURVE",
"175 -56 OFFCURVE",
"219 -60 OFFCURVE",
"262 -60 CURVE SMOOTH",
"329 -60 OFFCURVE",
"396 -51 OFFCURVE",
"460 -34 CURVE SMOOTH",
"497 -25 OFFCURVE",
"533 -13 OFFCURVE",
"567 3 CURVE SMOOTH",
"638 36 OFFCURVE",
"728 100 OFFCURVE",
"738 185 CURVE SMOOTH",
"738 189 OFFCURVE",
"738 192 OFFCURVE",
"738 195 CURVE SMOOTH",
"738 271 OFFCURVE",
"660 293 OFFCURVE",
"597 293 CURVE SMOOTH",
"563 293 OFFCURVE",
"529 288 OFFCURVE",
"496 280 CURVE SMOOTH",
"360 247 OFFCURVE",
"196 179 OFFCURVE",
"133 44 CURVE SMOOTH",
"123 23 OFFCURVE",
"117 -1 OFFCURVE",
"115 -25 CURVE",
"70 -8 OFFCURVE",
"32 25 OFFCURVE",
"32 77 CURVE SMOOTH",
"32 153 OFFCURVE",
"110 219 OFFCURVE",
"170 253 CURVE SMOOTH",
"240 294 OFFCURVE",
"331 321 OFFCURVE",
"411 332 CURVE",
"442 323 OFFCURVE",
"478 318 OFFCURVE",
"511 318 CURVE SMOOTH",
"523 318 OFFCURVE",
"565 320 OFFCURVE",
"565 338 CURVE SMOOTH",
"565 356 OFFCURVE",
"488 354 OFFCURVE",
"475 354 CURVE SMOOTH",
"453 354 OFFCURVE",
"430 353 OFFCURVE",
"407 351 CURVE",
"380 365 OFFCURVE",
"357 389 OFFCURVE",
"357 422 CURVE SMOOTH",
"357 486 OFFCURVE",
"431 523 OFFCURVE",
"486 528 CURVE SMOOTH",
"494 529 OFFCURVE",
"502 529 OFFCURVE",
"511 529 CURVE SMOOTH",
"533 529 OFFCURVE",
"560 526 OFFCURVE",
"576 510 CURVE SMOOTH",
"577 509 OFFCURVE",
"578 508 OFFCURVE",
"578 507 CURVE SMOOTH",
"578 493 OFFCURVE",
"549 503 OFFCURVE",
"549 494 CURVE SMOOTH",
"549 489 OFFCURVE",
"560 488 OFFCURVE",
"563 488 CURVE SMOOTH"
);
},
{
closed = 1;
nodes = (
"134 -7 OFFCURVE",
"141 16 OFFCURVE",
"150 36 CURVE SMOOTH",
"207 163 OFFCURVE",
"374 233 OFFCURVE",
"500 262 CURVE SMOOTH",
"533 270 OFFCURVE",
"566 276 OFFCURVE",
"600 276 CURVE SMOOTH",
"647 276 OFFCURVE",
"712 262 OFFCURVE",
"712 203 CURVE SMOOTH",
"712 198 OFFCURVE",
"711 192 OFFCURVE",
"710 187 CURVE SMOOTH",
"694 113 OFFCURVE",
"602 53 OFFCURVE",
"539 24 CURVE SMOOTH",
"507 10 OFFCURVE",
"474 -2 OFFCURVE",
"440 -11 CURVE SMOOTH",
"372 -29 OFFCURVE",
"300 -42 OFFCURVE",
"229 -42 CURVE SMOOTH",
"197 -42 OFFCURVE",
"164 -39 OFFCURVE",
"133 -30 CURVE"
);
}
);
};
components = (
{
name = E;
},
{
name = acutecomb.case;
transform = "{1, 0, 0, 1, 477, 325}";
}
);
layerId = "95C423A7-595F-441F-915A-E5EF8B5EF971";
width = 740;
}
);
note = Eacute;
unicode = 00C9;
},
{
glyphname = Edieresis;
lastChange = "2021-10-09 01:58:11 +0000";
layers = (
{
background = {
paths = (
{
closed = 1;
nodes = (
"553 636 LINE SMOOTH",
"553 637 OFFCURVE",
"552 637 OFFCURVE",
"551 637 CURVE SMOOTH",
"539 637 OFFCURVE",
"502 614 OFFCURVE",
"502 600 CURVE SMOOTH",
"502 594 OFFCURVE",
"509 581 OFFCURVE",
"516 581 CURVE SMOOTH",
"526 581 OFFCURVE",
"533 594 OFFCURVE",
"534 602 CURVE SMOOTH",
"537 610 OFFCURVE",
"540 618 OFFCURVE",
"544 624 CURVE SMOOTH",
"545 626 OFFCURVE",
"553 634 OFFCURVE",
"553 635 CURVE SMOOTH",
"553 636 LINE"
);
},
{
closed = 1;
nodes = (
"631 636 LINE SMOOTH",
"631 637 OFFCURVE",
"630 637 OFFCURVE",
"629 637 CURVE SMOOTH",
"617 637 OFFCURVE",
"580 614 OFFCURVE",
"580 600 CURVE SMOOTH",
"580 594 OFFCURVE",
"587 581 OFFCURVE",
"594 581 CURVE SMOOTH",
"604 581 OFFCURVE",
"611 594 OFFCURVE",
"613 602 CURVE SMOOTH",
"615 610 OFFCURVE",
"618 618 OFFCURVE",
"622 624 CURVE SMOOTH",
"623 626 OFFCURVE",
"631 634 OFFCURVE",
"631 635 CURVE SMOOTH",
"631 636 LINE"
);
},
{
closed = 1;
nodes = (
"575 488 OFFCURVE",
"599 494 OFFCURVE",
"599 509 CURVE SMOOTH",
"599 514 OFFCURVE",
"596 518 OFFCURVE",
"593 521 CURVE SMOOTH",
"574 538 OFFCURVE",
"524 545 OFFCURVE",
"500 545 CURVE SMOOTH",
"495 545 OFFCURVE",
"491 545 OFFCURVE",
"485 544 CURVE SMOOTH",
"463 543 OFFCURVE",
"441 538 OFFCURVE",
"420 531 CURVE SMOOTH",
"376 514 OFFCURVE",
"322 474 OFFCURVE",
"322 423 CURVE SMOOTH",
"322 389 OFFCURVE",
"347 363 OFFCURVE",
"375 347 CURVE",
"298 338 OFFCURVE",
"218 316 OFFCURVE",
"150 280 CURVE SMOOTH",
"84 244 OFFCURVE",
"-8 178 OFFCURVE",
"-8 94 CURVE SMOOTH",
"-8 25 OFFCURVE",
"56 -18 OFFCURVE",
"114 -38 CURVE",
"114 -102 OFFCURVE",
"147 -151 OFFCURVE",
"206 -175 CURVE",
"207 -175 OFFCURVE",
"209 -176 OFFCURVE",
"210 -176 CURVE SMOOTH",
"215 -176 OFFCURVE",
"219 -171 OFFCURVE",
"219 -166 CURVE SMOOTH",
"219 -162 OFFCURVE",
"216 -160 OFFCURVE",
"213 -158 CURVE SMOOTH",
"205 -154 OFFCURVE",
"196 -151 OFFCURVE",
"188 -145 CURVE SMOOTH",
"153 -122 OFFCURVE",
"134 -86 OFFCURVE",
"133 -44 CURVE",
"175 -56 OFFCURVE",
"219 -60 OFFCURVE",
"262 -60 CURVE SMOOTH",
"329 -60 OFFCURVE",
"396 -51 OFFCURVE",
"460 -34 CURVE SMOOTH",
"497 -25 OFFCURVE",
"533 -13 OFFCURVE",
"567 3 CURVE SMOOTH",
"638 36 OFFCURVE",
"728 100 OFFCURVE",
"738 185 CURVE SMOOTH",
"738 189 OFFCURVE",
"738 192 OFFCURVE",
"738 195 CURVE SMOOTH",
"738 271 OFFCURVE",
"660 293 OFFCURVE",
"597 293 CURVE SMOOTH",
"563 293 OFFCURVE",
"529 288 OFFCURVE",
"496 280 CURVE SMOOTH",
"360 247 OFFCURVE",
"196 179 OFFCURVE",
"133 44 CURVE SMOOTH",
"123 23 OFFCURVE",
"117 -1 OFFCURVE",
"115 -25 CURVE",
"70 -8 OFFCURVE",
"32 25 OFFCURVE",
"32 77 CURVE SMOOTH",
"32 153 OFFCURVE",
"110 219 OFFCURVE",
"170 253 CURVE SMOOTH",
"240 294 OFFCURVE",
"331 321 OFFCURVE",
"411 332 CURVE",
"442 323 OFFCURVE",
"478 318 OFFCURVE",
"511 318 CURVE SMOOTH",
"523 318 OFFCURVE",
"565 320 OFFCURVE",
"565 338 CURVE SMOOTH",
"565 356 OFFCURVE",
"488 354 OFFCURVE",
"475 354 CURVE SMOOTH",
"453 354 OFFCURVE",
"430 353 OFFCURVE",
"407 351 CURVE",
"380 365 OFFCURVE",
"357 389 OFFCURVE",
"357 422 CURVE SMOOTH",
"357 486 OFFCURVE",
"431 523 OFFCURVE",
"486 528 CURVE SMOOTH",
"494 529 OFFCURVE",
"502 529 OFFCURVE",
"511 529 CURVE SMOOTH",
"533 529 OFFCURVE",
"560 526 OFFCURVE",
"576 510 CURVE SMOOTH",
"577 509 OFFCURVE",
"578 508 OFFCURVE",
"578 507 CURVE SMOOTH",
"578 493 OFFCURVE",
"549 503 OFFCURVE",
"549 494 CURVE SMOOTH",
"549 489 OFFCURVE",
"560 488 OFFCURVE",
"563 488 CURVE SMOOTH"
);
},
{
closed = 1;
nodes = (
"134 -7 OFFCURVE",
"141 16 OFFCURVE",
"150 36 CURVE SMOOTH",
"207 163 OFFCURVE",
"374 233 OFFCURVE",
"500 262 CURVE SMOOTH",
"533 270 OFFCURVE",
"566 276 OFFCURVE",
"600 276 CURVE SMOOTH",
"647 276 OFFCURVE",
"712 262 OFFCURVE",
"712 203 CURVE SMOOTH",
"712 198 OFFCURVE",
"711 192 OFFCURVE",
"710 187 CURVE SMOOTH",
"694 113 OFFCURVE",
"602 53 OFFCURVE",
"539 24 CURVE SMOOTH",
"507 10 OFFCURVE",
"474 -2 OFFCURVE",
"440 -11 CURVE SMOOTH",
"372 -29 OFFCURVE",
"300 -42 OFFCURVE",
"229 -42 CURVE SMOOTH",
"197 -42 OFFCURVE",
"164 -39 OFFCURVE",
"133 -30 CURVE"
);
}
);
};
components = (
{
name = E;
},
{
name = dieresiscomb.case;
transform = "{1, 0, 0, 1, 453, 325}";
}
);
layerId = "95C423A7-595F-441F-915A-E5EF8B5EF971";
width = 740;
}
);
note = Edieresis;
unicode = 00CB;
},
{
glyphname = Egrave;
lastChange = "2021-10-09 01:58:11 +0000";
layers = (
{
background = {
paths = (
{
closed = 1;
nodes = (
"601 573 OFFCURVE",
"602 574 OFFCURVE",
"602 577 CURVE SMOOTH",
"602 587 OFFCURVE",
"536 633 OFFCURVE",
"525 643 CURVE SMOOTH",
"517 650 OFFCURVE",
"507 656 OFFCURVE",
"495 656 CURVE SMOOTH",
"489 656 OFFCURVE",
"480 653 OFFCURVE",
"480 646 CURVE SMOOTH",
"480 636 OFFCURVE",
"494 627 OFFCURVE",
"502 623 CURVE SMOOTH",
"533 607 OFFCURVE",
"563 592 OFFCURVE",
"593 574 CURVE SMOOTH",
"594 573 OFFCURVE",
"596 573 OFFCURVE",
"598 573 CURVE SMOOTH"
);
},
{
closed = 1;
nodes = (
"575 488 OFFCURVE",
"599 494 OFFCURVE",
"599 509 CURVE SMOOTH",
"599 514 OFFCURVE",
"596 518 OFFCURVE",
"593 521 CURVE SMOOTH",
"574 538 OFFCURVE",
"524 545 OFFCURVE",
"500 545 CURVE SMOOTH",
"495 545 OFFCURVE",
"491 545 OFFCURVE",
"485 544 CURVE SMOOTH",
"463 543 OFFCURVE",
"441 538 OFFCURVE",
"420 531 CURVE SMOOTH",
"376 514 OFFCURVE",
"322 474 OFFCURVE",
"322 423 CURVE SMOOTH",
"322 389 OFFCURVE",
"347 363 OFFCURVE",
"375 347 CURVE",
"298 338 OFFCURVE",
"218 316 OFFCURVE",
"150 280 CURVE SMOOTH",
"84 244 OFFCURVE",
"-8 178 OFFCURVE",
"-8 94 CURVE SMOOTH",
"-8 25 OFFCURVE",
"56 -18 OFFCURVE",
"114 -38 CURVE",
"114 -102 OFFCURVE",
"147 -151 OFFCURVE",
"206 -175 CURVE",
"207 -175 OFFCURVE",
"209 -176 OFFCURVE",
"210 -176 CURVE SMOOTH",
"215 -176 OFFCURVE",
"219 -171 OFFCURVE",
"219 -166 CURVE SMOOTH",
"219 -162 OFFCURVE",
"216 -160 OFFCURVE",
"213 -158 CURVE SMOOTH",
"205 -154 OFFCURVE",
"196 -151 OFFCURVE",
"188 -145 CURVE SMOOTH",
"153 -122 OFFCURVE",
"134 -86 OFFCURVE",
"133 -44 CURVE",
"175 -56 OFFCURVE",
"219 -60 OFFCURVE",
"262 -60 CURVE SMOOTH",
"329 -60 OFFCURVE",
"396 -51 OFFCURVE",
"460 -34 CURVE SMOOTH",
"497 -25 OFFCURVE",
"533 -13 OFFCURVE",
"567 3 CURVE SMOOTH",
"638 36 OFFCURVE",
"728 100 OFFCURVE",
"738 185 CURVE SMOOTH",
"738 189 OFFCURVE",
"738 192 OFFCURVE",
"738 195 CURVE SMOOTH",
"738 271 OFFCURVE",
"660 293 OFFCURVE",
"597 293 CURVE SMOOTH",
"563 293 OFFCURVE",
"529 288 OFFCURVE",
"496 280 CURVE SMOOTH",
"360 247 OFFCURVE",
"196 179 OFFCURVE",
"133 44 CURVE SMOOTH",
"123 23 OFFCURVE",
"117 -1 OFFCURVE",
"115 -25 CURVE",
"70 -8 OFFCURVE",
"32 25 OFFCURVE",
"32 77 CURVE SMOOTH",
"32 153 OFFCURVE",
"110 219 OFFCURVE",
"170 253 CURVE SMOOTH",
"240 294 OFFCURVE",
"331 321 OFFCURVE",
"411 332 CURVE",
"442 323 OFFCURVE",
"478 318 OFFCURVE",
"511 318 CURVE SMOOTH",
"523 318 OFFCURVE",
"565 320 OFFCURVE",
"565 338 CURVE SMOOTH",
"565 356 OFFCURVE",
"488 354 OFFCURVE",
"475 354 CURVE SMOOTH",
"453 354 OFFCURVE",
"430 353 OFFCURVE",
"407 351 CURVE",
"380 365 OFFCURVE",
"357 389 OFFCURVE",
"357 422 CURVE SMOOTH",
"357 486 OFFCURVE",
"431 523 OFFCURVE",
"486 528 CURVE SMOOTH",
"494 529 OFFCURVE",
"502 529 OFFCURVE",
"511 529 CURVE SMOOTH",
"533 529 OFFCURVE",
"560 526 OFFCURVE",
"576 510 CURVE SMOOTH",
"577 509 OFFCURVE",
"578 508 OFFCURVE",
"578 507 CURVE SMOOTH",
"578 493 OFFCURVE",
"549 503 OFFCURVE",
"549 494 CURVE SMOOTH",
"549 489 OFFCURVE",
"560 488 OFFCURVE",
"563 488 CURVE SMOOTH"
);
},
{
closed = 1;
nodes = (
"134 -7 OFFCURVE",
"141 16 OFFCURVE",
"150 36 CURVE SMOOTH",
"207 163 OFFCURVE",
"374 233 OFFCURVE",
"500 262 CURVE SMOOTH",
"533 270 OFFCURVE",
"566 276 OFFCURVE",
"600 276 CURVE SMOOTH",
"647 276 OFFCURVE",
"712 262 OFFCURVE",
"712 203 CURVE SMOOTH",
"712 198 OFFCURVE",
"711 192 OFFCURVE",
"710 187 CURVE SMOOTH",
"694 113 OFFCURVE",
"602 53 OFFCURVE",
"539 24 CURVE SMOOTH",
"507 10 OFFCURVE",
"474 -2 OFFCURVE",
"440 -11 CURVE SMOOTH",
"372 -29 OFFCURVE",
"300 -42 OFFCURVE",
"229 -42 CURVE SMOOTH",
"197 -42 OFFCURVE",
"164 -39 OFFCURVE",
"133 -30 CURVE"
);
}
);
};
components = (
{
name = E;
},
{
name = gravecomb.case;
transform = "{1, 0, 0, 1, 451, 325}";
}
);
layerId = "95C423A7-595F-441F-915A-E5EF8B5EF971";
width = 740;
}
);
note = Egrave;
unicode = 00C8;
},
{
glyphname = F;
lastChange = "2021-10-09 01:58:11 +0000";
layers = (
{
background = {
paths = (
{
closed = 1;
nodes = (
"733 492 OFFCURVE",
"736 489 OFFCURVE",
"740 489 CURVE SMOOTH",
"748 489 OFFCURVE",
"752 502 OFFCURVE",
"752 507 CURVE SMOOTH",
"752 559 OFFCURVE",
"581 565 OFFCURVE",
"546 565 CURVE SMOOTH",
"430 565 OFFCURVE",
"231 538 OFFCURVE",
"128 482 CURVE SMOOTH",
"107 471 OFFCURVE",
"82 447 OFFCURVE",
"82 421 CURVE SMOOTH",
"82 354 OFFCURVE",
"249 348 OFFCURVE",
"298 348 CURVE SMOOTH",
"342 348 OFFCURVE",
"387 353 OFFCURVE",
"431 362 CURVE SMOOTH",
"438 363 OFFCURVE",
"445 364 OFFCURVE",
"451 367 CURVE SMOOTH",
"455 368 OFFCURVE",
"457 369 OFFCURVE",
"457 374 CURVE SMOOTH",
"457 378 OFFCURVE",
"454 382 OFFCURVE",
"450 382 CURVE SMOOTH",
"449 382 OFFCURVE",
"448 382 OFFCURVE",
"447 382 CURVE",
"409 371 OFFCURVE",
"369 368 OFFCURVE",
"329 368 CURVE SMOOTH",
"294 368 OFFCURVE",
"127 374 OFFCURVE",
"127 416 CURVE SMOOTH",
"127 436 OFFCURVE",
"160 455 OFFCURVE",
"175 463 CURVE SMOOTH",
"271 515 OFFCURVE",
"475 543 OFFCURVE",
"584 543 CURVE SMOOTH",
"622 543 OFFCURVE",
"683 540 OFFCURVE",
"718 524 CURVE SMOOTH",
"724 522 OFFCURVE",
"736 516 OFFCURVE",
"736 507 CURVE SMOOTH",
"736 502 OFFCURVE",
"733 500 OFFCURVE",
"733 496 CURVE SMOOTH"
);
},
{
closed = 1;
nodes = (
"685 518 OFFCURVE",
"686 500 OFFCURVE",
"698 500 CURVE SMOOTH",
"702 500 OFFCURVE",
"703 502 OFFCURVE",
"703 505 CURVE SMOOTH",
"703 520 OFFCURVE",
"684 534 OFFCURVE",
"671 534 CURVE SMOOTH",
"659 534 OFFCURVE",
"650 528 OFFCURVE",
"642 521 CURVE SMOOTH",
"620 503 OFFCURVE",
"552 345 OFFCURVE",
"536 308 CURVE",
"487 304 OFFCURVE",
"438 286 OFFCURVE",
"391 270 CURVE SMOOTH",
"365 261 OFFCURVE",
"245 214 OFFCURVE",
"223 214 CURVE",
"223 214 OFFCURVE",
"221 214 OFFCURVE",
"221 214 CURVE",
"222 216 LINE SMOOTH",
"237 234 OFFCURVE",
"262 247 OFFCURVE",
"282 258 CURVE SMOOTH",
"330 283 OFFCURVE",
"394 307 OFFCURVE",
"433 344 CURVE SMOOTH",
"435 346 OFFCURVE",
"436 348 OFFCURVE",
"436 351 CURVE SMOOTH",
"436 354 OFFCURVE",
"434 358 OFFCURVE",
"431 358 CURVE SMOOTH",
"429 358 OFFCURVE",
"428 357 OFFCURVE",
"427 356 CURVE SMOOTH",
"396 331 OFFCURVE",
"363 314 OFFCURVE",
"327 298 CURVE SMOOTH",
"294 281 OFFCURVE",
"200 254 OFFCURVE",
"181 226 CURVE SMOOTH",
"179 223 OFFCURVE",
"178 220 OFFCURVE",
"178 216 CURVE SMOOTH",
"178 200 OFFCURVE",
"200 192 OFFCURVE",
"213 192 CURVE SMOOTH",
"247 192 OFFCURVE",
"359 238 OFFCURVE",
"394 251 CURVE SMOOTH",
"437 267 OFFCURVE",
"483 285 OFFCURVE",
"529 292 CURVE",
"471 163 OFFCURVE",
"370 -39 OFFCURVE",
"209 -39 CURVE SMOOTH",
"136 -39 OFFCURVE",
"88 33 OFFCURVE",
"69 95 CURVE SMOOTH",
"60 121 OFFCURVE",
"56 148 OFFCURVE",
"56 175 CURVE SMOOTH",
"56 201 OFFCURVE",
"60 226 OFFCURVE",
"69 251 CURVE",
"69 251 OFFCURVE",
"69 252 OFFCURVE",
"69 253 CURVE SMOOTH",
"69 257 OFFCURVE",
"65 260 OFFCURVE",
"61 260 CURVE SMOOTH",
"57 260 OFFCURVE",
"55 258 OFFCURVE",
"54 254 CURVE SMOOTH",
"42 225 OFFCURVE",
"36 174 OFFCURVE",
"36 143 CURVE SMOOTH",
"36 36 OFFCURVE",
"86 -59 OFFCURVE",
"205 -59 CURVE SMOOTH",
"373 -59 OFFCURVE",
"470 76 OFFCURVE",
"535 213 CURVE SMOOTH",
"547 239 OFFCURVE",
"556 266 OFFCURVE",
"567 292 CURVE",
"576 291 OFFCURVE",
"583 284 OFFCURVE",
"583 274 CURVE SMOOTH",
"583 245 OFFCURVE",
"538 204 OFFCURVE",
"538 196 CURVE SMOOTH",
"538 193 OFFCURVE",
"541 189 OFFCURVE",
"545 189 CURVE SMOOTH",
"547 189 OFFCURVE",
"548 191 OFFCURVE",
"549 191 CURVE SMOOTH",
"571 207 OFFCURVE",
"611 242 OFFCURVE",
"611 271 CURVE SMOOTH",
"611 292 OFFCURVE",
"589 302 OFFCURVE",
"572 307 CURVE",
"583 336 OFFCURVE",
"641 497 OFFCURVE",
"653 509 CURVE SMOOTH",
"658 513 OFFCURVE",
"662 518 OFFCURVE",
"670 518 CURVE SMOOTH"
);
}
);
};
layerId = "95C423A7-595F-441F-915A-E5EF8B5EF971";
paths = (
{
closed = 1;
nodes = (
"373 -59 OFFCURVE",
"470 76 OFFCURVE",
"535 213 CURVE SMOOTH",
"547 239 OFFCURVE",
"556 266 OFFCURVE",
"567 292 CURVE",
"576 291 OFFCURVE",
"583 284 OFFCURVE",
"583 274 CURVE SMOOTH",
"583 245 OFFCURVE",
"538 204 OFFCURVE",
"538 196 CURVE SMOOTH",
"538 193 OFFCURVE",
"541 189 OFFCURVE",
"545 189 CURVE SMOOTH",
"547 189 OFFCURVE",
"548 191 OFFCURVE",
"549 191 CURVE",
"571 207 OFFCURVE",
"611 242 OFFCURVE",
"611 271 CURVE SMOOTH",
"611 292 OFFCURVE",
"589 302 OFFCURVE",
"572 307 CURVE",
"583 336 OFFCURVE",
"641 497 OFFCURVE",
"653 509 CURVE SMOOTH",
"658 513 OFFCURVE",
"662 518 OFFCURVE",
"670 518 CURVE SMOOTH",
"685 518 OFFCURVE",
"686 500 OFFCURVE",
"698 500 CURVE SMOOTH",
"702 500 OFFCURVE",
"703 502 OFFCURVE",
"703 505 CURVE SMOOTH",
"703 520 OFFCURVE",
"684 534 OFFCURVE",
"671 534 CURVE SMOOTH",
"659 534 OFFCURVE",
"650 528 OFFCURVE",
"642 521 CURVE SMOOTH",
"620 503 OFFCURVE",
"552 345 OFFCURVE",
"536 308 CURVE",
"487 304 OFFCURVE",
"438 286 OFFCURVE",
"391 270 CURVE SMOOTH",
"365 261 OFFCURVE",
"245 214 OFFCURVE",
"223 214 CURVE",
"223 214 OFFCURVE",
"221 214 OFFCURVE",
"221 214 CURVE",
"222 216 LINE SMOOTH",
"237 234 OFFCURVE",
"262 247 OFFCURVE",
"282 258 CURVE SMOOTH",
"330 283 OFFCURVE",
"394 307 OFFCURVE",
"433 344 CURVE SMOOTH",
"435 346 OFFCURVE",
"436 348 OFFCURVE",
"436 351 CURVE SMOOTH",
"436 354 OFFCURVE",
"434 358 OFFCURVE",
"431 358 CURVE SMOOTH",
"429 358 OFFCURVE",
"428 357 OFFCURVE",
"427 356 CURVE",
"396 331 OFFCURVE",
"363 314 OFFCURVE",
"327 298 CURVE SMOOTH",
"294 281 OFFCURVE",
"200 254 OFFCURVE",
"181 226 CURVE SMOOTH",
"179 223 OFFCURVE",
"178 220 OFFCURVE",
"178 216 CURVE SMOOTH",
"178 200 OFFCURVE",
"200 192 OFFCURVE",
"213 192 CURVE SMOOTH",
"247 192 OFFCURVE",
"359 238 OFFCURVE",
"394 251 CURVE SMOOTH",
"437 267 OFFCURVE",
"483 285 OFFCURVE",
"529 292 CURVE",
"471 163 OFFCURVE",
"370 -39 OFFCURVE",
"209 -39 CURVE SMOOTH",
"136 -39 OFFCURVE",
"88 33 OFFCURVE",
"69 95 CURVE SMOOTH",
"60 121 OFFCURVE",
"56 148 OFFCURVE",
"56 175 CURVE SMOOTH",
"56 201 OFFCURVE",
"60 226 OFFCURVE",
"69 251 CURVE",
"69 251 OFFCURVE",
"69 252 OFFCURVE",
"69 253 CURVE SMOOTH",
"69 257 OFFCURVE",
"65 260 OFFCURVE",
"61 260 CURVE SMOOTH",
"57 260 OFFCURVE",
"55 258 OFFCURVE",
"54 254 CURVE SMOOTH",
"42 225 OFFCURVE",
"36 174 OFFCURVE",
"36 143 CURVE SMOOTH",
"36 36 OFFCURVE",
"86 -59 OFFCURVE",
"205 -59 CURVE SMOOTH"
);
},
{
closed = 1;
nodes = (
"342 348 OFFCURVE",
"387 353 OFFCURVE",
"431 362 CURVE SMOOTH",
"438 363 OFFCURVE",
"445 364 OFFCURVE",
"451 367 CURVE",
"455 368 OFFCURVE",
"457 369 OFFCURVE",
"457 374 CURVE SMOOTH",
"457 378 OFFCURVE",
"454 382 OFFCURVE",
"450 382 CURVE SMOOTH",
"447 382 LINE",
"409 371 OFFCURVE",
"369 368 OFFCURVE",
"329 368 CURVE SMOOTH",
"294 368 OFFCURVE",
"127 374 OFFCURVE",
"127 416 CURVE SMOOTH",
"127 436 OFFCURVE",
"160 455 OFFCURVE",
"175 463 CURVE SMOOTH",
"271 515 OFFCURVE",
"475 543 OFFCURVE",
"584 543 CURVE SMOOTH",
"622 543 OFFCURVE",
"683 540 OFFCURVE",
"718 524 CURVE SMOOTH",
"724 522 OFFCURVE",
"736 516 OFFCURVE",
"736 507 CURVE SMOOTH",
"736 502 OFFCURVE",
"733 500 OFFCURVE",
"733 496 CURVE SMOOTH",
"733 492 OFFCURVE",
"736 489 OFFCURVE",
"740 489 CURVE SMOOTH",
"748 489 OFFCURVE",
"752 502 OFFCURVE",
"752 507 CURVE SMOOTH",
"752 559 OFFCURVE",
"581 565 OFFCURVE",
"546 565 CURVE SMOOTH",
"430 565 OFFCURVE",
"231 538 OFFCURVE",
"128 482 CURVE SMOOTH",
"107 471 OFFCURVE",
"82 447 OFFCURVE",
"82 421 CURVE SMOOTH",
"82 354 OFFCURVE",
"249 348 OFFCURVE",
"298 348 CURVE SMOOTH"
);
}
);
width = 600;
}
);
note = F;
unicode = 0046;
},
{
glyphname = G;
lastChange = "2021-10-09 01:58:11 +0000";
layers = (
{
anchors = (
{
name = bottom;
position = "{237, -40}";
},
{
name = top;
position = "{565, 530}";
}
);
background = {
paths = (
{
closed = 1;
nodes = (
"771 251 OFFCURVE",
"839 274 OFFCURVE",
"839 298 CURVE SMOOTH",
"839 315 OFFCURVE",
"802 316 OFFCURVE",
"791 316 CURVE SMOOTH",
"769 316 OFFCURVE",
"747 313 OFFCURVE",
"725 310 CURVE",
"702 327 OFFCURVE",
"668 332 OFFCURVE",
"639 332 CURVE SMOOTH",
"603 332 OFFCURVE",
"567 325 OFFCURVE",
"533 316 CURVE",
"535 321 OFFCURVE",
"538 326 OFFCURVE",
"538 331 CURVE SMOOTH",
"538 344 OFFCURVE",
"521 346 OFFCURVE",
"512 346 CURVE SMOOTH",
"507 346 OFFCURVE",
"491 346 OFFCURVE",
"491 339 CURVE SMOOTH",
"491 335 OFFCURVE",
"495 333 OFFCURVE",
"498 333 CURVE SMOOTH",
"502 333 OFFCURVE",
"504 334 OFFCURVE",
"507 334 CURVE SMOOTH",
"511 334 OFFCURVE",
"516 333 OFFCURVE",
"516 327 CURVE SMOOTH",
"516 322 OFFCURVE",
"510 314 OFFCURVE",
"507 309 CURVE",
"447 293 OFFCURVE",
"389 272 OFFCURVE",
"332 248 CURVE SMOOTH",
"305 237 OFFCURVE",
"272 224 OFFCURVE",
"248 210 CURVE SMOOTH",
"245 209 OFFCURVE",
"243 207 OFFCURVE",
"243 203 CURVE SMOOTH",
"243 199 OFFCURVE",
"247 195 OFFCURVE",
"251 195 CURVE SMOOTH",
"253 195 OFFCURVE",
"254 196 OFFCURVE",
"255 196 CURVE SMOOTH",
"330 233 OFFCURVE",
"408 264 OFFCURVE",
"488 288 CURVE",
"476 276 OFFCURVE",
"463 267 OFFCURVE",
"449 258 CURVE",
"393 243 OFFCURVE",
"334 227 OFFCURVE",
"283 199 CURVE SMOOTH",
"278 196 OFFCURVE",
"271 193 OFFCURVE",
"266 189 CURVE SMOOTH",
"261 184 OFFCURVE",
"258 181 OFFCURVE",
"258 173 CURVE SMOOTH",
"258 163 OFFCURVE",
"265 153 OFFCURVE",
"276 153 CURVE SMOOTH",
"278 153 LINE SMOOTH",
"340 153 OFFCURVE",
"414 203 OFFCURVE",
"462 242 CURVE",
"547 265 OFFCURVE",
"634 282 OFFCURVE",
"722 294 CURVE",
"731 285 OFFCURVE",
"736 273 OFFCURVE",
"736 259 CURVE",
"720 252 OFFCURVE",
"702 246 OFFCURVE",
"686 239 CURVE SMOOTH",
"682 237 OFFCURVE",
"679 234 OFFCURVE",
"679 230 CURVE SMOOTH",
"679 227 OFFCURVE",
"681 224 OFFCURVE",
"684 224 CURVE SMOOTH",
"689 224 OFFCURVE",
"727 237 OFFCURVE",
"734 239 CURVE",
"718 172 OFFCURVE",
"621 102 OFFCURVE",
"564 68 CURVE SMOOTH",
"478 16 OFFCURVE",
"361 -19 OFFCURVE",
"260 -19 CURVE SMOOTH",
"164 -19 OFFCURVE",
"62 16 OFFCURVE",
"62 128 CURVE SMOOTH",
"62 196 OFFCURVE",
"102 268 OFFCURVE",
"144 319 CURVE SMOOTH",
"246 444 OFFCURVE",
"372 508 OFFCURVE",
"533 513 CURVE SMOOTH",
"538 513 OFFCURVE",
"542 513 OFFCURVE",
"545 513 CURVE SMOOTH",
"595 513 OFFCURVE",
"701 504 OFFCURVE",
"742 473 CURVE",
"723 468 OFFCURVE",
"706 462 OFFCURVE",
"689 455 CURVE SMOOTH",
"673 449 OFFCURVE",
"617 420 OFFCURVE",
"617 402 CURVE SMOOTH",
"617 380 OFFCURVE",
"653 379 OFFCURVE",
"668 379 CURVE SMOOTH",
"681 379 OFFCURVE",
"753 383 OFFCURVE",
"753 397 CURVE SMOOTH",
"753 400 OFFCURVE",
"751 401 OFFCURVE",
"748 401 CURVE SMOOTH",
"747 401 OFFCURVE",
"747 401 OFFCURVE",
"746 401 CURVE SMOOTH",
"728 398 OFFCURVE",
"710 396 OFFCURVE",
"692 396 CURVE SMOOTH",
"685 396 OFFCURVE",
"644 397 OFFCURVE",
"644 406 CURVE SMOOTH",
"644 418 OFFCURVE",
"688 437 OFFCURVE",
"696 440 CURVE SMOOTH",
"734 457 OFFCURVE",
"775 469 OFFCURVE",
"815 475 CURVE SMOOTH",
"824 477 OFFCURVE",
"833 478 OFFCURVE",
"842 479 CURVE SMOOTH",
"847 480 OFFCURVE",
"851 479 OFFCURVE",
"856 480 CURVE SMOOTH",
"860 481 OFFCURVE",
"865 482 OFFCURVE",
"865 488 CURVE SMOOTH",
"865 492 OFFCURVE",
"861 493 OFFCURVE",
"858 493 CURVE SMOOTH",
"826 493 OFFCURVE",
"791 486 OFFCURVE",
"761 476 CURVE",
"745 499 OFFCURVE",
"666 516 OFFCURVE",
"641 521 CURVE SMOOTH",
"621 525 OFFCURVE",
"601 527 OFFCURVE",
"581 529 CURVE SMOOTH",
"569 529 OFFCURVE",
"558 530 OFFCURVE",
"546 530 CURVE SMOOTH",
"354 530 OFFCURVE",
"146 420 OFFCURVE",
"52 250 CURVE SMOOTH",
"33 216 OFFCURVE",
"20 174 OFFCURVE",
"20 135 CURVE SMOOTH",
"20 103 OFFCURVE",
"29 72 OFFCURVE",
"45 44 CURVE SMOOTH",
"83 -24 OFFCURVE",
"171 -40 OFFCURVE",
"243 -40 CURVE SMOOTH",
"351 -40 OFFCURVE",
"490 -3 OFFCURVE",
"582 54 CURVE SMOOTH",
"646 93 OFFCURVE",
"740 165 OFFCURVE",
"751 245 CURVE"
);
},
{
closed = 1;
nodes = (
"814 292 OFFCURVE",
"762 269 OFFCURVE",
"752 265 CURVE",
"751 276 OFFCURVE",
"747 287 OFFCURVE",
"740 296 CURVE",
"760 299 OFFCURVE",
"780 303 OFFCURVE",
"800 303 CURVE SMOOTH",
"803 303 OFFCURVE",
"805 302 OFFCURVE",
"808 302 CURVE SMOOTH",
"809 302 OFFCURVE",
"814 302 OFFCURVE",
"814 302 CURVE SMOOTH"
);
},
{
closed = 1;
nodes = (
"558 307 OFFCURVE",
"600 316 OFFCURVE",
"641 316 CURVE SMOOTH",
"661 316 OFFCURVE",
"682 314 OFFCURVE",
"701 307 CURVE",
"630 296 OFFCURVE",
"560 284 OFFCURVE",
"490 268 CURVE",
"500 277 OFFCURVE",
"509 287 OFFCURVE",
"518 296 CURVE"
);
},
{
closed = 1;
nodes = (
"310 194 OFFCURVE",
"382 218 OFFCURVE",
"395 223 CURVE",
"372 209 OFFCURVE",
"342 191 OFFCURVE",
"316 184 CURVE",
"314 184 OFFCURVE",
"313 183 OFFCURVE",
"311 183 CURVE",
"311 183 OFFCURVE",
"310 183 OFFCURVE",
"310 183 CURVE SMOOTH"
);
}
);
};
layerId = "95C423A7-595F-441F-915A-E5EF8B5EF971";
paths = (
{
closed = 1;
nodes = (
"351 -40 OFFCURVE",
"490 -3 OFFCURVE",
"582 54 CURVE SMOOTH",
"646 93 OFFCURVE",
"740 165 OFFCURVE",
"751 245 CURVE",
"771 251 OFFCURVE",
"839 274 OFFCURVE",
"839 298 CURVE SMOOTH",
"839 315 OFFCURVE",
"802 316 OFFCURVE",
"791 316 CURVE SMOOTH",
"769 316 OFFCURVE",
"747 313 OFFCURVE",
"725 310 CURVE",
"702 327 OFFCURVE",
"668 332 OFFCURVE",
"639 332 CURVE SMOOTH",
"603 332 OFFCURVE",
"567 325 OFFCURVE",
"533 316 CURVE",
"535 321 OFFCURVE",
"538 326 OFFCURVE",
"538 331 CURVE SMOOTH",
"538 344 OFFCURVE",
"521 346 OFFCURVE",
"512 346 CURVE SMOOTH",
"507 346 OFFCURVE",
"491 346 OFFCURVE",
"491 339 CURVE SMOOTH",
"491 335 OFFCURVE",
"495 333 OFFCURVE",
"498 333 CURVE SMOOTH",
"502 333 OFFCURVE",
"504 334 OFFCURVE",
"507 334 CURVE SMOOTH",
"511 334 OFFCURVE",
"516 333 OFFCURVE",
"516 327 CURVE SMOOTH",
"516 322 OFFCURVE",
"510 314 OFFCURVE",
"507 309 CURVE",
"447 293 OFFCURVE",
"389 272 OFFCURVE",
"332 248 CURVE SMOOTH",
"305 237 OFFCURVE",
"272 224 OFFCURVE",
"248 210 CURVE",
"245 209 OFFCURVE",
"243 207 OFFCURVE",
"243 203 CURVE SMOOTH",
"243 199 OFFCURVE",
"247 195 OFFCURVE",
"251 195 CURVE SMOOTH",
"253 195 OFFCURVE",
"254 196 OFFCURVE",
"255 196 CURVE SMOOTH",
"330 233 OFFCURVE",
"408 264 OFFCURVE",
"488 288 CURVE",
"476 276 OFFCURVE",
"463 267 OFFCURVE",
"449 258 CURVE",
"393 243 OFFCURVE",
"334 227 OFFCURVE",
"283 199 CURVE SMOOTH",
"278 196 OFFCURVE",
"271 193 OFFCURVE",
"266 189 CURVE SMOOTH",
"261 184 OFFCURVE",
"258 181 OFFCURVE",
"258 173 CURVE SMOOTH",
"258 163 OFFCURVE",
"265 153 OFFCURVE",
"276 153 CURVE SMOOTH",
"278 153 LINE SMOOTH",
"340 153 OFFCURVE",
"414 203 OFFCURVE",
"462 242 CURVE",
"547 265 OFFCURVE",
"634 282 OFFCURVE",
"722 294 CURVE",
"731 285 OFFCURVE",
"736 273 OFFCURVE",
"736 259 CURVE",
"720 252 OFFCURVE",
"702 246 OFFCURVE",
"686 239 CURVE SMOOTH",
"682 237 OFFCURVE",
"679 234 OFFCURVE",
"679 230 CURVE SMOOTH",
"679 227 OFFCURVE",
"681 224 OFFCURVE",
"684 224 CURVE SMOOTH",
"689 224 OFFCURVE",
"727 237 OFFCURVE",
"734 239 CURVE",
"718 172 OFFCURVE",
"621 102 OFFCURVE",
"564 68 CURVE SMOOTH",
"478 16 OFFCURVE",
"361 -19 OFFCURVE",
"260 -19 CURVE SMOOTH",
"164 -19 OFFCURVE",
"62 16 OFFCURVE",
"62 128 CURVE SMOOTH",
"62 196 OFFCURVE",
"102 268 OFFCURVE",
"144 319 CURVE SMOOTH",
"246 444 OFFCURVE",
"372 513 OFFCURVE",
"533 513 CURVE SMOOTH",
"545 513 LINE SMOOTH",
"595 513 OFFCURVE",
"701 504 OFFCURVE",
"742 473 CURVE",
"723 468 OFFCURVE",
"706 462 OFFCURVE",
"689 455 CURVE SMOOTH",
"673 449 OFFCURVE",
"617 420 OFFCURVE",
"617 402 CURVE SMOOTH",
"617 380 OFFCURVE",
"653 379 OFFCURVE",
"668 379 CURVE SMOOTH",
"681 379 OFFCURVE",
"753 383 OFFCURVE",
"753 397 CURVE SMOOTH",
"753 400 OFFCURVE",
"751 401 OFFCURVE",
"748 401 CURVE SMOOTH",
"746 401 LINE",
"728 398 OFFCURVE",
"710 396 OFFCURVE",
"692 396 CURVE SMOOTH",
"685 396 OFFCURVE",
"644 397 OFFCURVE",
"644 406 CURVE SMOOTH",
"644 418 OFFCURVE",
"688 437 OFFCURVE",
"696 440 CURVE",
"734 457 OFFCURVE",
"775 469 OFFCURVE",
"815 475 CURVE SMOOTH",
"827 478 OFFCURVE",
"838 479 OFFCURVE",
"849 479 CURVE SMOOTH",
"851 479 OFFCURVE",
"854 479 OFFCURVE",
"856 480 CURVE SMOOTH",
"860 481 OFFCURVE",
"865 482 OFFCURVE",
"865 488 CURVE SMOOTH",
"865 492 OFFCURVE",
"861 493 OFFCURVE",
"858 493 CURVE SMOOTH",
"826 493 OFFCURVE",
"791 486 OFFCURVE",
"761 476 CURVE",
"745 499 OFFCURVE",
"666 516 OFFCURVE",
"641 521 CURVE SMOOTH",
"621 525 OFFCURVE",
"601 527 OFFCURVE",
"581 529 CURVE SMOOTH",
"569 529 OFFCURVE",
"558 530 OFFCURVE",
"546 530 CURVE SMOOTH",
"354 530 OFFCURVE",
"146 420 OFFCURVE",
"52 250 CURVE SMOOTH",
"33 216 OFFCURVE",
"20 174 OFFCURVE",
"20 135 CURVE SMOOTH",
"20 103 OFFCURVE",
"29 72 OFFCURVE",
"45 44 CURVE SMOOTH",
"83 -24 OFFCURVE",
"171 -40 OFFCURVE",
"243 -40 CURVE SMOOTH"
);
},
{
closed = 1;
nodes = (
"311 183 OFFCURVE",
"310 183 OFFCURVE",
"310 183 CURVE SMOOTH",
"310 194 OFFCURVE",
"382 218 OFFCURVE",
"395 223 CURVE",
"372 209 OFFCURVE",
"342 191 OFFCURVE",
"316 184 CURVE",
"314 184 OFFCURVE",
"313 183 OFFCURVE",
"311 183 CURVE"
);
},
{
closed = 1;
nodes = (
"500 277 OFFCURVE",
"509 287 OFFCURVE",
"518 296 CURVE",
"558 307 OFFCURVE",
"600 316 OFFCURVE",
"641 316 CURVE SMOOTH",
"661 316 OFFCURVE",
"682 314 OFFCURVE",
"701 307 CURVE",
"630 296 OFFCURVE",
"560 284 OFFCURVE",
"490 268 CURVE"
);
},
{
closed = 1;
nodes = (
"751 276 OFFCURVE",
"747 287 OFFCURVE",
"740 296 CURVE",
"760 299 OFFCURVE",
"780 303 OFFCURVE",
"800 303 CURVE SMOOTH",
"803 303 OFFCURVE",
"805 302 OFFCURVE",
"808 302 CURVE SMOOTH",
"809 302 OFFCURVE",
"814 302 OFFCURVE",
"814 302 CURVE SMOOTH",
"814 292 OFFCURVE",
"762 269 OFFCURVE",
"752 265 CURVE"
);
}
);
width = 765;
}
);
note = G;
unicode = 0047;
},
{
glyphname = H;
lastChange = "2021-10-09 01:58:11 +0000";
layers = (
{
anchors = (
{
name = bottom;
position = "{590, 0}";
},
{
name = center;
position = "{590, 271}";
},
{
name = top;
position = "{1043, 542}";
},
{
name = topleft;
position = "{10, 542}";
}
);
background = {
paths = (
{
closed = 1;
nodes = (
"1382 576 OFFCURVE",
"1384 577 OFFCURVE",
"1385 577 CURVE",
"1415 585 OFFCURVE",
"1447 595 OFFCURVE",
"1473 611 CURVE SMOOTH",
"1493 623 OFFCURVE",
"1530 648 OFFCURVE",
"1530 674 CURVE SMOOTH",
"1530 701 OFFCURVE",
"1494 708 OFFCURVE",
"1474 708 CURVE SMOOTH",
"1456 708 OFFCURVE",
"1438 704 OFFCURVE",
"1421 698 CURVE SMOOTH",
"1257 638 OFFCURVE",
"1036 383 OFFCURVE",
"954 233 CURVE",
"926 235 OFFCURVE",
"897 236 OFFCURVE",
"868 236 CURVE SMOOTH",
"860 236 OFFCURVE",
"852 236 OFFCURVE",
"843 236 CURVE",
"866 265 OFFCURVE",
"884 301 OFFCURVE",
"884 339 CURVE SMOOTH",
"884 397 OFFCURVE",
"841 436 OFFCURVE",
"793 459 CURVE SMOOTH",
"734 486 OFFCURVE",
"662 494 OFFCURVE",
"598 494 CURVE SMOOTH",
"538 494 OFFCURVE",
"477 487 OFFCURVE",
"418 475 CURVE SMOOTH",
"292 450 OFFCURVE",
"89 380 OFFCURVE",
"23 261 CURVE SMOOTH",
"13 243 OFFCURVE",
"6 222 OFFCURVE",
"6 201 CURVE SMOOTH",
"6 160 OFFCURVE",
"34 133 OFFCURVE",
"68 113 CURVE",
"58 98 OFFCURVE",
"49 80 OFFCURVE",
"49 60 CURVE SMOOTH",
"49 -23 OFFCURVE",
"197 -34 OFFCURVE",
"256 -34 CURVE SMOOTH",
"280 -34 OFFCURVE",
"305 -33 OFFCURVE",
"329 -29 CURVE SMOOTH",
"497 -2 OFFCURVE",
"717 87 OFFCURVE",
"831 220 CURVE",
"845 220 OFFCURVE",
"859 221 OFFCURVE",
"874 221 CURVE SMOOTH",
"898 221 OFFCURVE",
"922 220 OFFCURVE",
"947 218 CURVE",
"926 176 OFFCURVE",
"905 127 OFFCURVE",
"905 81 CURVE SMOOTH",
"905 22 OFFCURVE",
"929 -22 OFFCURVE",
"993 -22 CURVE SMOOTH",
"1010 -22 OFFCURVE",
"1027 -19 OFFCURVE",
"1043 -14 CURVE SMOOTH",
"1094 0 OFFCURVE",
"1185 48 OFFCURVE",
"1214 94 CURVE SMOOTH",
"1215 96 OFFCURVE",
"1216 97 OFFCURVE",
"1216 98 CURVE SMOOTH",
"1216 103 OFFCURVE",
"1211 107 OFFCURVE",
"1207 107 CURVE SMOOTH",
"1204 107 OFFCURVE",
"1203 105 OFFCURVE",
"1201 103 CURVE",
"1164 55 OFFCURVE",
"1076 3 OFFCURVE",
"1015 3 CURVE SMOOTH",
"960 3 OFFCURVE",
"944 46 OFFCURVE",
"944 94 CURVE SMOOTH",
"944 136 OFFCURVE",
"960 178 OFFCURVE",
"978 214 CURVE",
"1002 211 OFFCURVE",
"1100 195 OFFCURVE",
"1100 162 CURVE SMOOTH",
"1100 149 OFFCURVE",
"1087 145 OFFCURVE",
"1087 137 CURVE SMOOTH",
"1087 134 OFFCURVE",
"1089 129 OFFCURVE",
"1093 129 CURVE SMOOTH",
"1103 129 OFFCURVE",
"1117 160 OFFCURVE",
"1117 171 CURVE SMOOTH",
"1117 219 OFFCURVE",
"1020 227 OFFCURVE",
"985 231 CURVE",
"1011 281 OFFCURVE",
"1043 328 OFFCURVE",
"1078 373 CURVE SMOOTH",
"1154 473 OFFCURVE",
"1307 636 OFFCURVE",
"1429 675 CURVE SMOOTH",
"1440 678 OFFCURVE",
"1453 680 OFFCURVE",
"1464 680 CURVE SMOOTH",
"1474 680 OFFCURVE",
"1498 678 OFFCURVE",
"1498 665 CURVE SMOOTH",
"1498 650 OFFCURVE",
"1471 633 OFFCURVE",
"1460 627 CURVE SMOOTH",
"1442 615 OFFCURVE",
"1423 605 OFFCURVE",
"1403 598 CURVE SMOOTH",
"1396 596 OFFCURVE",
"1389 594 OFFCURVE",
"1382 591 CURVE SMOOTH",
"1378 590 OFFCURVE",
"1373 588 OFFCURVE",
"1373 583 CURVE SMOOTH",
"1373 578 OFFCURVE",
"1377 576 OFFCURVE",
"1381 576 CURVE SMOOTH"
);
},
{
closed = 1;
nodes = (
"653 477 OFFCURVE",
"726 468 OFFCURVE",
"783 438 CURVE SMOOTH",
"818 418 OFFCURVE",
"848 390 OFFCURVE",
"848 347 CURVE SMOOTH",
"848 305 OFFCURVE",
"819 263 OFFCURVE",
"792 234 CURVE",
"706 228 OFFCURVE",
"493 203 OFFCURVE",
"418 166 CURVE SMOOTH",
"410 162 OFFCURVE",
"395 153 OFFCURVE",
"395 142 CURVE SMOOTH",
"395 122 OFFCURVE",
"431 116 OFFCURVE",
"445 116 CURVE SMOOTH",
"453 116 OFFCURVE",
"479 118 OFFCURVE",
"479 130 CURVE SMOOTH",
"479 133 OFFCURVE",
"477 136 OFFCURVE",
"474 136 CURVE SMOOTH",
"473 136 OFFCURVE",
"472 136 OFFCURVE",
"471 135 CURVE",
"462 133 OFFCURVE",
"454 131 OFFCURVE",
"445 131 CURVE SMOOTH",
"443 131 OFFCURVE",
"434 131 OFFCURVE",
"434 134 CURVE SMOOTH",
"434 137 OFFCURVE",
"448 146 OFFCURVE",
"449 147 CURVE",
"498 178 OFFCURVE",
"711 209 OFFCURVE",
"774 215 CURVE",
"651 94 OFFCURVE",
"427 -14 OFFCURVE",
"253 -14 CURVE SMOOTH",
"205 -14 OFFCURVE",
"81 -7 OFFCURVE",
"81 60 CURVE SMOOTH",
"81 74 OFFCURVE",
"86 89 OFFCURVE",
"93 102 CURVE",
"120 91 OFFCURVE",
"160 80 OFFCURVE",
"189 80 CURVE SMOOTH",
"193 80 OFFCURVE",
"196 83 OFFCURVE",
"196 87 CURVE SMOOTH",
"196 93 OFFCURVE",
"193 95 OFFCURVE",
"187 96 CURVE SMOOTH",
"179 97 OFFCURVE",
"169 97 OFFCURVE",
"161 98 CURVE SMOOTH",
"140 101 OFFCURVE",
"119 105 OFFCURVE",
"99 111 CURVE",
"120 143 OFFCURVE",
"149 159 OFFCURVE",
"183 176 CURVE SMOOTH",
"185 178 OFFCURVE",
"187 180 OFFCURVE",
"187 182 CURVE SMOOTH",
"187 187 OFFCURVE",
"183 191 OFFCURVE",
"178 191 CURVE SMOOTH",
"177 191 OFFCURVE",
"176 191 OFFCURVE",
"175 191 CURVE",
"142 176 OFFCURVE",
"101 153 OFFCURVE",
"77 125 CURVE",
"51 140 OFFCURVE",
"34 163 OFFCURVE",
"34 194 CURVE SMOOTH",
"34 214 OFFCURVE",
"42 236 OFFCURVE",
"51 254 CURVE SMOOTH",
"114 366 OFFCURVE",
"300 433 OFFCURVE",
"419 458 CURVE SMOOTH",
"475 470 OFFCURVE",
"532 477 OFFCURVE",
"589 477 CURVE SMOOTH"
);
}
);
};
layerId = "95C423A7-595F-441F-915A-E5EF8B5EF971";
paths = (
{
closed = 1;
nodes = (
"280 -34 OFFCURVE",
"305 -33 OFFCURVE",
"329 -29 CURVE SMOOTH",
"497 -2 OFFCURVE",
"717 87 OFFCURVE",
"831 220 CURVE",
"845 220 OFFCURVE",
"859 221 OFFCURVE",
"874 221 CURVE SMOOTH",
"898 221 OFFCURVE",
"922 220 OFFCURVE",
"947 218 CURVE",
"926 176 OFFCURVE",
"905 127 OFFCURVE",
"905 81 CURVE SMOOTH",
"905 22 OFFCURVE",
"929 -22 OFFCURVE",
"993 -22 CURVE SMOOTH",
"1010 -22 OFFCURVE",
"1027 -19 OFFCURVE",
"1043 -14 CURVE SMOOTH",
"1094 0 OFFCURVE",
"1185 48 OFFCURVE",
"1214 94 CURVE SMOOTH",
"1215 96 OFFCURVE",
"1216 97 OFFCURVE",
"1216 98 CURVE SMOOTH",
"1216 103 OFFCURVE",
"1211 107 OFFCURVE",
"1207 107 CURVE SMOOTH",
"1204 107 OFFCURVE",
"1203 105 OFFCURVE",
"1201 103 CURVE",
"1164 55 OFFCURVE",
"1076 3 OFFCURVE",
"1015 3 CURVE SMOOTH",
"960 3 OFFCURVE",
"944 46 OFFCURVE",
"944 94 CURVE SMOOTH",
"944 136 OFFCURVE",
"960 178 OFFCURVE",
"978 214 CURVE",
"1002 211 OFFCURVE",
"1100 195 OFFCURVE",
"1100 162 CURVE SMOOTH",
"1100 149 OFFCURVE",
"1087 145 OFFCURVE",
"1087 137 CURVE SMOOTH",
"1087 134 OFFCURVE",
"1089 129 OFFCURVE",
"1093 129 CURVE SMOOTH",
"1103 129 OFFCURVE",
"1117 160 OFFCURVE",
"1117 171 CURVE SMOOTH",
"1117 219 OFFCURVE",
"1020 227 OFFCURVE",
"985 231 CURVE",
"1011 281 OFFCURVE",
"1043 328 OFFCURVE",
"1078 373 CURVE SMOOTH",
"1154 473 OFFCURVE",
"1307 636 OFFCURVE",
"1429 675 CURVE SMOOTH",
"1440 678 OFFCURVE",
"1453 680 OFFCURVE",
"1464 680 CURVE SMOOTH",
"1474 680 OFFCURVE",
"1498 678 OFFCURVE",
"1498 665 CURVE SMOOTH",
"1498 650 OFFCURVE",
"1471 633 OFFCURVE",
"1460 627 CURVE SMOOTH",
"1442 615 OFFCURVE",
"1423 605 OFFCURVE",
"1403 598 CURVE SMOOTH",
"1396 596 OFFCURVE",
"1389 594 OFFCURVE",
"1382 591 CURVE SMOOTH",
"1378 590 OFFCURVE",
"1373 588 OFFCURVE",
"1373 583 CURVE SMOOTH",
"1373 578 OFFCURVE",
"1377 576 OFFCURVE",
"1381 576 CURVE",
"1385 577 LINE SMOOTH",
"1415 585 OFFCURVE",
"1447 595 OFFCURVE",
"1473 611 CURVE SMOOTH",
"1493 623 OFFCURVE",
"1530 648 OFFCURVE",
"1530 674 CURVE SMOOTH",
"1530 701 OFFCURVE",
"1494 708 OFFCURVE",
"1474 708 CURVE SMOOTH",
"1456 708 OFFCURVE",
"1438 704 OFFCURVE",
"1421 698 CURVE SMOOTH",
"1257 638 OFFCURVE",
"1036 383 OFFCURVE",
"954 233 CURVE",
"926 235 OFFCURVE",
"897 236 OFFCURVE",
"868 236 CURVE SMOOTH",
"860 236 OFFCURVE",
"852 236 OFFCURVE",
"843 236 CURVE",
"866 265 OFFCURVE",
"884 301 OFFCURVE",
"884 339 CURVE SMOOTH",
"884 397 OFFCURVE",
"841 436 OFFCURVE",
"793 459 CURVE SMOOTH",
"734 486 OFFCURVE",
"662 494 OFFCURVE",
"598 494 CURVE SMOOTH",
"538 494 OFFCURVE",
"477 487 OFFCURVE",
"418 475 CURVE SMOOTH",
"292 450 OFFCURVE",
"89 380 OFFCURVE",
"23 261 CURVE SMOOTH",
"13 243 OFFCURVE",
"6 222 OFFCURVE",
"6 201 CURVE SMOOTH",
"6 160 OFFCURVE",
"34 133 OFFCURVE",
"68 113 CURVE",
"58 98 OFFCURVE",
"49 80 OFFCURVE",
"49 60 CURVE SMOOTH",
"49 -23 OFFCURVE",
"197 -34 OFFCURVE",
"256 -34 CURVE SMOOTH"
);
},
{
closed = 1;
nodes = (
"205 -14 OFFCURVE",
"81 -7 OFFCURVE",
"81 60 CURVE SMOOTH",
"81 74 OFFCURVE",
"86 89 OFFCURVE",
"93 102 CURVE",
"120 91 OFFCURVE",
"160 80 OFFCURVE",
"189 80 CURVE SMOOTH",
"193 80 OFFCURVE",
"196 83 OFFCURVE",
"196 87 CURVE SMOOTH",
"196 93 OFFCURVE",
"193 95 OFFCURVE",
"187 96 CURVE SMOOTH",
"179 97 OFFCURVE",
"169 97 OFFCURVE",
"161 98 CURVE SMOOTH",
"140 101 OFFCURVE",
"119 105 OFFCURVE",
"99 111 CURVE",
"120 143 OFFCURVE",
"149 159 OFFCURVE",
"183 176 CURVE SMOOTH",
"185 178 OFFCURVE",
"187 180 OFFCURVE",
"187 182 CURVE SMOOTH",
"187 187 OFFCURVE",
"183 191 OFFCURVE",
"178 191 CURVE SMOOTH",
"177 191 OFFCURVE",
"176 191 OFFCURVE",
"175 191 CURVE",
"142 176 OFFCURVE",
"101 153 OFFCURVE",
"77 125 CURVE",
"51 140 OFFCURVE",
"34 163 OFFCURVE",
"34 194 CURVE SMOOTH",
"34 214 OFFCURVE",
"42 236 OFFCURVE",
"51 254 CURVE SMOOTH",
"114 366 OFFCURVE",
"300 433 OFFCURVE",
"419 458 CURVE SMOOTH",
"475 470 OFFCURVE",
"532 477 OFFCURVE",
"589 477 CURVE SMOOTH",
"653 477 OFFCURVE",
"726 468 OFFCURVE",
"783 438 CURVE SMOOTH",
"818 418 OFFCURVE",
"848 390 OFFCURVE",
"848 347 CURVE SMOOTH",
"848 305 OFFCURVE",
"819 263 OFFCURVE",
"792 234 CURVE",
"706 228 OFFCURVE",
"493 203 OFFCURVE",
"418 166 CURVE SMOOTH",
"410 162 OFFCURVE",
"395 153 OFFCURVE",
"395 142 CURVE SMOOTH",
"395 122 OFFCURVE",
"431 116 OFFCURVE",
"445 116 CURVE SMOOTH",
"453 116 OFFCURVE",
"479 118 OFFCURVE",
"479 130 CURVE SMOOTH",
"479 133 OFFCURVE",
"477 136 OFFCURVE",
"474 136 CURVE SMOOTH",
"473 136 OFFCURVE",
"472 136 OFFCURVE",
"471 135 CURVE",
"462 133 OFFCURVE",
"454 131 OFFCURVE",
"445 131 CURVE SMOOTH",
"443 131 OFFCURVE",
"434 131 OFFCURVE",
"434 134 CURVE SMOOTH",
"434 137 OFFCURVE",
"448 146 OFFCURVE",
"449 147 CURVE SMOOTH",
"498 178 OFFCURVE",
"711 209 OFFCURVE",
"774 215 CURVE",
"651 94 OFFCURVE",
"427 -14 OFFCURVE",
"253 -14 CURVE SMOOTH"
);
}
);
width = 1180;
}
);
note = H;
unicode = 0048;
},
{
glyphname = I;
lastChange = "2021-10-09 01:58:11 +0000";
layers = (
{
anchors = (
{
name = bottom;
position = "{88, -63}";
},
{
name = ogonek;
position = "{113, -55}";
},
{
name = top;
position = "{513, 629}";
},
{
name = topleft;
position = "{10, 542}";
}
);
background = {
paths = (
{
closed = 1;
nodes = (
"125 -64 OFFCURVE",
"139 -63 OFFCURVE",
"152 -60 CURVE SMOOTH",
"187 -52 OFFCURVE",
"219 -40 OFFCURVE",
"250 -21 CURVE SMOOTH",
"389 62 OFFCURVE",
"506 259 OFFCURVE",
"555 411 CURVE SMOOTH",
"563 436 OFFCURVE",
"567 462 OFFCURVE",
"567 487 CURVE SMOOTH",
"567 553 OFFCURVE",
"539 629 OFFCURVE",
"462 629 CURVE SMOOTH",
"407 629 OFFCURVE",
"348 590 OFFCURVE",
"307 557 CURVE SMOOTH",
"236 501 OFFCURVE",
"164 413 OFFCURVE",
"147 322 CURVE SMOOTH",
"145 311 OFFCURVE",
"143 301 OFFCURVE",
"143 291 CURVE SMOOTH",
"143 247 OFFCURVE",
"167 200 OFFCURVE",
"216 200 CURVE SMOOTH",
"304 200 OFFCURVE",
"394 322 OFFCURVE",
"414 400 CURVE SMOOTH",
"416 409 OFFCURVE",
"418 420 OFFCURVE",
"418 429 CURVE SMOOTH",
"418 446 OFFCURVE",
"412 461 OFFCURVE",
"393 461 CURVE SMOOTH",
"373 461 OFFCURVE",
"351 443 OFFCURVE",
"337 429 CURVE SMOOTH",
"336 428 OFFCURVE",
"334 426 OFFCURVE",
"334 424 CURVE SMOOTH",
"334 420 OFFCURVE",
"338 416 OFFCURVE",
"343 416 CURVE SMOOTH",
"350 416 OFFCURVE",
"367 442 OFFCURVE",
"385 442 CURVE SMOOTH",
"392 442 OFFCURVE",
"393 431 OFFCURVE",
"393 428 CURVE SMOOTH",
"393 418 OFFCURVE",
"390 408 OFFCURVE",
"387 398 CURVE SMOOTH",
"369 325 OFFCURVE",
"303 226 OFFCURVE",
"223 215 CURVE SMOOTH",
"221 215 OFFCURVE",
"219 215 OFFCURVE",
"217 215 CURVE SMOOTH",
"182 215 OFFCURVE",
"171 251 OFFCURVE",
"171 280 CURVE SMOOTH",
"171 381 OFFCURVE",
"256 486 OFFCURVE",
"330 545 CURVE SMOOTH",
"365 573 OFFCURVE",
"420 611 OFFCURVE",
"467 611 CURVE SMOOTH",
"522 611 OFFCURVE",
"538 557 OFFCURVE",
"538 511 CURVE SMOOTH",
"538 481 OFFCURVE",
"533 451 OFFCURVE",
"523 422 CURVE SMOOTH",
"474 271 OFFCURVE",
"376 66 OFFCURVE",
"232 -12 CURVE SMOOTH",
"208 -25 OFFCURVE",
"183 -33 OFFCURVE",
"157 -39 CURVE SMOOTH",
"151 -41 OFFCURVE",
"144 -41 OFFCURVE",
"138 -41 CURVE SMOOTH",
"95 -41 OFFCURVE",
"62 -11 OFFCURVE",
"62 33 CURVE SMOOTH",
"62 84 OFFCURVE",
"107 122 OFFCURVE",
"107 128 CURVE SMOOTH",
"107 132 OFFCURVE",
"103 136 OFFCURVE",
"99 136 CURVE SMOOTH",
"96 136 OFFCURVE",
"94 134 OFFCURVE",
"93 133 CURVE SMOOTH",
"62 102 OFFCURVE",
"33 53 OFFCURVE",
"33 7 CURVE SMOOTH",
"33 -42 OFFCURVE",
"67 -64 OFFCURVE",
"112 -64 CURVE SMOOTH"
);
}
);
};
layerId = "95C423A7-595F-441F-915A-E5EF8B5EF971";
paths = (
{
closed = 1;
nodes = (
"125 -64 OFFCURVE",
"139 -63 OFFCURVE",
"152 -60 CURVE SMOOTH",
"187 -52 OFFCURVE",
"219 -40 OFFCURVE",
"250 -21 CURVE SMOOTH",
"389 62 OFFCURVE",
"506 259 OFFCURVE",
"555 411 CURVE SMOOTH",
"563 436 OFFCURVE",
"567 462 OFFCURVE",
"567 487 CURVE SMOOTH",
"567 553 OFFCURVE",
"539 629 OFFCURVE",
"462 629 CURVE SMOOTH",
"407 629 OFFCURVE",
"348 590 OFFCURVE",
"307 557 CURVE SMOOTH",
"236 501 OFFCURVE",
"164 413 OFFCURVE",
"147 322 CURVE SMOOTH",
"145 311 OFFCURVE",
"143 301 OFFCURVE",
"143 291 CURVE SMOOTH",
"143 247 OFFCURVE",
"167 200 OFFCURVE",
"216 200 CURVE SMOOTH",
"304 200 OFFCURVE",
"394 322 OFFCURVE",
"414 400 CURVE SMOOTH",
"416 409 OFFCURVE",
"418 420 OFFCURVE",
"418 429 CURVE SMOOTH",
"418 446 OFFCURVE",
"412 461 OFFCURVE",
"393 461 CURVE SMOOTH",
"373 461 OFFCURVE",
"351 443 OFFCURVE",
"337 429 CURVE SMOOTH",
"336 428 OFFCURVE",
"334 426 OFFCURVE",
"334 424 CURVE SMOOTH",
"334 420 OFFCURVE",
"338 416 OFFCURVE",
"343 416 CURVE SMOOTH",
"350 416 OFFCURVE",
"367 442 OFFCURVE",
"385 442 CURVE SMOOTH",
"392 442 OFFCURVE",
"393 431 OFFCURVE",
"393 428 CURVE SMOOTH",
"393 418 OFFCURVE",
"390 408 OFFCURVE",
"387 398 CURVE SMOOTH",
"369 325 OFFCURVE",
"303 226 OFFCURVE",
"223 215 CURVE",
"217 215 LINE SMOOTH",
"182 215 OFFCURVE",
"171 251 OFFCURVE",
"171 280 CURVE SMOOTH",
"171 381 OFFCURVE",
"256 486 OFFCURVE",
"330 545 CURVE SMOOTH",
"365 573 OFFCURVE",
"420 611 OFFCURVE",
"467 611 CURVE SMOOTH",
"522 611 OFFCURVE",
"538 557 OFFCURVE",
"538 511 CURVE SMOOTH",
"538 481 OFFCURVE",
"533 451 OFFCURVE",
"523 422 CURVE SMOOTH",
"474 271 OFFCURVE",
"376 66 OFFCURVE",
"232 -12 CURVE SMOOTH",
"208 -25 OFFCURVE",
"183 -33 OFFCURVE",
"157 -39 CURVE",
"151 -41 OFFCURVE",
"144 -41 OFFCURVE",
"138 -41 CURVE SMOOTH",
"95 -41 OFFCURVE",
"62 -11 OFFCURVE",
"62 33 CURVE SMOOTH",
"62 84 OFFCURVE",
"107 122 OFFCURVE",
"107 128 CURVE SMOOTH",
"107 132 OFFCURVE",
"103 136 OFFCURVE",
"99 136 CURVE SMOOTH",
"96 136 OFFCURVE",
"94 134 OFFCURVE",
"93 133 CURVE SMOOTH",
"62 102 OFFCURVE",
"33 53 OFFCURVE",
"33 7 CURVE SMOOTH",
"33 -42 OFFCURVE",
"67 -64 OFFCURVE",
"112 -64 CURVE SMOOTH"
);
}
);
width = 565;
}
);
note = I;
unicode = 0049;
},
{
glyphname = Iacute;
lastChange = "2021-10-09 01:58:11 +0000";
layers = (
{
background = {
paths = (
{
closed = 1;
nodes = (
"468 618 OFFCURVE",
"470 618 OFFCURVE",
"471 620 CURVE",
"501 637 OFFCURVE",
"531 653 OFFCURVE",
"562 669 CURVE SMOOTH",
"569 673 OFFCURVE",
"583 681 OFFCURVE",
"583 691 CURVE SMOOTH",
"583 699 OFFCURVE",
"575 702 OFFCURVE",
"569 702 CURVE SMOOTH",
"557 702 OFFCURVE",
"547 695 OFFCURVE",
"539 688 CURVE SMOOTH",
"528 678 OFFCURVE",
"462 633 OFFCURVE",
"462 622 CURVE SMOOTH",
"462 620 OFFCURVE",
"463 618 OFFCURVE",
"465 618 CURVE SMOOTH"
);
},
{
closed = 1;
nodes = (
"124 -85 OFFCURVE",
"138 -84 OFFCURVE",
"151 -81 CURVE SMOOTH",
"186 -73 OFFCURVE",
"218 -61 OFFCURVE",
"249 -42 CURVE SMOOTH",
"388 41 OFFCURVE",
"505 238 OFFCURVE",
"554 389 CURVE SMOOTH",
"562 414 OFFCURVE",
"566 440 OFFCURVE",
"566 466 CURVE SMOOTH",
"566 532 OFFCURVE",
"538 607 OFFCURVE",
"461 607 CURVE SMOOTH",
"406 607 OFFCURVE",
"347 569 OFFCURVE",
"305 536 CURVE SMOOTH",
"234 480 OFFCURVE",
"163 391 OFFCURVE",
"145 300 CURVE SMOOTH",
"143 290 OFFCURVE",
"142 280 OFFCURVE",
"142 269 CURVE SMOOTH",
"142 225 OFFCURVE",
"165 178 OFFCURVE",
"215 178 CURVE SMOOTH",
"303 178 OFFCURVE",
"393 301 OFFCURVE",
"413 378 CURVE SMOOTH",
"414 388 OFFCURVE",
"416 398 OFFCURVE",
"416 408 CURVE SMOOTH",
"416 425 OFFCURVE",
"411 440 OFFCURVE",
"392 440 CURVE SMOOTH",
"371 440 OFFCURVE",
"349 422 OFFCURVE",
"336 408 CURVE SMOOTH",
"334 407 OFFCURVE",
"333 405 OFFCURVE",
"333 403 CURVE SMOOTH",
"333 398 OFFCURVE",
"337 395 OFFCURVE",
"342 395 CURVE SMOOTH",
"349 395 OFFCURVE",
"366 421 OFFCURVE",
"384 421 CURVE SMOOTH",
"391 421 OFFCURVE",
"391 410 OFFCURVE",
"391 407 CURVE SMOOTH",
"391 396 OFFCURVE",
"389 387 OFFCURVE",
"386 377 CURVE SMOOTH",
"368 303 OFFCURVE",
"302 205 OFFCURVE",
"222 194 CURVE SMOOTH",
"220 194 OFFCURVE",
"218 194 OFFCURVE",
"216 194 CURVE SMOOTH",
"180 194 OFFCURVE",
"170 229 OFFCURVE",
"170 259 CURVE SMOOTH",
"170 360 OFFCURVE",
"254 465 OFFCURVE",
"329 524 CURVE SMOOTH",
"363 552 OFFCURVE",
"418 589 OFFCURVE",
"465 589 CURVE SMOOTH",
"521 589 OFFCURVE",
"537 536 OFFCURVE",
"537 489 CURVE SMOOTH",
"537 460 OFFCURVE",
"531 429 OFFCURVE",
"522 401 CURVE SMOOTH",
"473 250 OFFCURVE",
"375 45 OFFCURVE",
"231 -33 CURVE SMOOTH",
"207 -46 OFFCURVE",
"182 -54 OFFCURVE",
"156 -60 CURVE SMOOTH",
"149 -62 OFFCURVE",
"143 -62 OFFCURVE",
"136 -62 CURVE SMOOTH",
"94 -62 OFFCURVE",
"60 -32 OFFCURVE",
"60 12 CURVE SMOOTH",
"60 63 OFFCURVE",
"105 100 OFFCURVE",
"105 107 CURVE SMOOTH",
"105 111 OFFCURVE",
"102 114 OFFCURVE",
"98 114 CURVE SMOOTH",
"95 114 OFFCURVE",
"93 113 OFFCURVE",
"92 112 CURVE SMOOTH",
"61 80 OFFCURVE",
"31 31 OFFCURVE",
"31 -15 CURVE SMOOTH",
"31 -63 OFFCURVE",
"65 -85 OFFCURVE",
"111 -85 CURVE SMOOTH"
);
}
);
};
components = (
{
name = I;
},
{
name = acutecomb.case;
transform = "{1, 0, 0, 1, 490, 409}";
}
);
layerId = "95C423A7-595F-441F-915A-E5EF8B5EF971";
width = 565;
}
);
note = Iacute;
unicode = 00CD;
},
{
glyphname = Icircumflex;
lastChange = "2021-10-09 01:58:11 +0000";
layers = (
{
background = {
paths = (
{
closed = 1;
nodes = (
"602 633 LINE",
"574 654 OFFCURVE",
"545 676 OFFCURVE",
"522 703 CURVE",
"518 704 LINE",
"507 703 OFFCURVE",
"430 640 OFFCURVE",
"430 631 CURVE SMOOTH",
"430 629 OFFCURVE",
"433 625 OFFCURVE",
"435 625 CURVE SMOOTH",
"442 625 OFFCURVE",
"500 671 OFFCURVE",
"509 679 CURVE",
"522 665 OFFCURVE",
"585 623 OFFCURVE",
"603 622 CURVE",
"605 627 LINE"
);
},
{
closed = 1;
nodes = (
"123 -77 OFFCURVE",
"137 -76 OFFCURVE",
"150 -73 CURVE SMOOTH",
"185 -65 OFFCURVE",
"217 -53 OFFCURVE",
"248 -34 CURVE SMOOTH",
"387 49 OFFCURVE",
"504 246 OFFCURVE",
"553 398 CURVE SMOOTH",
"562 423 OFFCURVE",
"565 449 OFFCURVE",
"565 474 CURVE SMOOTH",
"565 540 OFFCURVE",
"537 616 OFFCURVE",
"460 616 CURVE SMOOTH",
"405 616 OFFCURVE",
"346 577 OFFCURVE",
"305 544 CURVE SMOOTH",
"234 488 OFFCURVE",
"162 400 OFFCURVE",
"145 309 CURVE SMOOTH",
"143 298 OFFCURVE",
"142 288 OFFCURVE",
"142 278 CURVE SMOOTH",
"142 234 OFFCURVE",
"165 187 OFFCURVE",
"214 187 CURVE SMOOTH",
"302 187 OFFCURVE",
"392 309 OFFCURVE",
"412 387 CURVE SMOOTH",
"414 396 OFFCURVE",
"416 407 OFFCURVE",
"416 416 CURVE SMOOTH",
"416 433 OFFCURVE",
"410 448 OFFCURVE",
"391 448 CURVE SMOOTH",
"371 448 OFFCURVE",
"349 431 OFFCURVE",
"335 416 CURVE SMOOTH",
"334 415 OFFCURVE",
"333 413 OFFCURVE",
"333 411 CURVE SMOOTH",
"333 407 OFFCURVE",
"336 403 OFFCURVE",
"341 403 CURVE SMOOTH",
"348 403 OFFCURVE",
"365 429 OFFCURVE",
"383 429 CURVE SMOOTH",
"390 429 OFFCURVE",
"391 418 OFFCURVE",
"391 415 CURVE SMOOTH",
"391 405 OFFCURVE",
"388 395 OFFCURVE",
"385 385 CURVE SMOOTH",
"367 312 OFFCURVE",
"302 213 OFFCURVE",
"221 202 CURVE SMOOTH",
"219 202 OFFCURVE",
"217 202 OFFCURVE",
"215 202 CURVE SMOOTH",
"180 202 OFFCURVE",
"169 238 OFFCURVE",
"169 267 CURVE SMOOTH",
"169 368 OFFCURVE",
"254 473 OFFCURVE",
"328 533 CURVE SMOOTH",
"363 560 OFFCURVE",
"418 598 OFFCURVE",
"465 598 CURVE SMOOTH",
"520 598 OFFCURVE",
"536 544 OFFCURVE",
"536 498 CURVE SMOOTH",
"536 468 OFFCURVE",
"531 438 OFFCURVE",
"522 409 CURVE SMOOTH",
"473 258 OFFCURVE",
"374 53 OFFCURVE",
"230 -25 CURVE SMOOTH",
"206 -38 OFFCURVE",
"182 -46 OFFCURVE",
"155 -52 CURVE SMOOTH",
"149 -54 OFFCURVE",
"142 -54 OFFCURVE",
"136 -54 CURVE SMOOTH",
"93 -54 OFFCURVE",
"60 -23 OFFCURVE",
"60 20 CURVE SMOOTH",
"60 71 OFFCURVE",
"105 109 OFFCURVE",
"105 115 CURVE SMOOTH",
"105 119 OFFCURVE",
"101 123 OFFCURVE",
"97 123 CURVE SMOOTH",
"94 123 OFFCURVE",
"93 122 OFFCURVE",
"91 120 CURVE SMOOTH",
"60 89 OFFCURVE",
"31 40 OFFCURVE",
"31 -7 CURVE SMOOTH",
"31 -55 OFFCURVE",
"65 -77 OFFCURVE",
"110 -77 CURVE SMOOTH"
);
}
);
};
components = (
{
name = I;
},
{
name = circumflexcomb.case;
transform = "{1, 0, 0, 1, 447, 409}";
}
);
layerId = "95C423A7-595F-441F-915A-E5EF8B5EF971";
width = 565;
}
);
note = Icircumflex;
unicode = 00CE;
},
{
glyphname = Idieresis;
lastChange = "2021-10-09 01:58:11 +0000";
layers = (
{
background = {
paths = (
{
closed = 1;
nodes = (
"491 703 LINE SMOOTH",
"491 704 OFFCURVE",
"490 704 OFFCURVE",
"489 704 CURVE SMOOTH",
"477 704 OFFCURVE",
"440 681 OFFCURVE",
"440 667 CURVE SMOOTH",
"440 661 OFFCURVE",
"447 648 OFFCURVE",
"454 648 CURVE SMOOTH",
"464 648 OFFCURVE",
"471 662 OFFCURVE",
"473 669 CURVE SMOOTH",
"475 677 OFFCURVE",
"478 685 OFFCURVE",
"482 691 CURVE SMOOTH",
"483 693 OFFCURVE",
"491 702 OFFCURVE",
"491 702 CURVE SMOOTH",
"491 703 LINE"
);
},
{
closed = 1;
nodes = (
"569 703 LINE SMOOTH",
"569 704 OFFCURVE",
"568 704 OFFCURVE",
"567 704 CURVE SMOOTH",
"555 704 OFFCURVE",
"518 681 OFFCURVE",
"518 667 CURVE SMOOTH",
"518 661 OFFCURVE",
"525 648 OFFCURVE",
"532 648 CURVE SMOOTH",
"542 648 OFFCURVE",
"549 662 OFFCURVE",
"551 669 CURVE SMOOTH",
"553 677 OFFCURVE",
"556 685 OFFCURVE",
"560 691 CURVE SMOOTH",
"562 693 OFFCURVE",
"569 702 OFFCURVE",
"569 702 CURVE SMOOTH",
"569 703 LINE"
);
},
{
closed = 1;
nodes = (
"125 -64 OFFCURVE",
"139 -63 OFFCURVE",
"152 -60 CURVE SMOOTH",
"187 -52 OFFCURVE",
"219 -40 OFFCURVE",
"250 -21 CURVE SMOOTH",
"389 62 OFFCURVE",
"506 259 OFFCURVE",
"555 411 CURVE SMOOTH",
"563 436 OFFCURVE",
"567 462 OFFCURVE",
"567 487 CURVE SMOOTH",
"567 553 OFFCURVE",
"539 629 OFFCURVE",
"462 629 CURVE SMOOTH",
"407 629 OFFCURVE",
"348 590 OFFCURVE",
"307 557 CURVE SMOOTH",
"236 501 OFFCURVE",
"164 413 OFFCURVE",
"147 322 CURVE SMOOTH",
"145 311 OFFCURVE",
"143 301 OFFCURVE",
"143 291 CURVE SMOOTH",
"143 247 OFFCURVE",
"167 200 OFFCURVE",
"216 200 CURVE SMOOTH",
"304 200 OFFCURVE",
"394 322 OFFCURVE",
"414 400 CURVE SMOOTH",
"416 409 OFFCURVE",
"418 420 OFFCURVE",
"418 429 CURVE SMOOTH",
"418 446 OFFCURVE",
"412 461 OFFCURVE",
"393 461 CURVE SMOOTH",
"373 461 OFFCURVE",
"351 443 OFFCURVE",
"337 429 CURVE SMOOTH",
"336 428 OFFCURVE",
"334 426 OFFCURVE",
"334 424 CURVE SMOOTH",
"334 420 OFFCURVE",
"338 416 OFFCURVE",
"343 416 CURVE SMOOTH",
"350 416 OFFCURVE",
"367 442 OFFCURVE",
"385 442 CURVE SMOOTH",
"392 442 OFFCURVE",
"393 431 OFFCURVE",
"393 428 CURVE SMOOTH",
"393 418 OFFCURVE",
"390 408 OFFCURVE",
"387 398 CURVE SMOOTH",
"369 325 OFFCURVE",
"303 226 OFFCURVE",
"223 215 CURVE SMOOTH",
"221 215 OFFCURVE",
"219 215 OFFCURVE",
"217 215 CURVE SMOOTH",
"182 215 OFFCURVE",
"171 251 OFFCURVE",
"171 280 CURVE SMOOTH",
"171 381 OFFCURVE",
"256 486 OFFCURVE",
"330 545 CURVE SMOOTH",
"365 573 OFFCURVE",
"420 611 OFFCURVE",
"467 611 CURVE SMOOTH",
"522 611 OFFCURVE",
"538 557 OFFCURVE",
"538 511 CURVE SMOOTH",
"538 481 OFFCURVE",
"533 451 OFFCURVE",
"523 422 CURVE SMOOTH",
"474 271 OFFCURVE",
"376 66 OFFCURVE",
"232 -12 CURVE SMOOTH",
"208 -25 OFFCURVE",
"183 -33 OFFCURVE",
"157 -39 CURVE SMOOTH",
"151 -41 OFFCURVE",
"144 -41 OFFCURVE",
"138 -41 CURVE SMOOTH",
"95 -41 OFFCURVE",
"62 -11 OFFCURVE",
"62 33 CURVE SMOOTH",
"62 84 OFFCURVE",
"107 122 OFFCURVE",
"107 128 CURVE SMOOTH",
"107 132 OFFCURVE",
"103 136 OFFCURVE",
"99 136 CURVE SMOOTH",
"96 136 OFFCURVE",
"94 134 OFFCURVE",
"93 133 CURVE SMOOTH",
"62 102 OFFCURVE",
"33 53 OFFCURVE",
"33 7 CURVE SMOOTH",
"33 -42 OFFCURVE",
"67 -64 OFFCURVE",
"112 -64 CURVE SMOOTH"
);
}
);
};
components = (
{
name = I;
},
{
name = dieresiscomb.case;
transform = "{1, 0, 0, 1, 466, 409}";
}
);
layerId = "95C423A7-595F-441F-915A-E5EF8B5EF971";
width = 565;
}
);
note = Idieresis;
unicode = 00CF;
},
{
glyphname = Igrave;
lastChange = "2021-10-09 01:58:11 +0000";
layers = (
{
background = {
paths = (
{
closed = 1;
nodes = (
"560 616 OFFCURVE",
"561 618 OFFCURVE",
"561 620 CURVE SMOOTH",
"561 631 OFFCURVE",
"494 676 OFFCURVE",
"483 686 CURVE SMOOTH",
"476 693 OFFCURVE",
"465 700 OFFCURVE",
"454 700 CURVE SMOOTH",
"448 700 OFFCURVE",
"439 696 OFFCURVE",
"439 689 CURVE SMOOTH",
"439 679 OFFCURVE",
"453 671 OFFCURVE",
"461 667 CURVE SMOOTH",
"491 651 OFFCURVE",
"522 635 OFFCURVE",
"551 618 CURVE SMOOTH",
"553 616 OFFCURVE",
"555 616 OFFCURVE",
"557 616 CURVE SMOOTH"
);
},
{
closed = 1;
nodes = (
"123 -75 OFFCURVE",
"137 -74 OFFCURVE",
"150 -71 CURVE SMOOTH",
"185 -63 OFFCURVE",
"217 -51 OFFCURVE",
"248 -32 CURVE SMOOTH",
"387 51 OFFCURVE",
"504 248 OFFCURVE",
"553 400 CURVE SMOOTH",
"562 425 OFFCURVE",
"565 451 OFFCURVE",
"565 476 CURVE SMOOTH",
"565 542 OFFCURVE",
"537 618 OFFCURVE",
"460 618 CURVE SMOOTH",
"405 618 OFFCURVE",
"346 579 OFFCURVE",
"305 546 CURVE SMOOTH",
"234 490 OFFCURVE",
"162 402 OFFCURVE",
"145 311 CURVE SMOOTH",
"143 300 OFFCURVE",
"142 290 OFFCURVE",
"142 280 CURVE SMOOTH",
"142 236 OFFCURVE",
"165 189 OFFCURVE",
"214 189 CURVE SMOOTH",
"302 189 OFFCURVE",
"392 311 OFFCURVE",
"412 389 CURVE SMOOTH",
"414 398 OFFCURVE",
"416 409 OFFCURVE",
"416 418 CURVE SMOOTH",
"416 435 OFFCURVE",
"410 450 OFFCURVE",
"391 450 CURVE SMOOTH",
"371 450 OFFCURVE",
"349 433 OFFCURVE",
"335 418 CURVE SMOOTH",
"334 417 OFFCURVE",
"333 415 OFFCURVE",
"333 413 CURVE SMOOTH",
"333 409 OFFCURVE",
"336 405 OFFCURVE",
"341 405 CURVE SMOOTH",
"348 405 OFFCURVE",
"365 431 OFFCURVE",
"383 431 CURVE SMOOTH",
"390 431 OFFCURVE",
"391 420 OFFCURVE",
"391 417 CURVE SMOOTH",
"391 407 OFFCURVE",
"388 397 OFFCURVE",
"385 387 CURVE SMOOTH",
"367 314 OFFCURVE",
"302 215 OFFCURVE",
"221 204 CURVE SMOOTH",
"219 204 OFFCURVE",
"217 204 OFFCURVE",
"215 204 CURVE SMOOTH",
"180 204 OFFCURVE",
"169 240 OFFCURVE",
"169 269 CURVE SMOOTH",
"169 370 OFFCURVE",
"254 475 OFFCURVE",
"328 534 CURVE SMOOTH",
"363 562 OFFCURVE",
"418 600 OFFCURVE",
"465 600 CURVE SMOOTH",
"520 600 OFFCURVE",
"536 546 OFFCURVE",
"536 500 CURVE SMOOTH",
"536 470 OFFCURVE",
"531 440 OFFCURVE",
"522 411 CURVE SMOOTH",
"473 260 OFFCURVE",
"374 55 OFFCURVE",
"230 -23 CURVE SMOOTH",
"206 -36 OFFCURVE",
"182 -44 OFFCURVE",
"155 -50 CURVE SMOOTH",
"149 -52 OFFCURVE",
"142 -52 OFFCURVE",
"136 -52 CURVE SMOOTH",
"93 -52 OFFCURVE",
"60 -22 OFFCURVE",
"60 22 CURVE SMOOTH",
"60 73 OFFCURVE",
"105 111 OFFCURVE",
"105 117 CURVE SMOOTH",
"105 121 OFFCURVE",
"101 125 OFFCURVE",
"97 125 CURVE SMOOTH",
"94 125 OFFCURVE",
"93 123 OFFCURVE",
"91 122 CURVE SMOOTH",
"60 91 OFFCURVE",
"31 42 OFFCURVE",
"31 -5 CURVE SMOOTH",
"31 -53 OFFCURVE",
"65 -75 OFFCURVE",
"110 -75 CURVE SMOOTH"
);
}
);
};
components = (
{
name = I;
},
{
name = gravecomb.case;
transform = "{1, 0, 0, 1, 464, 409}";
}
);
layerId = "95C423A7-595F-441F-915A-E5EF8B5EF971";
width = 565;
}
);
note = Igrave;
unicode = 00CC;
},
{
glyphname = J;
lastChange = "2021-10-09 01:58:11 +0000";
layers = (
{
anchors = (
{
name = bottom;
position = "{328, 0}";
},
{
name = top;
position = "{561, 580}";
}
);
background = {
paths = (
{
closed = 1;
nodes = (
"625 239 OFFCURVE",
"676 336 OFFCURVE",
"676 423 CURVE SMOOTH",
"676 540 OFFCURVE",
"576 573 OFFCURVE",
"476 573 CURVE SMOOTH",
"357 573 OFFCURVE",
"162 518 OFFCURVE",
"77 431 CURVE SMOOTH",
"54 407 OFFCURVE",
"33 374 OFFCURVE",
"33 340 CURVE SMOOTH",
"33 259 OFFCURVE",
"142 248 OFFCURVE",
"202 248 CURVE SMOOTH",
"233 248 OFFCURVE",
"265 251 OFFCURVE",
"296 257 CURVE SMOOTH",
"351 267 OFFCURVE",
"456 297 OFFCURVE",
"493 341 CURVE SMOOTH",
"503 354 OFFCURVE",
"514 369 OFFCURVE",
"514 386 CURVE SMOOTH",
"514 438 OFFCURVE",
"423 445 OFFCURVE",
"386 445 CURVE SMOOTH",
"328 445 OFFCURVE",
"185 423 OFFCURVE",
"169 358 CURVE",
"169 357 OFFCURVE",
"169 355 OFFCURVE",
"169 353 CURVE SMOOTH",
"169 343 OFFCURVE",
"178 329 OFFCURVE",
"189 329 CURVE SMOOTH",
"193 329 OFFCURVE",
"195 331 OFFCURVE",
"195 335 CURVE SMOOTH",
"195 342 OFFCURVE",
"182 343 OFFCURVE",
"182 353 CURVE SMOOTH",
"182 373 OFFCURVE",
"231 393 OFFCURVE",
"245 398 CURVE SMOOTH",
"294 417 OFFCURVE",
"350 430 OFFCURVE",
"403 430 CURVE SMOOTH",
"427 430 OFFCURVE",
"494 425 OFFCURVE",
"494 391 CURVE SMOOTH",
"494 377 OFFCURVE",
"484 363 OFFCURVE",
"476 353 CURVE SMOOTH",
"466 341 OFFCURVE",
"449 330 OFFCURVE",
"436 322 CURVE SMOOTH",
"376 288 OFFCURVE",
"293 270 OFFCURVE",
"225 270 CURVE SMOOTH",
"173 270 OFFCURVE",
"59 283 OFFCURVE",
"59 353 CURVE SMOOTH",
"59 378 OFFCURVE",
"76 401 OFFCURVE",
"93 419 CURVE SMOOTH",
"176 506 OFFCURVE",
"329 541 OFFCURVE",
"443 554 CURVE SMOOTH",
"456 556 OFFCURVE",
"470 557 OFFCURVE",
"483 557 CURVE SMOOTH",
"575 557 OFFCURVE",
"638 511 OFFCURVE",
"638 415 CURVE SMOOTH",
"638 330 OFFCURVE",
"590 238 OFFCURVE",
"539 174 CURVE",
"488 174 OFFCURVE",
"434 169 OFFCURVE",
"384 158 CURVE SMOOTH",
"307 142 OFFCURVE",
"219 112 OFFCURVE",
"158 60 CURVE SMOOTH",
"145 49 OFFCURVE",
"131 35 OFFCURVE",
"123 20 CURVE SMOOTH",
"117 10 OFFCURVE",
"112 -1 OFFCURVE",
"112 -13 CURVE SMOOTH",
"112 -47 OFFCURVE",
"151 -54 OFFCURVE",
"177 -54 CURVE SMOOTH",
"200 -54 OFFCURVE",
"222 -50 OFFCURVE",
"244 -45 CURVE SMOOTH",
"364 -16 OFFCURVE",
"479 63 OFFCURVE",
"559 156 CURVE",
"571 155 OFFCURVE",
"622 154 OFFCURVE",
"622 136 CURVE SMOOTH",
"622 134 OFFCURVE",
"622 133 OFFCURVE",
"622 131 CURVE SMOOTH",
"622 128 OFFCURVE",
"625 127 OFFCURVE",
"628 127 CURVE SMOOTH",
"636 127 OFFCURVE",
"639 133 OFFCURVE",
"639 140 CURVE SMOOTH",
"639 165 OFFCURVE",
"591 171 OFFCURVE",
"572 172 CURVE"
);
},
{
closed = 1;
nodes = (
"144 1 OFFCURVE",
"149 9 OFFCURVE",
"153 16 CURVE SMOOTH",
"160 27 OFFCURVE",
"170 37 OFFCURVE",
"180 47 CURVE SMOOTH",
"234 101 OFFCURVE",
"313 130 OFFCURVE",
"387 145 CURVE SMOOTH",
"432 154 OFFCURVE",
"479 157 OFFCURVE",
"525 157 CURVE",
"453 73 OFFCURVE",
"356 7 OFFCURVE",
"248 -20 CURVE SMOOTH",
"228 -24 OFFCURVE",
"207 -27 OFFCURVE",
"187 -27 CURVE SMOOTH",
"174 -27 OFFCURVE",
"144 -25 OFFCURVE",
"144 -7 CURVE SMOOTH"
);
}
);
};
layerId = "95C423A7-595F-441F-915A-E5EF8B5EF971";
paths = (
{
closed = 1;
nodes = (
"200 -54 OFFCURVE",
"222 -50 OFFCURVE",
"244 -45 CURVE SMOOTH",
"364 -16 OFFCURVE",
"479 63 OFFCURVE",
"559 156 CURVE",
"571 155 OFFCURVE",
"622 154 OFFCURVE",
"622 136 CURVE SMOOTH",
"622 134 OFFCURVE",
"622 133 OFFCURVE",
"622 131 CURVE SMOOTH",
"622 128 OFFCURVE",
"625 127 OFFCURVE",
"628 127 CURVE SMOOTH",
"636 127 OFFCURVE",
"639 133 OFFCURVE",
"639 140 CURVE SMOOTH",
"639 165 OFFCURVE",
"591 171 OFFCURVE",
"572 172 CURVE",
"625 239 OFFCURVE",
"676 336 OFFCURVE",
"676 423 CURVE SMOOTH",
"676 540 OFFCURVE",
"576 573 OFFCURVE",
"476 573 CURVE SMOOTH",
"357 573 OFFCURVE",
"162 518 OFFCURVE",
"77 431 CURVE SMOOTH",
"54 407 OFFCURVE",
"33 374 OFFCURVE",
"33 340 CURVE SMOOTH",
"33 259 OFFCURVE",
"142 248 OFFCURVE",
"202 248 CURVE SMOOTH",
"233 248 OFFCURVE",
"265 251 OFFCURVE",
"296 257 CURVE SMOOTH",
"351 267 OFFCURVE",
"456 297 OFFCURVE",
"493 341 CURVE SMOOTH",
"503 354 OFFCURVE",
"514 369 OFFCURVE",
"514 386 CURVE SMOOTH",
"514 438 OFFCURVE",
"423 445 OFFCURVE",
"386 445 CURVE SMOOTH",
"328 445 OFFCURVE",
"185 423 OFFCURVE",
"169 358 CURVE",
"169 357 OFFCURVE",
"169 355 OFFCURVE",
"169 353 CURVE SMOOTH",
"169 343 OFFCURVE",
"178 329 OFFCURVE",
"189 329 CURVE SMOOTH",
"193 329 OFFCURVE",
"195 331 OFFCURVE",
"195 335 CURVE SMOOTH",
"195 342 OFFCURVE",
"182 343 OFFCURVE",
"182 353 CURVE SMOOTH",
"182 373 OFFCURVE",
"231 393 OFFCURVE",
"245 398 CURVE SMOOTH",
"294 417 OFFCURVE",
"350 430 OFFCURVE",
"403 430 CURVE SMOOTH",
"427 430 OFFCURVE",
"494 425 OFFCURVE",
"494 391 CURVE SMOOTH",
"494 377 OFFCURVE",
"484 363 OFFCURVE",
"476 353 CURVE SMOOTH",
"466 341 OFFCURVE",
"449 330 OFFCURVE",
"436 322 CURVE SMOOTH",
"376 288 OFFCURVE",
"293 270 OFFCURVE",
"225 270 CURVE SMOOTH",
"173 270 OFFCURVE",
"59 283 OFFCURVE",
"59 353 CURVE SMOOTH",
"59 378 OFFCURVE",
"76 401 OFFCURVE",
"93 419 CURVE SMOOTH",
"176 506 OFFCURVE",
"329 541 OFFCURVE",
"443 554 CURVE SMOOTH",
"456 556 OFFCURVE",
"470 557 OFFCURVE",
"483 557 CURVE SMOOTH",
"575 557 OFFCURVE",
"638 511 OFFCURVE",
"638 415 CURVE SMOOTH",
"638 330 OFFCURVE",
"590 238 OFFCURVE",
"539 174 CURVE",
"488 174 OFFCURVE",
"434 169 OFFCURVE",
"384 158 CURVE SMOOTH",
"307 142 OFFCURVE",
"219 112 OFFCURVE",
"158 60 CURVE SMOOTH",
"145 49 OFFCURVE",
"131 35 OFFCURVE",
"123 20 CURVE SMOOTH",
"117 10 OFFCURVE",
"112 -1 OFFCURVE",
"112 -13 CURVE SMOOTH",
"112 -47 OFFCURVE",
"151 -54 OFFCURVE",
"177 -54 CURVE SMOOTH"
);
},
{
closed = 1;
nodes = (
"174 -27 OFFCURVE",
"144 -25 OFFCURVE",
"144 -7 CURVE SMOOTH",
"144 1 OFFCURVE",
"149 9 OFFCURVE",
"153 16 CURVE SMOOTH",
"160 27 OFFCURVE",
"170 37 OFFCURVE",
"180 47 CURVE SMOOTH",
"234 101 OFFCURVE",
"313 130 OFFCURVE",
"387 145 CURVE SMOOTH",
"432 154 OFFCURVE",
"479 157 OFFCURVE",
"525 157 CURVE",
"453 73 OFFCURVE",
"356 7 OFFCURVE",
"248 -20 CURVE SMOOTH",
"228 -24 OFFCURVE",
"207 -27 OFFCURVE",
"187 -27 CURVE SMOOTH"
);
}
);
width = 655;
}
);
note = J;
unicode = 004A;
},
{
glyphname = K;
lastChange = "2021-10-09 01:58:11 +0000";
layers = (
{
background = {
paths = (
{
closed = 1;
nodes = (
"662 399 OFFCURVE",
"794 460 OFFCURVE",
"869 540 CURVE SMOOTH",
"876 547 OFFCURVE",
"883 556 OFFCURVE",
"883 565 CURVE SMOOTH",
"883 582 OFFCURVE",
"860 585 OFFCURVE",
"847 585 CURVE SMOOTH",
"836 585 OFFCURVE",
"822 584 OFFCURVE",
"811 581 CURVE SMOOTH",
"807 580 OFFCURVE",
"804 577 OFFCURVE",
"804 573 CURVE SMOOTH",
"804 568 OFFCURVE",
"807 564 OFFCURVE",
"812 564 CURVE SMOOTH",
"822 564 OFFCURVE",
"831 569 OFFCURVE",
"842 569 CURVE SMOOTH",
"844 569 OFFCURVE",
"851 569 OFFCURVE",
"851 564 CURVE SMOOTH",
"851 558 OFFCURVE",
"838 546 OFFCURVE",
"834 542 CURVE SMOOTH",
"767 473 OFFCURVE",
"669 425 OFFCURVE",
"588 372 CURVE",
"603 404 OFFCURVE",
"616 442 OFFCURVE",
"616 477 CURVE SMOOTH",
"616 569 OFFCURVE",
"528 589 OFFCURVE",
"453 589 CURVE SMOOTH",
"390 589 OFFCURVE",
"318 575 OFFCURVE",
"258 554 CURVE SMOOTH",
"227 543 OFFCURVE",
"198 528 OFFCURVE",
"171 510 CURVE SMOOTH",
"111 471 OFFCURVE",
"11 374 OFFCURVE",
"11 296 CURVE SMOOTH",
"11 240 OFFCURVE",
"85 233 OFFCURVE",
"127 233 CURVE SMOOTH",
"178 233 OFFCURVE",
"260 245 OFFCURVE",
"306 266 CURVE SMOOTH",
"312 269 OFFCURVE",
"322 273 OFFCURVE",
"322 282 CURVE SMOOTH",
"322 285 OFFCURVE",
"320 287 OFFCURVE",
"316 287 CURVE SMOOTH",
"315 287 OFFCURVE",
"314 287 OFFCURVE",
"313 286 CURVE SMOOTH",
"258 265 OFFCURVE",
"197 252 OFFCURVE",
"137 252 CURVE SMOOTH",
"107 252 OFFCURVE",
"43 256 OFFCURVE",
"43 298 CURVE SMOOTH",
"43 346 OFFCURVE",
"98 414 OFFCURVE",
"130 445 CURVE SMOOTH",
"149 464 OFFCURVE",
"170 481 OFFCURVE",
"192 496 CURVE SMOOTH",
"219 514 OFFCURVE",
"248 529 OFFCURVE",
"279 540 CURVE SMOOTH",
"330 558 OFFCURVE",
"389 572 OFFCURVE",
"443 572 CURVE SMOOTH",
"511 572 OFFCURVE",
"580 549 OFFCURVE",
"580 469 CURVE SMOOTH",
"580 423 OFFCURVE",
"557 373 OFFCURVE",
"534 334 CURVE",
"518 322 LINE",
"517 329 OFFCURVE",
"516 342 OFFCURVE",
"506 342 CURVE SMOOTH",
"494 342 OFFCURVE",
"489 329 OFFCURVE",
"489 319 CURVE SMOOTH",
"489 313 OFFCURVE",
"490 307 OFFCURVE",
"491 302 CURVE",
"409 240 OFFCURVE",
"327 176 OFFCURVE",
"247 112 CURVE SMOOTH",
"200 74 OFFCURVE",
"152 36 OFFCURVE",
"108 -6 CURVE SMOOTH",
"95 -18 OFFCURVE",
"76 -37 OFFCURVE",
"76 -56 CURVE SMOOTH",
"76 -64 OFFCURVE",
"82 -75 OFFCURVE",
"86 -82 CURVE SMOOTH",
"91 -87 OFFCURVE",
"96 -88 OFFCURVE",
"102 -88 CURVE SMOOTH",
"109 -88 OFFCURVE",
"116 -87 OFFCURVE",
"122 -86 CURVE SMOOTH",
"214 -69 OFFCURVE",
"439 171 OFFCURVE",
"501 245 CURVE",
"517 165 OFFCURVE",
"556 22 OFFCURVE",
"626 -28 CURVE SMOOTH",
"637 -35 OFFCURVE",
"650 -41 OFFCURVE",
"663 -41 CURVE SMOOTH",
"711 -41 OFFCURVE",
"737 21 OFFCURVE",
"750 58 CURVE SMOOTH",
"751 59 OFFCURVE",
"751 60 OFFCURVE",
"751 61 CURVE SMOOTH",
"751 65 OFFCURVE",
"747 69 OFFCURVE",
"742 69 CURVE SMOOTH",
"738 69 OFFCURVE",
"736 67 OFFCURVE",
"734 63 CURVE SMOOTH",
"723 35 OFFCURVE",
"702 -23 OFFCURVE",
"663 -23 CURVE SMOOTH",
"655 -23 OFFCURVE",
"648 -20 OFFCURVE",
"642 -16 CURVE SMOOTH",
"580 27 OFFCURVE",
"542 206 OFFCURVE",
"527 278 CURVE",
"542 297 OFFCURVE",
"556 316 OFFCURVE",
"569 337 CURVE"
);
},
{
closed = 1;
nodes = (
"495 275 LINE",
"437 200 OFFCURVE",
"222 -32 OFFCURVE",
"137 -57 CURVE SMOOTH",
"134 -58 OFFCURVE",
"131 -58 OFFCURVE",
"129 -58 CURVE SMOOTH",
"126 -58 OFFCURVE",
"123 -58 OFFCURVE",
"123 -54 CURVE SMOOTH",
"123 -41 OFFCURVE",
"152 -9 OFFCURVE",
"161 0 CURVE SMOOTH",
"200 38 OFFCURVE",
"242 73 OFFCURVE",
"282 108 CURVE SMOOTH",
"351 168 OFFCURVE",
"422 226 OFFCURVE",
"494 282 CURVE"
);
}
);
};
layerId = "95C423A7-595F-441F-915A-E5EF8B5EF971";
paths = (
{
closed = 1;
nodes = (
"109 -88 OFFCURVE",
"116 -87 OFFCURVE",
"122 -86 CURVE",
"214 -69 OFFCURVE",
"439 171 OFFCURVE",
"501 245 CURVE",
"517 165 OFFCURVE",
"556 22 OFFCURVE",
"626 -28 CURVE SMOOTH",
"637 -35 OFFCURVE",
"650 -41 OFFCURVE",
"663 -41 CURVE SMOOTH",
"711 -41 OFFCURVE",
"737 21 OFFCURVE",
"750 58 CURVE",
"751 59 OFFCURVE",
"751 60 OFFCURVE",
"751 61 CURVE SMOOTH",
"751 65 OFFCURVE",
"747 69 OFFCURVE",
"742 69 CURVE SMOOTH",
"738 69 OFFCURVE",
"736 67 OFFCURVE",
"734 63 CURVE SMOOTH",
"723 35 OFFCURVE",
"702 -23 OFFCURVE",
"663 -23 CURVE SMOOTH",
"655 -23 OFFCURVE",
"648 -20 OFFCURVE",
"642 -16 CURVE SMOOTH",
"580 27 OFFCURVE",
"542 206 OFFCURVE",
"527 278 CURVE",
"542 297 OFFCURVE",
"556 316 OFFCURVE",
"569 337 CURVE",
"662 399 OFFCURVE",
"794 460 OFFCURVE",
"869 540 CURVE SMOOTH",
"876 547 OFFCURVE",
"883 556 OFFCURVE",
"883 565 CURVE SMOOTH",
"883 582 OFFCURVE",
"860 585 OFFCURVE",
"847 585 CURVE SMOOTH",
"836 585 OFFCURVE",
"822 584 OFFCURVE",
"811 581 CURVE SMOOTH",
"807 580 OFFCURVE",
"804 577 OFFCURVE",
"804 573 CURVE SMOOTH",
"804 568 OFFCURVE",
"807 564 OFFCURVE",
"812 564 CURVE SMOOTH",
"822 564 OFFCURVE",
"831 569 OFFCURVE",
"842 569 CURVE SMOOTH",
"844 569 OFFCURVE",
"851 569 OFFCURVE",
"851 564 CURVE SMOOTH",
"851 558 OFFCURVE",
"838 546 OFFCURVE",
"834 542 CURVE SMOOTH",
"767 473 OFFCURVE",
"669 425 OFFCURVE",
"588 372 CURVE",
"603 404 OFFCURVE",
"616 442 OFFCURVE",
"616 477 CURVE SMOOTH",
"616 569 OFFCURVE",
"528 589 OFFCURVE",
"453 589 CURVE SMOOTH",
"390 589 OFFCURVE",
"318 575 OFFCURVE",
"258 554 CURVE SMOOTH",
"227 543 OFFCURVE",
"198 528 OFFCURVE",
"171 510 CURVE SMOOTH",
"111 471 OFFCURVE",
"11 374 OFFCURVE",
"11 296 CURVE SMOOTH",
"11 240 OFFCURVE",
"85 233 OFFCURVE",
"127 233 CURVE SMOOTH",
"178 233 OFFCURVE",
"260 245 OFFCURVE",
"306 266 CURVE SMOOTH",
"312 269 OFFCURVE",
"322 273 OFFCURVE",
"322 282 CURVE SMOOTH",
"322 285 OFFCURVE",
"320 287 OFFCURVE",
"316 287 CURVE SMOOTH",
"315 287 OFFCURVE",
"314 287 OFFCURVE",
"313 286 CURVE SMOOTH",
"258 265 OFFCURVE",
"197 252 OFFCURVE",
"137 252 CURVE SMOOTH",
"107 252 OFFCURVE",
"43 256 OFFCURVE",
"43 298 CURVE SMOOTH",
"43 346 OFFCURVE",
"98 414 OFFCURVE",
"130 445 CURVE SMOOTH",
"149 464 OFFCURVE",
"170 481 OFFCURVE",
"192 496 CURVE SMOOTH",
"219 514 OFFCURVE",
"248 529 OFFCURVE",
"279 540 CURVE SMOOTH",
"330 558 OFFCURVE",
"389 572 OFFCURVE",
"443 572 CURVE SMOOTH",
"511 572 OFFCURVE",
"580 549 OFFCURVE",
"580 469 CURVE SMOOTH",
"580 423 OFFCURVE",
"557 373 OFFCURVE",
"534 334 CURVE",
"518 322 LINE",
"517 329 OFFCURVE",
"516 342 OFFCURVE",
"506 342 CURVE SMOOTH",
"494 342 OFFCURVE",
"489 329 OFFCURVE",
"489 319 CURVE SMOOTH",
"489 313 OFFCURVE",
"490 307 OFFCURVE",
"491 302 CURVE",
"409 240 OFFCURVE",
"327 176 OFFCURVE",
"247 112 CURVE SMOOTH",
"200 74 OFFCURVE",
"152 36 OFFCURVE",
"108 -6 CURVE SMOOTH",
"95 -18 OFFCURVE",
"76 -37 OFFCURVE",
"76 -56 CURVE SMOOTH",
"76 -64 OFFCURVE",
"82 -75 OFFCURVE",
"86 -82 CURVE SMOOTH",
"91 -87 OFFCURVE",
"96 -88 OFFCURVE",
"102 -88 CURVE SMOOTH"
);
},
{
closed = 1;
nodes = (
"126 -58 OFFCURVE",
"123 -58 OFFCURVE",
"123 -54 CURVE SMOOTH",
"123 -41 OFFCURVE",
"152 -9 OFFCURVE",
"161 0 CURVE SMOOTH",
"200 38 OFFCURVE",
"242 73 OFFCURVE",
"282 108 CURVE SMOOTH",
"351 168 OFFCURVE",
"422 226 OFFCURVE",
"494 282 CURVE",
"495 275 LINE",
"437 200 OFFCURVE",
"222 -32 OFFCURVE",
"137 -57 CURVE",
"134 -58 OFFCURVE",
"131 -58 OFFCURVE",
"129 -58 CURVE SMOOTH"
);
}
);
width = 747;
}
);
note = K;
unicode = 004B;
},
{
glyphname = L;
lastChange = "2021-10-09 01:58:11 +0000";
layers = (
{
anchors = (
{
name = bottom;
position = "{473, 0}";
},
{
name = center;
position = "{372, 271}";
},
{
name = top;
position = "{738, 567}";
},
{
name = topright;
position = "{856, 569}";
}
);
background = {
paths = (
{
closed = 1;
nodes = (
"343 122 OFFCURVE",
"288 67 OFFCURVE",
"223 29 CURVE SMOOTH",
"215 25 OFFCURVE",
"204 17 OFFCURVE",
"195 14 CURVE SMOOTH",
"187 12 OFFCURVE",
"169 11 OFFCURVE",
"159 9 CURVE SMOOTH",
"125 4 OFFCURVE",
"77 -4 OFFCURVE",
"45 -16 CURVE SMOOTH",
"34 -20 OFFCURVE",
"17 -27 OFFCURVE",
"17 -42 CURVE SMOOTH",
"17 -57 OFFCURVE",
"38 -64 OFFCURVE",
"51 -64 CURVE SMOOTH",
"53 -64 OFFCURVE",
"55 -64 OFFCURVE",
"57 -63 CURVE",
"122 -56 OFFCURVE",
"180 -33 OFFCURVE",
"235 3 CURVE",
"316 13 OFFCURVE",
"399 20 OFFCURVE",
"481 20 CURVE SMOOTH",
"512 20 OFFCURVE",
"543 19 OFFCURVE",
"574 15 CURVE SMOOTH",
"611 11 OFFCURVE",
"686 -3 OFFCURVE",
"712 -35 CURVE SMOOTH",
"717 -42 OFFCURVE",
"723 -49 OFFCURVE",
"723 -58 CURVE SMOOTH",
"723 -73 OFFCURVE",
"710 -71 OFFCURVE",
"710 -79 CURVE SMOOTH",
"710 -83 OFFCURVE",
"713 -87 OFFCURVE",
"717 -87 CURVE SMOOTH",
"733 -87 OFFCURVE",
"745 -56 OFFCURVE",
"745 -43 CURVE SMOOTH",
"745 -32 OFFCURVE",
"742 -25 OFFCURVE",
"734 -16 CURVE SMOOTH",
"695 34 OFFCURVE",
"578 37 OFFCURVE",
"518 37 CURVE SMOOTH",
"433 37 OFFCURVE",
"347 31 OFFCURVE",
"262 22 CURVE",
"326 69 OFFCURVE",
"381 129 OFFCURVE",
"431 191 CURVE",
"511 216 OFFCURVE",
"653 273 OFFCURVE",
"717 327 CURVE SMOOTH",
"762 365 OFFCURVE",
"816 425 OFFCURVE",
"816 487 CURVE SMOOTH",
"816 533 OFFCURVE",
"784 567 OFFCURVE",
"738 567 CURVE SMOOTH",
"706 567 OFFCURVE",
"678 551 OFFCURVE",
"654 531 CURVE SMOOTH",
"610 493 OFFCURVE",
"573 436 OFFCURVE",
"540 389 CURVE SMOOTH",
"498 327 OFFCURVE",
"456 263 OFFCURVE",
"410 204 CURVE",
"363 191 OFFCURVE",
"315 183 OFFCURVE",
"267 183 CURVE SMOOTH",
"193 183 OFFCURVE",
"94 210 OFFCURVE",
"94 301 CURVE SMOOTH",
"94 362 OFFCURVE",
"141 414 OFFCURVE",
"189 447 CURVE SMOOTH",
"205 458 OFFCURVE",
"222 465 OFFCURVE",
"239 474 CURVE SMOOTH",
"242 476 OFFCURVE",
"243 478 OFFCURVE",
"243 481 CURVE SMOOTH",
"243 485 OFFCURVE",
"240 489 OFFCURVE",
"236 489 CURVE SMOOTH",
"235 489 OFFCURVE",
"234 489 OFFCURVE",
"233 488 CURVE",
"159 454 OFFCURVE",
"57 387 OFFCURVE",
"57 295 CURVE SMOOTH",
"57 278 OFFCURVE",
"61 263 OFFCURVE",
"68 247 CURVE SMOOTH",
"100 180 OFFCURVE",
"190 160 OFFCURVE",
"257 160 CURVE SMOOTH",
"302 160 OFFCURVE",
"347 167 OFFCURVE",
"390 179 CURVE"
);
},
{
closed = 1;
nodes = (
"782 545 OFFCURVE",
"794 528 OFFCURVE",
"794 505 CURVE SMOOTH",
"794 442 OFFCURVE",
"720 367 OFFCURVE",
"676 330 CURVE SMOOTH",
"618 280 OFFCURVE",
"523 240 OFFCURVE",
"451 216 CURVE",
"487 263 OFFCURVE",
"522 311 OFFCURVE",
"556 359 CURVE SMOOTH",
"582 395 OFFCURVE",
"608 432 OFFCURVE",
"637 465 CURVE SMOOTH",
"664 496 OFFCURVE",
"713 545 OFFCURVE",
"757 545 CURVE SMOOTH"
);
},
{
closed = 1;
nodes = (
"78 -21 OFFCURVE",
"87 -20 OFFCURVE",
"94 -17 CURVE SMOOTH",
"114 -9 OFFCURVE",
"131 -9 OFFCURVE",
"153 -7 CURVE",
"165 -5 OFFCURVE",
"163 -11 OFFCURVE",
"154 -13 CURVE",
"130 -20 OFFCURVE",
"100 -32 OFFCURVE",
"78 -30 CURVE"
);
}
);
};
layerId = "95C423A7-595F-441F-915A-E5EF8B5EF971";
paths = (
{
closed = 1;
nodes = (
"733 -87 OFFCURVE",
"745 -56 OFFCURVE",
"745 -43 CURVE SMOOTH",
"745 -32 OFFCURVE",
"742 -25 OFFCURVE",
"734 -16 CURVE SMOOTH",
"695 34 OFFCURVE",
"578 37 OFFCURVE",
"518 37 CURVE SMOOTH",
"433 37 OFFCURVE",
"347 31 OFFCURVE",
"262 22 CURVE",
"326 69 OFFCURVE",
"381 129 OFFCURVE",
"431 191 CURVE",
"511 216 OFFCURVE",
"653 273 OFFCURVE",
"717 327 CURVE SMOOTH",
"762 365 OFFCURVE",
"816 425 OFFCURVE",
"816 487 CURVE SMOOTH",
"816 533 OFFCURVE",
"784 567 OFFCURVE",
"738 567 CURVE SMOOTH",
"706 567 OFFCURVE",
"678 551 OFFCURVE",
"654 531 CURVE SMOOTH",
"610 493 OFFCURVE",
"573 436 OFFCURVE",
"540 389 CURVE SMOOTH",
"498 327 OFFCURVE",
"456 263 OFFCURVE",
"410 204 CURVE",
"363 191 OFFCURVE",
"315 183 OFFCURVE",
"267 183 CURVE SMOOTH",
"193 183 OFFCURVE",
"94 210 OFFCURVE",
"94 301 CURVE SMOOTH",
"94 362 OFFCURVE",
"141 414 OFFCURVE",
"189 447 CURVE SMOOTH",
"205 458 OFFCURVE",
"222 465 OFFCURVE",
"239 474 CURVE SMOOTH",
"242 476 OFFCURVE",
"243 478 OFFCURVE",
"243 481 CURVE SMOOTH",
"243 485 OFFCURVE",
"240 489 OFFCURVE",
"236 489 CURVE SMOOTH",
"235 489 OFFCURVE",
"234 489 OFFCURVE",
"233 488 CURVE",
"159 454 OFFCURVE",
"57 387 OFFCURVE",
"57 295 CURVE SMOOTH",
"57 278 OFFCURVE",
"61 263 OFFCURVE",
"68 247 CURVE SMOOTH",
"100 180 OFFCURVE",
"190 160 OFFCURVE",
"257 160 CURVE SMOOTH",
"302 160 OFFCURVE",
"347 167 OFFCURVE",
"390 179 CURVE",
"343 122 OFFCURVE",
"288 67 OFFCURVE",
"223 29 CURVE SMOOTH",
"215 25 OFFCURVE",
"204 17 OFFCURVE",
"195 14 CURVE SMOOTH",
"187 12 OFFCURVE",
"169 11 OFFCURVE",
"159 9 CURVE SMOOTH",
"125 4 OFFCURVE",
"77 -4 OFFCURVE",
"45 -16 CURVE SMOOTH",
"34 -20 OFFCURVE",
"17 -27 OFFCURVE",
"17 -42 CURVE SMOOTH",
"17 -57 OFFCURVE",
"38 -64 OFFCURVE",
"51 -64 CURVE SMOOTH",
"53 -64 OFFCURVE",
"55 -64 OFFCURVE",
"57 -63 CURVE",
"122 -56 OFFCURVE",
"180 -33 OFFCURVE",
"235 3 CURVE",
"316 13 OFFCURVE",
"399 20 OFFCURVE",
"481 20 CURVE SMOOTH",
"512 20 OFFCURVE",
"543 19 OFFCURVE",
"574 15 CURVE SMOOTH",
"611 11 OFFCURVE",
"686 -3 OFFCURVE",
"712 -35 CURVE SMOOTH",
"717 -42 OFFCURVE",
"723 -49 OFFCURVE",
"723 -58 CURVE SMOOTH",
"723 -73 OFFCURVE",
"710 -71 OFFCURVE",
"710 -79 CURVE SMOOTH",
"710 -83 OFFCURVE",
"713 -87 OFFCURVE",
"717 -87 CURVE SMOOTH"
);
},
{
closed = 1;
nodes = (
"78 -21 OFFCURVE",
"87 -20 OFFCURVE",
"94 -17 CURVE SMOOTH",
"114 -9 OFFCURVE",
"131 -9 OFFCURVE",
"153 -7 CURVE",
"155 -7 OFFCURVE",
"157 -7 OFFCURVE",
"158 -7 CURVE SMOOTH",
"160 -7 OFFCURVE",
"161 -7 OFFCURVE",
"161 -8 CURVE SMOOTH",
"161 -10 OFFCURVE",
"159 -12 OFFCURVE",
"154 -13 CURVE SMOOTH",
"130 -20 OFFCURVE",
"100 -32 OFFCURVE",
"78 -30 CURVE"
);
},
{
closed = 1;
nodes = (
"487 263 OFFCURVE",
"522 311 OFFCURVE",
"556 359 CURVE SMOOTH",
"582 395 OFFCURVE",
"608 432 OFFCURVE",
"637 465 CURVE SMOOTH",
"664 496 OFFCURVE",
"713 545 OFFCURVE",
"757 545 CURVE SMOOTH",
"782 545 OFFCURVE",
"794 528 OFFCURVE",
"794 505 CURVE SMOOTH",
"794 442 OFFCURVE",
"720 367 OFFCURVE",
"676 330 CURVE SMOOTH",
"618 280 OFFCURVE",
"523 240 OFFCURVE",
"451 216 CURVE"
);
}
);
width = 743;
}
);
note = L;
unicode = 004C;
},
{
glyphname = M;
lastChange = "2021-10-09 01:58:11 +0000";
layers = (
{
background = {
paths = (
{
closed = 1;
nodes = (
"1054 120 OFFCURVE",
"1061 -32 OFFCURVE",
"1095 -51 CURVE SMOOTH",
"1102 -54 OFFCURVE",
"1108 -56 OFFCURVE",
"1114 -56 CURVE SMOOTH",
"1141 -56 OFFCURVE",
"1163 -20 OFFCURVE",
"1163 5 CURVE SMOOTH",
"1163 7 OFFCURVE",
"1162 15 OFFCURVE",
"1158 15 CURVE SMOOTH",
"1151 15 OFFCURVE",
"1152 -30 OFFCURVE",
"1120 -30 CURVE SMOOTH",
"1117 -30 OFFCURVE",
"1114 -29 OFFCURVE",
"1111 -27 CURVE",
"1071 -3 OFFCURVE",
"1080 183 OFFCURVE",
"1075 233 CURVE",
"1082 247 OFFCURVE",
"1090 263 OFFCURVE",
"1090 280 CURVE SMOOTH",
"1090 289 OFFCURVE",
"1086 307 OFFCURVE",
"1074 307 CURVE SMOOTH",
"1054 307 OFFCURVE",
"1047 267 OFFCURVE",
"1047 252 CURVE SMOOTH",
"1047 244 OFFCURVE",
"1048 237 OFFCURVE",
"1049 229 CURVE",
"1023 177 OFFCURVE",
"965 37 OFFCURVE",
"929 3 CURVE SMOOTH",
"928 2 OFFCURVE",
"923 -3 OFFCURVE",
"922 -3 CURVE SMOOTH",
"914 -3 OFFCURVE",
"914 33 OFFCURVE",
"913 37 CURVE",
"912 76 OFFCURVE",
"914 114 OFFCURVE",
"910 153 CURVE SMOOTH",
"908 176 OFFCURVE",
"905 219 OFFCURVE",
"876 225 CURVE",
"874 225 OFFCURVE",
"873 225 OFFCURVE",
"871 225 CURVE SMOOTH",
"838 225 OFFCURVE",
"794 194 OFFCURVE",
"770 174 CURVE",
"816 262 OFFCURVE",
"861 353 OFFCURVE",
"892 445 CURVE SMOOTH",
"901 471 OFFCURVE",
"907 498 OFFCURVE",
"907 525 CURVE SMOOTH",
"907 622 OFFCURVE",
"819 643 OFFCURVE",
"739 643 CURVE SMOOTH",
"662 643 OFFCURVE",
"570 624 OFFCURVE",
"498 599 CURVE SMOOTH",
"358 551 OFFCURVE",
"170 434 OFFCURVE",
"74 322 CURVE SMOOTH",
"44 287 OFFCURVE",
"10 236 OFFCURVE",
"10 189 CURVE SMOOTH",
"10 93 OFFCURVE",
"148 83 OFFCURVE",
"216 83 CURVE SMOOTH",
"253 83 OFFCURVE",
"290 86 OFFCURVE",
"327 90 CURVE SMOOTH",
"340 92 OFFCURVE",
"356 93 OFFCURVE",
"369 96 CURVE SMOOTH",
"375 97 OFFCURVE",
"383 100 OFFCURVE",
"383 107 CURVE SMOOTH",
"383 111 OFFCURVE",
"380 113 OFFCURVE",
"376 112 CURVE SMOOTH",
"374 112 LINE SMOOTH",
"325 109 OFFCURVE",
"276 100 OFFCURVE",
"225 100 CURVE SMOOTH",
"171 100 OFFCURVE",
"53 106 OFFCURVE",
"53 184 CURVE SMOOTH",
"53 214 OFFCURVE",
"70 246 OFFCURVE",
"85 270 CURVE SMOOTH",
"169 395 OFFCURVE",
"363 527 OFFCURVE",
"504 577 CURVE SMOOTH",
"572 602 OFFCURVE",
"658 623 OFFCURVE",
"729 623 CURVE SMOOTH",
"800 623 OFFCURVE",
"866 601 OFFCURVE",
"866 518 CURVE SMOOTH",
"866 493 OFFCURVE",
"860 467 OFFCURVE",
"853 443 CURVE SMOOTH",
"823 353 OFFCURVE",
"787 263 OFFCURVE",
"744 178 CURVE SMOOTH",
"738 166 OFFCURVE",
"725 138 OFFCURVE",
"718 128 CURVE SMOOTH",
"714 123 OFFCURVE",
"709 120 OFFCURVE",
"705 115 CURVE SMOOTH",
"696 106 OFFCURVE",
"687 97 OFFCURVE",
"678 87 CURVE SMOOTH",
"645 49 OFFCURVE",
"523 -86 OFFCURVE",
"523 -134 CURVE SMOOTH",
"523 -145 OFFCURVE",
"531 -153 OFFCURVE",
"542 -153 CURVE SMOOTH",
"584 -153 OFFCURVE",
"694 37 OFFCURVE",
"713 71 CURVE SMOOTH",
"722 85 OFFCURVE",
"729 100 OFFCURVE",
"737 114 CURVE SMOOTH",
"740 119 OFFCURVE",
"742 123 OFFCURVE",
"745 128 CURVE SMOOTH",
"746 129 OFFCURVE",
"761 142 OFFCURVE",
"762 143 CURVE SMOOTH",
"783 161 OFFCURVE",
"831 199 OFFCURVE",
"860 199 CURVE SMOOTH",
"860 199 OFFCURVE",
"862 199 OFFCURVE",
"863 199 CURVE",
"880 194 OFFCURVE",
"878 152 OFFCURVE",
"879 138 CURVE SMOOTH",
"881 100 OFFCURVE",
"878 63 OFFCURVE",
"882 26 CURVE SMOOTH",
"883 12 OFFCURVE",
"887 -31 OFFCURVE",
"908 -31 CURVE SMOOTH",
"911 -31 OFFCURVE",
"914 -31 OFFCURVE",
"916 -30 CURVE",
"953 -13 OFFCURVE",
"1033 149 OFFCURVE",
"1055 191 CURVE",
"1054 180 OFFCURVE",
"1054 169 OFFCURVE",
"1054 157 CURVE SMOOTH"
);
}
);
};
layerId = "95C423A7-595F-441F-915A-E5EF8B5EF971";
paths = (
{
closed = 1;
nodes = (
"584 -153 OFFCURVE",
"694 37 OFFCURVE",
"713 71 CURVE SMOOTH",
"722 85 OFFCURVE",
"729 100 OFFCURVE",
"737 114 CURVE SMOOTH",
"740 119 OFFCURVE",
"742 123 OFFCURVE",
"745 128 CURVE SMOOTH",
"746 129 OFFCURVE",
"761 142 OFFCURVE",
"762 143 CURVE SMOOTH",
"783 161 OFFCURVE",
"831 199 OFFCURVE",
"860 199 CURVE SMOOTH",
"863 199 LINE",
"880 194 OFFCURVE",
"878 152 OFFCURVE",
"879 138 CURVE SMOOTH",
"881 100 OFFCURVE",
"878 63 OFFCURVE",
"882 26 CURVE SMOOTH",
"883 12 OFFCURVE",
"887 -31 OFFCURVE",
"908 -31 CURVE SMOOTH",
"911 -31 OFFCURVE",
"914 -31 OFFCURVE",
"916 -30 CURVE SMOOTH",
"953 -13 OFFCURVE",
"1033 149 OFFCURVE",
"1055 191 CURVE",
"1054 180 OFFCURVE",
"1054 169 OFFCURVE",
"1054 157 CURVE SMOOTH",
"1054 120 OFFCURVE",
"1061 -32 OFFCURVE",
"1095 -51 CURVE SMOOTH",
"1102 -54 OFFCURVE",
"1108 -56 OFFCURVE",
"1114 -56 CURVE SMOOTH",
"1141 -56 OFFCURVE",
"1163 -20 OFFCURVE",
"1163 5 CURVE SMOOTH",
"1163 7 OFFCURVE",
"1162 15 OFFCURVE",
"1158 15 CURVE SMOOTH",
"1151 15 OFFCURVE",
"1152 -30 OFFCURVE",
"1120 -30 CURVE SMOOTH",
"1117 -30 OFFCURVE",
"1114 -29 OFFCURVE",
"1111 -27 CURVE SMOOTH",
"1071 -3 OFFCURVE",
"1080 183 OFFCURVE",
"1075 233 CURVE",
"1082 247 OFFCURVE",
"1090 263 OFFCURVE",
"1090 280 CURVE SMOOTH",
"1090 289 OFFCURVE",
"1086 307 OFFCURVE",
"1074 307 CURVE SMOOTH",
"1054 307 OFFCURVE",
"1047 267 OFFCURVE",
"1047 252 CURVE SMOOTH",
"1047 244 OFFCURVE",
"1048 237 OFFCURVE",
"1049 229 CURVE",
"1023 177 OFFCURVE",
"965 37 OFFCURVE",
"929 3 CURVE",
"928 2 OFFCURVE",
"923 -3 OFFCURVE",
"922 -3 CURVE SMOOTH",
"914 -3 OFFCURVE",
"914 33 OFFCURVE",
"913 37 CURVE SMOOTH",
"912 76 OFFCURVE",
"914 114 OFFCURVE",
"910 153 CURVE SMOOTH",
"908 176 OFFCURVE",
"905 219 OFFCURVE",
"876 225 CURVE",
"871 225 LINE SMOOTH",
"838 225 OFFCURVE",
"794 194 OFFCURVE",
"770 174 CURVE",
"816 262 OFFCURVE",
"861 353 OFFCURVE",
"892 445 CURVE SMOOTH",
"901 471 OFFCURVE",
"907 498 OFFCURVE",
"907 525 CURVE SMOOTH",
"907 622 OFFCURVE",
"819 643 OFFCURVE",
"739 643 CURVE SMOOTH",
"662 643 OFFCURVE",
"570 624 OFFCURVE",
"498 599 CURVE SMOOTH",
"358 551 OFFCURVE",
"170 434 OFFCURVE",
"74 322 CURVE SMOOTH",
"44 287 OFFCURVE",
"10 236 OFFCURVE",
"10 189 CURVE SMOOTH",
"10 93 OFFCURVE",
"148 83 OFFCURVE",
"216 83 CURVE SMOOTH",
"253 83 OFFCURVE",
"290 86 OFFCURVE",
"327 90 CURVE SMOOTH",
"340 92 OFFCURVE",
"356 93 OFFCURVE",
"369 96 CURVE SMOOTH",
"375 97 OFFCURVE",
"383 100 OFFCURVE",
"383 107 CURVE SMOOTH",
"383 110 OFFCURVE",
"381 112 OFFCURVE",
"378 112 CURVE SMOOTH",
"377 112 OFFCURVE",
"377 112 OFFCURVE",
"376 112 CURVE SMOOTH",
"374 112 LINE SMOOTH",
"325 109 OFFCURVE",
"276 100 OFFCURVE",
"225 100 CURVE SMOOTH",
"171 100 OFFCURVE",
"53 106 OFFCURVE",
"53 184 CURVE SMOOTH",
"53 214 OFFCURVE",
"70 246 OFFCURVE",
"85 270 CURVE SMOOTH",
"169 395 OFFCURVE",
"363 527 OFFCURVE",
"504 577 CURVE SMOOTH",
"572 602 OFFCURVE",
"658 623 OFFCURVE",
"729 623 CURVE SMOOTH",
"800 623 OFFCURVE",
"866 601 OFFCURVE",
"866 518 CURVE SMOOTH",
"866 493 OFFCURVE",
"860 467 OFFCURVE",
"853 443 CURVE SMOOTH",
"823 353 OFFCURVE",
"787 263 OFFCURVE",
"744 178 CURVE SMOOTH",
"738 166 OFFCURVE",
"725 138 OFFCURVE",
"718 128 CURVE",
"714 123 OFFCURVE",
"709 120 OFFCURVE",
"705 115 CURVE SMOOTH",
"696 106 OFFCURVE",
"687 97 OFFCURVE",
"678 87 CURVE SMOOTH",
"645 49 OFFCURVE",
"523 -86 OFFCURVE",
"523 -134 CURVE SMOOTH",
"523 -145 OFFCURVE",
"531 -153 OFFCURVE",
"542 -153 CURVE SMOOTH"
);
}
);
width = 1185;
}
);
note = M;
unicode = 004D;
},
{
glyphname = N;
lastChange = "2021-10-09 01:58:11 +0000";
layers = (
{
anchors = (
{
name = bottom;
position = "{578, 0}";
},
{
name = top;
position = "{779, 431}";
}
);
background = {
paths = (
{
closed = 1;
nodes = (
"801 -2 OFFCURVE",
"816 75 OFFCURVE",
"816 107 CURVE SMOOTH",
"816 118 OFFCURVE",
"813 173 OFFCURVE",
"796 173 CURVE SMOOTH",
"793 173 OFFCURVE",
"790 171 OFFCURVE",
"790 167 CURVE SMOOTH",
"790 162 OFFCURVE",
"797 156 OFFCURVE",
"797 139 CURVE SMOOTH",
"797 116 OFFCURVE",
"778 22 OFFCURVE",
"749 22 CURVE SMOOTH",
"730 22 OFFCURVE",
"727 62 OFFCURVE",
"727 76 CURVE SMOOTH",
"727 149 OFFCURVE",
"764 260 OFFCURVE",
"788 330 CURVE SMOOTH",
"794 347 OFFCURVE",
"799 364 OFFCURVE",
"799 382 CURVE SMOOTH",
"799 395 OFFCURVE",
"795 414 OFFCURVE",
"778 414 CURVE SMOOTH",
"760 414 OFFCURVE",
"743 394 OFFCURVE",
"734 382 CURVE SMOOTH",
"681 316 OFFCURVE",
"625 253 OFFCURVE",
"569 190 CURVE SMOOTH",
"521 136 OFFCURVE",
"473 81 OFFCURVE",
"418 33 CURVE SMOOTH",
"395 13 LINE",
"468 123 OFFCURVE",
"658 411 OFFCURVE",
"658 541 CURVE SMOOTH",
"658 610 OFFCURVE",
"610 629 OFFCURVE",
"549 629 CURVE SMOOTH",
"537 629 OFFCURVE",
"525 629 OFFCURVE",
"513 627 CURVE SMOOTH",
"380 613 OFFCURVE",
"7 390 OFFCURVE",
"7 232 CURVE SMOOTH",
"7 207 OFFCURVE",
"16 185 OFFCURVE",
"33 167 CURVE SMOOTH",
"52 147 OFFCURVE",
"91 143 OFFCURVE",
"116 143 CURVE SMOOTH",
"136 143 OFFCURVE",
"245 153 OFFCURVE",
"245 182 CURVE SMOOTH",
"245 185 OFFCURVE",
"243 189 OFFCURVE",
"239 189 CURVE SMOOTH",
"237 189 OFFCURVE",
"236 188 OFFCURVE",
"234 187 CURVE",
"205 171 OFFCURVE",
"161 165 OFFCURVE",
"128 165 CURVE SMOOTH",
"87 165 OFFCURVE",
"43 169 OFFCURVE",
"43 220 CURVE SMOOTH",
"43 278 OFFCURVE",
"99 348 OFFCURVE",
"137 388 CURVE SMOOTH",
"221 476 OFFCURVE",
"413 609 OFFCURVE",
"540 609 CURVE SMOOTH",
"590 609 OFFCURVE",
"622 589 OFFCURVE",
"622 535 CURVE SMOOTH",
"622 482 OFFCURVE",
"591 409 OFFCURVE",
"569 362 CURVE SMOOTH",
"517 254 OFFCURVE",
"457 153 OFFCURVE",
"389 55 CURVE SMOOTH",
"353 2 OFFCURVE",
"313 -50 OFFCURVE",
"268 -97 CURVE SMOOTH",
"264 -102 OFFCURVE",
"259 -106 OFFCURVE",
"259 -113 CURVE SMOOTH",
"259 -121 OFFCURVE",
"267 -124 OFFCURVE",
"274 -124 CURVE SMOOTH",
"293 -124 OFFCURVE",
"309 -106 OFFCURVE",
"319 -91 CURVE SMOOTH",
"323 -85 OFFCURVE",
"329 -79 OFFCURVE",
"334 -73 CURVE SMOOTH",
"342 -65 OFFCURVE",
"351 -56 OFFCURVE",
"360 -48 CURVE SMOOTH",
"383 -25 OFFCURVE",
"407 -4 OFFCURVE",
"431 18 CURVE SMOOTH",
"485 67 OFFCURVE",
"535 123 OFFCURVE",
"584 177 CURVE SMOOTH",
"641 240 OFFCURVE",
"696 304 OFFCURVE",
"750 370 CURVE SMOOTH",
"751 371 OFFCURVE",
"758 381 OFFCURVE",
"761 381 CURVE SMOOTH",
"763 381 OFFCURVE",
"763 378 OFFCURVE",
"763 377 CURVE SMOOTH",
"763 364 OFFCURVE",
"750 327 OFFCURVE",
"745 313 CURVE SMOOTH",
"722 248 OFFCURVE",
"704 167 OFFCURVE",
"704 98 CURVE SMOOTH",
"704 80 OFFCURVE",
"705 59 OFFCURVE",
"711 41 CURVE SMOOTH",
"717 20 OFFCURVE",
"735 -2 OFFCURVE",
"758 -2 CURVE SMOOTH"
);
}
);
};
layerId = "95C423A7-595F-441F-915A-E5EF8B5EF971";
paths = (
{
closed = 1;
nodes = (
"293 -124 OFFCURVE",
"309 -106 OFFCURVE",
"319 -91 CURVE SMOOTH",
"323 -85 OFFCURVE",
"329 -79 OFFCURVE",
"334 -73 CURVE SMOOTH",
"342 -65 OFFCURVE",
"351 -56 OFFCURVE",
"360 -48 CURVE SMOOTH",
"383 -25 OFFCURVE",
"407 -4 OFFCURVE",
"431 18 CURVE SMOOTH",
"485 67 OFFCURVE",
"535 123 OFFCURVE",
"584 177 CURVE SMOOTH",
"641 240 OFFCURVE",
"696 304 OFFCURVE",
"750 370 CURVE SMOOTH",
"751 371 OFFCURVE",
"758 381 OFFCURVE",
"761 381 CURVE SMOOTH",
"763 381 OFFCURVE",
"763 378 OFFCURVE",
"763 377 CURVE SMOOTH",
"763 364 OFFCURVE",
"750 327 OFFCURVE",
"745 313 CURVE SMOOTH",
"722 248 OFFCURVE",
"704 167 OFFCURVE",
"704 98 CURVE SMOOTH",
"704 80 OFFCURVE",
"705 59 OFFCURVE",
"711 41 CURVE SMOOTH",
"717 20 OFFCURVE",
"735 -2 OFFCURVE",
"758 -2 CURVE SMOOTH",
"801 -2 OFFCURVE",
"816 75 OFFCURVE",
"816 107 CURVE SMOOTH",
"816 118 OFFCURVE",
"813 173 OFFCURVE",
"796 173 CURVE SMOOTH",
"793 173 OFFCURVE",
"790 171 OFFCURVE",
"790 167 CURVE SMOOTH",
"790 162 OFFCURVE",
"797 156 OFFCURVE",
"797 139 CURVE SMOOTH",
"797 116 OFFCURVE",
"778 22 OFFCURVE",
"749 22 CURVE SMOOTH",
"730 22 OFFCURVE",
"727 62 OFFCURVE",
"727 76 CURVE SMOOTH",
"727 149 OFFCURVE",
"764 260 OFFCURVE",
"788 330 CURVE SMOOTH",
"794 347 OFFCURVE",
"799 364 OFFCURVE",
"799 382 CURVE SMOOTH",
"799 395 OFFCURVE",
"795 414 OFFCURVE",
"778 414 CURVE SMOOTH",
"760 414 OFFCURVE",
"743 394 OFFCURVE",
"734 382 CURVE SMOOTH",
"681 316 OFFCURVE",
"625 253 OFFCURVE",
"569 190 CURVE SMOOTH",
"521 136 OFFCURVE",
"472 81 OFFCURVE",
"418 33 CURVE SMOOTH",
"395 13 LINE",
"468 123 OFFCURVE",
"658 411 OFFCURVE",
"658 541 CURVE SMOOTH",
"658 610 OFFCURVE",
"610 629 OFFCURVE",
"549 629 CURVE SMOOTH",
"537 629 OFFCURVE",
"525 629 OFFCURVE",
"513 627 CURVE SMOOTH",
"380 613 OFFCURVE",
"7 390 OFFCURVE",
"7 232 CURVE SMOOTH",
"7 207 OFFCURVE",
"16 185 OFFCURVE",
"33 167 CURVE SMOOTH",
"52 147 OFFCURVE",
"91 143 OFFCURVE",
"116 143 CURVE SMOOTH",
"136 143 OFFCURVE",
"245 153 OFFCURVE",
"245 182 CURVE SMOOTH",
"245 185 OFFCURVE",
"243 189 OFFCURVE",
"239 189 CURVE SMOOTH",
"237 189 OFFCURVE",
"236 188 OFFCURVE",
"234 187 CURVE SMOOTH",
"205 171 OFFCURVE",
"161 165 OFFCURVE",
"128 165 CURVE SMOOTH",
"87 165 OFFCURVE",
"43 169 OFFCURVE",
"43 220 CURVE SMOOTH",
"43 278 OFFCURVE",
"99 348 OFFCURVE",
"137 388 CURVE SMOOTH",
"221 476 OFFCURVE",
"413 609 OFFCURVE",
"540 609 CURVE SMOOTH",
"590 609 OFFCURVE",
"622 589 OFFCURVE",
"622 535 CURVE SMOOTH",
"622 482 OFFCURVE",
"591 409 OFFCURVE",
"569 362 CURVE SMOOTH",
"517 254 OFFCURVE",
"457 153 OFFCURVE",
"389 55 CURVE SMOOTH",
"353 2 OFFCURVE",
"313 -50 OFFCURVE",
"268 -97 CURVE",
"264 -102 OFFCURVE",
"259 -106 OFFCURVE",
"259 -113 CURVE SMOOTH",
"259 -121 OFFCURVE",
"267 -124 OFFCURVE",
"274 -124 CURVE SMOOTH"
);
}
);
width = 833;
}
);
note = N;
unicode = 004E;
},
{
glyphname = Eng;
lastChange = "2021-10-09 01:58:11 +0000";
layers = (
{
background = {
hints = (
{
horizontal = 1;
place = "{-2, 23}";
type = Stem;
},
{
horizontal = 1;
place = "{143, 22}";
type = Stem;
},
{
horizontal = 1;
place = "{609, 21}";
type = Stem;
},
{
place = "{7, 37}";
type = Stem;
},
{
place = "{622, 36}";
type = Stem;
},
{
place = "{704, 23}";
type = Stem;
},
{
place = "{763, 36}";
type = Stem;
},
{
place = "{704, 112}";
type = Stem;
},
{
horizontal = 1;
place = "{-149, 20}";
type = Stem;
},
{
horizontal = 1;
place = "{18, 14}";
type = Stem;
},
{
horizontal = 1;
place = "{250, 21}";
type = Stem;
},
{
place = "{13, 32}";
type = Stem;
},
{
place = "{158, 11}";
type = Stem;
},
{
place = "{195, 14}";
type = Stem;
},
{
place = "{178, 27}";
type = Stem;
}
);
paths = (
{
closed = 1;
nodes = (
"321 436 OFFCURVE",
"343 403 OFFCURVE",
"363 365 CURVE",
"318 231 OFFCURVE",
"175 -23 OFFCURVE",
"60 -23 CURVE SMOOTH",
"39 -23 OFFCURVE",
"9 -3 OFFCURVE",
"42 2 CURVE",
"33 13 OFFCURVE",
"29 18 OFFCURVE",
"14 18 CURVE SMOOTH",
"-7 18 OFFCURVE",
"-3 -16 OFFCURVE",
"18 -27 CURVE SMOOTH",
"36 -37 OFFCURVE",
"56 -38 OFFCURVE",
"74 -38 CURVE SMOOTH",
"201 -38 OFFCURVE",
"326 196 OFFCURVE",
"375 342 CURVE",
"413 257 OFFCURVE",
"445 151 OFFCURVE",
"469 86 CURVE",
"452 33 OFFCURVE",
"445 -13 OFFCURVE",
"429 -42 CURVE SMOOTH",
"405 -88 OFFCURVE",
"352 -178 OFFCURVE",
"293 -203 CURVE SMOOTH",
"224 -232 OFFCURVE",
"230 -160 OFFCURVE",
"280 -107 CURVE SMOOTH",
"293 -93 OFFCURVE",
"293 -89 OFFCURVE",
"287 -92 CURVE",
"284 -93 OFFCURVE",
"279 -95 OFFCURVE",
"276 -99 CURVE",
"230 -138 OFFCURVE",
"212 -182 OFFCURVE",
"219 -206 CURVE SMOOTH",
"226 -229 OFFCURVE",
"253 -237 OFFCURVE",
"304 -216 CURVE SMOOTH",
"375 -186 OFFCURVE",
"418 -122 OFFCURVE",
"438 -86 CURVE SMOOTH",
"471 -30 OFFCURVE",
"485 22 OFFCURVE",
"505 82 CURVE SMOOTH",
"511 101 OFFCURVE",
"518 125 OFFCURVE",
"523 145 CURVE SMOOTH",
"581 334 OFFCURVE",
"693 474 OFFCURVE",
"802 474 CURVE SMOOTH",
"814 474 OFFCURVE",
"829 468 OFFCURVE",
"832 457 CURVE",
"836 452 OFFCURVE",
"842 456 OFFCURVE",
"844 462 CURVE",
"836 491 OFFCURVE",
"819 500 OFFCURVE",
"794 500 CURVE SMOOTH",
"643 500 OFFCURVE",
"533 238 OFFCURVE",
"494 116 CURVE",
"486 136 OFFCURVE",
"478 155 OFFCURVE",
"471 180 CURVE SMOOTH",
"447 247 OFFCURVE",
"421 325 OFFCURVE",
"388 388 CURVE",
"394 418 OFFCURVE",
"395 440 OFFCURVE",
"391 452 CURVE",
"390 461 OFFCURVE",
"379 468 OFFCURVE",
"378 442 CURVE",
"380 435 OFFCURVE",
"380 423 OFFCURVE",
"376 408 CURVE",
"359 437 OFFCURVE",
"340 462 OFFCURVE",
"318 478 CURVE",
"297 455 LINE"
);
},
{
closed = 1;
nodes = (
"265 523 OFFCURVE",
"175 533 OFFCURVE",
"148 482 CURVE SMOOTH",
"109 409 OFFCURVE",
"175 284 OFFCURVE",
"217 254 CURVE SMOOTH",
"263 221 OFFCURVE",
"298 254 OFFCURVE",
"293 279 CURVE SMOOTH",
"292 298 OFFCURVE",
"281 317 OFFCURVE",
"279 331 CURVE SMOOTH",
"279 337 OFFCURVE",
"271 329 OFFCURVE",
"271 323 CURVE SMOOTH",
"276 293 OFFCURVE",
"275 272 OFFCURVE",
"270 262 CURVE SMOOTH",
"263 251 OFFCURVE",
"241 269 OFFCURVE",
"238 271 CURVE",
"197 302 OFFCURVE",
"122 413 OFFCURVE",
"158 479 CURVE SMOOTH",
"184 527 OFFCURVE",
"263 492 OFFCURVE",
"297 455 CURVE SMOOTH",
"307 445 OFFCURVE",
"333 467 OFFCURVE",
"319 478 CURVE SMOOTH"
);
}
);
};
layerId = "95C423A7-595F-441F-915A-E5EF8B5EF971";
paths = (
{
closed = 1;
nodes = (
"375 -186 OFFCURVE",
"418 -122 OFFCURVE",
"438 -86 CURVE SMOOTH",
"471 -30 OFFCURVE",
"485 22 OFFCURVE",
"505 82 CURVE SMOOTH",
"511 101 OFFCURVE",
"518 125 OFFCURVE",
"523 145 CURVE SMOOTH",
"581 334 OFFCURVE",
"693 474 OFFCURVE",
"802 474 CURVE SMOOTH",
"814 474 OFFCURVE",
"829 468 OFFCURVE",
"832 457 CURVE",
"833 455 OFFCURVE",
"835 455 OFFCURVE",
"836 455 CURVE SMOOTH",
"840 455 OFFCURVE",
"843 458 OFFCURVE",
"844 462 CURVE",
"836 491 OFFCURVE",
"819 500 OFFCURVE",
"794 500 CURVE SMOOTH",
"643 500 OFFCURVE",
"533 238 OFFCURVE",
"494 116 CURVE",
"486 136 OFFCURVE",
"478 155 OFFCURVE",
"471 180 CURVE",
"447 247 OFFCURVE",
"421 325 OFFCURVE",
"388 388 CURVE",
"392 406 OFFCURVE",
"394 421 OFFCURVE",
"394 433 CURVE SMOOTH",
"394 441 OFFCURVE",
"393 447 OFFCURVE",
"391 452 CURVE",
"391 456 OFFCURVE",
"388 460 OFFCURVE",
"385 460 CURVE SMOOTH",
"382 460 OFFCURVE",
"379 455 OFFCURVE",
"378 442 CURVE",
"379 440 OFFCURVE",
"379 436 OFFCURVE",
"379 432 CURVE SMOOTH",
"379 426 OFFCURVE",
"378 417 OFFCURVE",
"376 408 CURVE",
"359 437 OFFCURVE",
"340 462 OFFCURVE",
"318 478 CURVE",
"297 455 LINE",
"321 436 OFFCURVE",
"343 403 OFFCURVE",
"363 365 CURVE",
"318 231 OFFCURVE",
"175 -23 OFFCURVE",
"60 -23 CURVE SMOOTH",
"45 -23 OFFCURVE",
"27 -14 OFFCURVE",
"27 -6 CURVE SMOOTH",
"27 -3 OFFCURVE",
"31 1 OFFCURVE",
"42 2 CURVE",
"33 13 OFFCURVE",
"29 18 OFFCURVE",
"14 18 CURVE SMOOTH",
"5 18 OFFCURVE",
"0 11 OFFCURVE",
"0 3 CURVE SMOOTH",
"0 -8 OFFCURVE",
"7 -21 OFFCURVE",
"18 -27 CURVE SMOOTH",
"36 -37 OFFCURVE",
"56 -38 OFFCURVE",
"74 -38 CURVE SMOOTH",
"201 -38 OFFCURVE",
"326 196 OFFCURVE",
"375 342 CURVE",
"413 257 OFFCURVE",
"445 151 OFFCURVE",
"469 86 CURVE",
"452 33 OFFCURVE",
"445 -13 OFFCURVE",
"429 -42 CURVE SMOOTH",
"405 -88 OFFCURVE",
"352 -178 OFFCURVE",
"293 -203 CURVE SMOOTH",
"282 -207 OFFCURVE",
"273 -209 OFFCURVE",
"266 -209 CURVE SMOOTH",
"249 -209 OFFCURVE",
"242 -199 OFFCURVE",
"242 -183 CURVE SMOOTH",
"242 -163 OFFCURVE",
"256 -132 OFFCURVE",
"280 -107 CURVE SMOOTH",
"288 -99 OFFCURVE",
"291 -94 OFFCURVE",
"291 -92 CURVE SMOOTH",
"291 -91 OFFCURVE",
"289 -91 OFFCURVE",
"287 -92 CURVE SMOOTH",
"284 -93 OFFCURVE",
"279 -95 OFFCURVE",
"276 -99 CURVE",
"236 -132 OFFCURVE",
"217 -170 OFFCURVE",
"217 -195 CURVE SMOOTH",
"217 -215 OFFCURVE",
"230 -228 OFFCURVE",
"254 -228 CURVE SMOOTH",
"267 -228 OFFCURVE",
"284 -224 OFFCURVE",
"304 -216 CURVE SMOOTH"
);
},
{
closed = 1;
nodes = (
"231 244 OFFCURVE",
"244 240 OFFCURVE",
"255 240 CURVE SMOOTH",
"278 240 OFFCURVE",
"294 258 OFFCURVE",
"294 274 CURVE SMOOTH",
"294 276 OFFCURVE",
"294 277 OFFCURVE",
"293 279 CURVE",
"292 298 OFFCURVE",
"281 317 OFFCURVE",
"279 331 CURVE",
"279 337 OFFCURVE",
"271 329 OFFCURVE",
"271 323 CURVE",
"273 309 OFFCURVE",
"274 298 OFFCURVE",
"274 288 CURVE SMOOTH",
"274 276 OFFCURVE",
"273 267 OFFCURVE",
"270 262 CURVE SMOOTH",
"268 260 OFFCURVE",
"266 259 OFFCURVE",
"263 259 CURVE SMOOTH",
"254 259 OFFCURVE",
"240 270 OFFCURVE",
"238 271 CURVE",
"205 296 OFFCURVE",
"148 375 OFFCURVE",
"148 439 CURVE SMOOTH",
"148 453 OFFCURVE",
"151 467 OFFCURVE",
"158 479 CURVE SMOOTH",
"167 496 OFFCURVE",
"183 502 OFFCURVE",
"201 502 CURVE SMOOTH",
"234 502 OFFCURVE",
"275 479 OFFCURVE",
"297 455 CURVE SMOOTH",
"299 453 OFFCURVE",
"301 452 OFFCURVE",
"304 452 CURVE SMOOTH",
"312 452 OFFCURVE",
"323 462 OFFCURVE",
"323 470 CURVE SMOOTH",
"323 473 OFFCURVE",
"322 476 OFFCURVE",
"319 478 CURVE SMOOTH",
"290 502 OFFCURVE",
"251 516 OFFCURVE",
"217 516 CURVE SMOOTH",
"187 516 OFFCURVE",
"161 505 OFFCURVE",
"148 482 CURVE SMOOTH",
"140 466 OFFCURVE",
"136 449 OFFCURVE",
"136 430 CURVE SMOOTH",
"136 360 OFFCURVE",
"184 278 OFFCURVE",
"217 254 CURVE SMOOTH"
);
}
);
width = 551;
}
);
note = Eng;
unicode = 014A;
},
{
glyphname = Ntilde;
lastChange = "2021-10-09 01:58:11 +0000";
layers = (
{
background = {
paths = (
{
closed = 1;
nodes = (
"838 567 OFFCURVE",
"863 588 OFFCURVE",
"863 597 CURVE SMOOTH",
"863 598 OFFCURVE",
"862 598 OFFCURVE",
"861 598 CURVE SMOOTH",
"855 598 OFFCURVE",
"844 583 OFFCURVE",
"827 583 CURVE SMOOTH",
"787 583 OFFCURVE",
"763 608 OFFCURVE",
"736 608 CURVE SMOOTH",
"725 608 OFFCURVE",
"699 588 OFFCURVE",
"696 578 CURVE",
"696 576 OFFCURVE",
"698 575 OFFCURVE",
"700 575 CURVE SMOOTH",
"705 575 OFFCURVE",
"718 593 OFFCURVE",
"735 593 CURVE SMOOTH",
"765 593 OFFCURVE",
"796 567 OFFCURVE",
"828 567 CURVE SMOOTH"
);
},
{
closed = 1;
nodes = (
"801 -2 OFFCURVE",
"816 75 OFFCURVE",
"816 107 CURVE SMOOTH",
"816 118 OFFCURVE",
"813 173 OFFCURVE",
"796 173 CURVE SMOOTH",
"793 173 OFFCURVE",
"790 171 OFFCURVE",
"790 167 CURVE SMOOTH",
"790 162 OFFCURVE",
"797 156 OFFCURVE",
"797 139 CURVE SMOOTH",
"797 116 OFFCURVE",
"778 22 OFFCURVE",
"749 22 CURVE SMOOTH",
"730 22 OFFCURVE",
"727 62 OFFCURVE",
"727 76 CURVE SMOOTH",
"727 149 OFFCURVE",
"764 260 OFFCURVE",
"788 330 CURVE SMOOTH",
"794 347 OFFCURVE",
"799 364 OFFCURVE",
"799 382 CURVE SMOOTH",
"799 395 OFFCURVE",
"795 414 OFFCURVE",
"778 414 CURVE SMOOTH",
"760 414 OFFCURVE",
"743 394 OFFCURVE",
"734 382 CURVE SMOOTH",
"681 316 OFFCURVE",
"625 253 OFFCURVE",
"569 190 CURVE SMOOTH",
"521 136 OFFCURVE",
"472 82 OFFCURVE",
"418 33 CURVE SMOOTH",
"395 13 LINE",
"468 123 OFFCURVE",
"658 411 OFFCURVE",
"658 541 CURVE SMOOTH",
"658 610 OFFCURVE",
"610 629 OFFCURVE",
"549 629 CURVE SMOOTH",
"537 629 OFFCURVE",
"525 629 OFFCURVE",
"513 627 CURVE SMOOTH",
"380 613 OFFCURVE",
"7 390 OFFCURVE",
"7 232 CURVE SMOOTH",
"7 207 OFFCURVE",
"16 185 OFFCURVE",
"33 167 CURVE SMOOTH",
"52 147 OFFCURVE",
"91 143 OFFCURVE",
"116 143 CURVE SMOOTH",
"136 143 OFFCURVE",
"245 153 OFFCURVE",
"245 182 CURVE SMOOTH",
"245 185 OFFCURVE",
"243 189 OFFCURVE",
"239 189 CURVE SMOOTH",
"237 189 OFFCURVE",
"236 188 OFFCURVE",
"234 187 CURVE",
"205 171 OFFCURVE",
"161 165 OFFCURVE",
"128 165 CURVE SMOOTH",
"87 165 OFFCURVE",
"43 169 OFFCURVE",
"43 220 CURVE SMOOTH",
"43 278 OFFCURVE",
"99 348 OFFCURVE",
"137 388 CURVE SMOOTH",
"221 476 OFFCURVE",
"413 609 OFFCURVE",
"540 609 CURVE SMOOTH",
"590 609 OFFCURVE",
"622 589 OFFCURVE",
"622 535 CURVE SMOOTH",
"622 482 OFFCURVE",
"591 409 OFFCURVE",
"569 362 CURVE SMOOTH",
"517 254 OFFCURVE",
"457 153 OFFCURVE",
"389 55 CURVE SMOOTH",
"353 2 OFFCURVE",
"313 -50 OFFCURVE",
"268 -97 CURVE SMOOTH",
"264 -102 OFFCURVE",
"259 -106 OFFCURVE",
"259 -113 CURVE SMOOTH",
"259 -121 OFFCURVE",
"267 -124 OFFCURVE",
"274 -124 CURVE SMOOTH",
"293 -124 OFFCURVE",
"309 -106 OFFCURVE",
"319 -91 CURVE SMOOTH",
"323 -85 OFFCURVE",
"329 -79 OFFCURVE",
"334 -73 CURVE SMOOTH",
"342 -65 OFFCURVE",
"351 -56 OFFCURVE",
"360 -48 CURVE SMOOTH",
"383 -25 OFFCURVE",
"407 -4 OFFCURVE",
"431 18 CURVE SMOOTH",
"485 67 OFFCURVE",
"535 123 OFFCURVE",
"584 177 CURVE SMOOTH",
"641 240 OFFCURVE",
"696 304 OFFCURVE",
"750 370 CURVE SMOOTH",
"751 371 OFFCURVE",
"758 381 OFFCURVE",
"761 381 CURVE SMOOTH",
"763 381 OFFCURVE",
"763 378 OFFCURVE",
"763 377 CURVE SMOOTH",
"763 364 OFFCURVE",
"750 327 OFFCURVE",
"745 313 CURVE SMOOTH",
"722 248 OFFCURVE",
"704 167 OFFCURVE",
"704 98 CURVE SMOOTH",
"704 80 OFFCURVE",
"705 59 OFFCURVE",
"711 41 CURVE SMOOTH",
"717 20 OFFCURVE",
"735 -2 OFFCURVE",
"758 -2 CURVE SMOOTH"
);
}
);
};
components = (
{
name = N;
},
{
name = tildecomb.case;
transform = "{1, 0, 0, 1, 705, 211}";
}
);
layerId = "95C423A7-595F-441F-915A-E5EF8B5EF971";
width = 833;
}
);
note = Ntilde;
unicode = 00D1;
},
{
glyphname = O;
lastChange = "2021-10-09 01:58:11 +0000";
layers = (
{
anchors = (
{
name = bottom;
position = "{154, -111}";
},
{
name = center;
position = "{367, 271}";
},
{
name = ogonek;
position = "{169, -109}";
},
{
name = top;
position = "{518, 515}";
},
{
name = topleft;
position = "{10, 542}";
},
{
name = topright;
position = "{660, 451}";
}
);
background = {
paths = (
{
closed = 1;
nodes = (
"245 -121 OFFCURVE",
"274 -117 OFFCURVE",
"303 -111 CURVE SMOOTH",
"483 -72 OFFCURVE",
"730 75 OFFCURVE",
"730 283 CURVE SMOOTH",
"730 423 OFFCURVE",
"615 516 OFFCURVE",
"481 516 CURVE SMOOTH",
"311 516 OFFCURVE",
"96 334 OFFCURVE",
"80 163 CURVE",
"53 122 OFFCURVE",
"27 71 OFFCURVE",
"27 20 CURVE SMOOTH",
"27 -83 OFFCURVE",
"127 -121 OFFCURVE",
"215 -121 CURVE SMOOTH"
);
},
{
closed = 1;
nodes = (
"145 350 OFFCURVE",
"326 493 OFFCURVE",
"479 493 CURVE SMOOTH",
"601 493 OFFCURVE",
"685 413 OFFCURVE",
"685 291 CURVE SMOOTH",
"685 240 OFFCURVE",
"670 189 OFFCURVE",
"644 145 CURVE SMOOTH",
"569 19 OFFCURVE",
"436 -55 OFFCURVE",
"297 -88 CURVE SMOOTH",
"268 -94 OFFCURVE",
"238 -99 OFFCURVE",
"209 -99 CURVE SMOOTH",
"135 -99 OFFCURVE",
"60 -70 OFFCURVE",
"60 15 CURVE SMOOTH",
"60 45 OFFCURVE",
"70 76 OFFCURVE",
"83 103 CURVE",
"87 82 OFFCURVE",
"94 62 OFFCURVE",
"105 43 CURVE",
"101 29 OFFCURVE",
"97 14 OFFCURVE",
"97 -2 CURVE SMOOTH",
"97 -12 OFFCURVE",
"102 -44 OFFCURVE",
"116 -44 CURVE SMOOTH",
"122 -44 OFFCURVE",
"127 -40 OFFCURVE",
"127 -34 CURVE SMOOTH",
"127 -27 OFFCURVE",
"118 -23 OFFCURVE",
"118 -6 CURVE SMOOTH",
"118 2 OFFCURVE",
"120 11 OFFCURVE",
"122 18 CURVE",
"158 -29 OFFCURVE",
"214 -53 OFFCURVE",
"273 -53 CURVE SMOOTH",
"368 -53 OFFCURVE",
"453 8 OFFCURVE",
"513 78 CURVE SMOOTH",
"543 113 OFFCURVE",
"580 165 OFFCURVE",
"580 214 CURVE SMOOTH",
"580 280 OFFCURVE",
"516 300 OFFCURVE",
"461 300 CURVE SMOOTH",
"437 300 OFFCURVE",
"413 296 OFFCURVE",
"390 292 CURVE SMOOTH",
"269 265 OFFCURVE",
"168 187 OFFCURVE",
"117 73 CURVE",
"108 95 OFFCURVE",
"103 118 OFFCURVE",
"103 142 CURVE",
"170 253 OFFCURVE",
"321 369 OFFCURVE",
"456 369 CURVE SMOOTH",
"478 369 OFFCURVE",
"507 365 OFFCURVE",
"523 347 CURVE SMOOTH",
"528 341 OFFCURVE",
"527 341 OFFCURVE",
"530 334 CURVE SMOOTH",
"532 329 OFFCURVE",
"534 327 OFFCURVE",
"539 327 CURVE SMOOTH",
"545 327 OFFCURVE",
"550 331 OFFCURVE",
"550 336 CURVE SMOOTH",
"550 338 OFFCURVE",
"549 339 OFFCURVE",
"549 340 CURVE",
"534 380 OFFCURVE",
"498 389 OFFCURVE",
"458 389 CURVE SMOOTH",
"334 389 OFFCURVE",
"188 293 OFFCURVE",
"109 202 CURVE"
);
},
{
closed = 1;
nodes = (
"139 60 OFFCURVE",
"148 76 OFFCURVE",
"158 91 CURVE SMOOTH",
"213 176 OFFCURVE",
"293 243 OFFCURVE",
"391 270 CURVE SMOOTH",
"416 276 OFFCURVE",
"442 282 OFFCURVE",
"467 282 CURVE SMOOTH",
"509 282 OFFCURVE",
"552 267 OFFCURVE",
"552 218 CURVE SMOOTH",
"552 169 OFFCURVE",
"507 114 OFFCURVE",
"475 80 CURVE SMOOTH",
"421 25 OFFCURVE",
"336 -33 OFFCURVE",
"256 -33 CURVE SMOOTH",
"201 -33 OFFCURVE",
"159 -4 OFFCURVE",
"131 43 CURVE"
);
}
);
};
layerId = "95C423A7-595F-441F-915A-E5EF8B5EF971";
paths = (
{
closed = 1;
nodes = (
"245 -121 OFFCURVE",
"274 -117 OFFCURVE",
"303 -111 CURVE SMOOTH",
"483 -72 OFFCURVE",
"730 75 OFFCURVE",
"730 283 CURVE SMOOTH",
"730 423 OFFCURVE",
"615 516 OFFCURVE",
"481 516 CURVE SMOOTH",
"311 516 OFFCURVE",
"96 334 OFFCURVE",
"80 163 CURVE",
"53 122 OFFCURVE",
"27 71 OFFCURVE",
"27 20 CURVE SMOOTH",
"27 -83 OFFCURVE",
"127 -121 OFFCURVE",
"215 -121 CURVE SMOOTH"
);
},
{
closed = 1;
nodes = (
"201 -33 OFFCURVE",
"159 -4 OFFCURVE",
"131 43 CURVE",
"139 60 OFFCURVE",
"148 76 OFFCURVE",
"158 91 CURVE SMOOTH",
"213 176 OFFCURVE",
"293 243 OFFCURVE",
"391 270 CURVE SMOOTH",
"416 276 OFFCURVE",
"442 282 OFFCURVE",
"467 282 CURVE SMOOTH",
"509 282 OFFCURVE",
"552 267 OFFCURVE",
"552 218 CURVE SMOOTH",
"552 169 OFFCURVE",
"507 114 OFFCURVE",
"475 80 CURVE SMOOTH",
"421 25 OFFCURVE",
"336 -33 OFFCURVE",
"256 -33 CURVE SMOOTH"
);
},
{
closed = 1;
nodes = (
"135 -99 OFFCURVE",
"60 -70 OFFCURVE",
"60 15 CURVE SMOOTH",
"60 45 OFFCURVE",
"70 76 OFFCURVE",
"83 103 CURVE",
"87 82 OFFCURVE",
"94 62 OFFCURVE",
"105 43 CURVE",
"101 29 OFFCURVE",
"97 14 OFFCURVE",
"97 -2 CURVE SMOOTH",
"97 -12 OFFCURVE",
"102 -44 OFFCURVE",
"116 -44 CURVE SMOOTH",
"122 -44 OFFCURVE",
"127 -40 OFFCURVE",
"127 -34 CURVE SMOOTH",
"127 -27 OFFCURVE",
"118 -23 OFFCURVE",
"118 -6 CURVE SMOOTH",
"118 2 OFFCURVE",
"120 11 OFFCURVE",
"122 18 CURVE",
"158 -29 OFFCURVE",
"214 -53 OFFCURVE",
"273 -53 CURVE SMOOTH",
"368 -53 OFFCURVE",
"453 8 OFFCURVE",
"513 78 CURVE SMOOTH",
"543 113 OFFCURVE",
"580 165 OFFCURVE",
"580 214 CURVE SMOOTH",
"580 280 OFFCURVE",
"516 300 OFFCURVE",
"461 300 CURVE SMOOTH",
"437 300 OFFCURVE",
"413 296 OFFCURVE",
"390 292 CURVE SMOOTH",
"269 265 OFFCURVE",
"168 187 OFFCURVE",
"117 73 CURVE",
"108 95 OFFCURVE",
"103 118 OFFCURVE",
"103 142 CURVE",
"170 253 OFFCURVE",
"321 369 OFFCURVE",
"456 369 CURVE SMOOTH",
"478 369 OFFCURVE",
"507 365 OFFCURVE",
"523 347 CURVE SMOOTH",
"528 341 OFFCURVE",
"527 341 OFFCURVE",
"530 334 CURVE SMOOTH",
"532 329 OFFCURVE",
"534 327 OFFCURVE",
"539 327 CURVE SMOOTH",
"545 327 OFFCURVE",
"550 331 OFFCURVE",
"550 336 CURVE SMOOTH",
"550 338 OFFCURVE",
"549 339 OFFCURVE",
"549 340 CURVE",
"534 380 OFFCURVE",
"498 389 OFFCURVE",
"458 389 CURVE SMOOTH",
"334 389 OFFCURVE",
"188 293 OFFCURVE",
"109 202 CURVE",
"145 350 OFFCURVE",
"326 493 OFFCURVE",
"479 493 CURVE SMOOTH",
"601 493 OFFCURVE",
"685 413 OFFCURVE",
"685 291 CURVE SMOOTH",
"685 240 OFFCURVE",
"670 189 OFFCURVE",
"644 145 CURVE SMOOTH",
"569 19 OFFCURVE",
"436 -55 OFFCURVE",
"297 -88 CURVE SMOOTH",
"268 -94 OFFCURVE",
"238 -99 OFFCURVE",
"209 -99 CURVE SMOOTH"
);
}
);
width = 734;
}
);
note = O;
unicode = 004F;
},
{
glyphname = Oacute;
lastChange = "2021-10-09 01:58:11 +0000";
layers = (
{
background = {
paths = (
{
closed = 1;
nodes = (
"506 546 OFFCURVE",
"508 547 OFFCURVE",
"510 548 CURVE SMOOTH",
"540 565 OFFCURVE",
"570 581 OFFCURVE",
"600 597 CURVE SMOOTH",
"608 601 OFFCURVE",
"622 609 OFFCURVE",
"622 620 CURVE SMOOTH",
"622 627 OFFCURVE",
"613 630 OFFCURVE",
"607 630 CURVE SMOOTH",
"596 630 OFFCURVE",
"585 623 OFFCURVE",
"578 616 CURVE SMOOTH",
"567 607 OFFCURVE",
"500 561 OFFCURVE",
"500 551 CURVE SMOOTH",
"500 548 OFFCURVE",
"502 546 OFFCURVE",
"504 546 CURVE SMOOTH"
);
},
{
closed = 1;
nodes = (
"245 -121 OFFCURVE",
"274 -117 OFFCURVE",
"303 -111 CURVE SMOOTH",
"483 -72 OFFCURVE",
"730 75 OFFCURVE",
"730 283 CURVE SMOOTH",
"730 423 OFFCURVE",
"615 516 OFFCURVE",
"481 516 CURVE SMOOTH",
"311 516 OFFCURVE",
"96 334 OFFCURVE",
"80 163 CURVE",
"53 122 OFFCURVE",
"27 71 OFFCURVE",
"27 20 CURVE SMOOTH",
"27 -83 OFFCURVE",
"127 -121 OFFCURVE",
"215 -121 CURVE SMOOTH"
);
},
{
closed = 1;
nodes = (
"145 350 OFFCURVE",
"326 493 OFFCURVE",
"479 493 CURVE SMOOTH",
"601 493 OFFCURVE",
"685 413 OFFCURVE",
"685 291 CURVE SMOOTH",
"685 240 OFFCURVE",
"670 189 OFFCURVE",
"644 145 CURVE SMOOTH",
"569 19 OFFCURVE",
"436 -55 OFFCURVE",
"297 -88 CURVE SMOOTH",
"268 -94 OFFCURVE",
"238 -99 OFFCURVE",
"209 -99 CURVE SMOOTH",
"135 -99 OFFCURVE",
"60 -70 OFFCURVE",
"60 15 CURVE SMOOTH",
"60 45 OFFCURVE",
"70 76 OFFCURVE",
"83 103 CURVE",
"87 82 OFFCURVE",
"94 62 OFFCURVE",
"105 43 CURVE",
"101 29 OFFCURVE",
"97 14 OFFCURVE",
"97 -2 CURVE SMOOTH",
"97 -12 OFFCURVE",
"102 -44 OFFCURVE",
"116 -44 CURVE SMOOTH",
"122 -44 OFFCURVE",
"127 -40 OFFCURVE",
"127 -34 CURVE SMOOTH",
"127 -27 OFFCURVE",
"118 -23 OFFCURVE",
"118 -6 CURVE SMOOTH",
"118 2 OFFCURVE",
"120 11 OFFCURVE",
"122 18 CURVE",
"158 -29 OFFCURVE",
"214 -53 OFFCURVE",
"273 -53 CURVE SMOOTH",
"368 -53 OFFCURVE",
"453 8 OFFCURVE",
"513 78 CURVE SMOOTH",
"543 113 OFFCURVE",
"580 165 OFFCURVE",
"580 214 CURVE SMOOTH",
"580 280 OFFCURVE",
"516 300 OFFCURVE",
"461 300 CURVE SMOOTH",
"437 300 OFFCURVE",
"413 296 OFFCURVE",
"390 292 CURVE SMOOTH",
"269 265 OFFCURVE",
"168 187 OFFCURVE",
"117 73 CURVE",
"108 95 OFFCURVE",
"103 118 OFFCURVE",
"103 142 CURVE",
"170 253 OFFCURVE",
"321 369 OFFCURVE",
"456 369 CURVE SMOOTH",
"478 369 OFFCURVE",
"507 365 OFFCURVE",
"523 347 CURVE SMOOTH",
"528 341 OFFCURVE",
"527 341 OFFCURVE",
"530 334 CURVE SMOOTH",
"532 329 OFFCURVE",
"534 327 OFFCURVE",
"539 327 CURVE SMOOTH",
"545 327 OFFCURVE",
"550 331 OFFCURVE",
"550 336 CURVE SMOOTH",
"550 338 OFFCURVE",
"549 339 OFFCURVE",
"549 340 CURVE",
"534 380 OFFCURVE",
"498 389 OFFCURVE",
"458 389 CURVE SMOOTH",
"334 389 OFFCURVE",
"188 293 OFFCURVE",
"109 202 CURVE"
);
},
{
closed = 1;
nodes = (
"139 60 OFFCURVE",
"148 76 OFFCURVE",
"158 91 CURVE SMOOTH",
"213 176 OFFCURVE",
"293 243 OFFCURVE",
"391 270 CURVE SMOOTH",
"416 276 OFFCURVE",
"442 282 OFFCURVE",
"467 282 CURVE SMOOTH",
"509 282 OFFCURVE",
"552 267 OFFCURVE",
"552 218 CURVE SMOOTH",
"552 169 OFFCURVE",
"507 114 OFFCURVE",
"475 80 CURVE SMOOTH",
"421 25 OFFCURVE",
"336 -33 OFFCURVE",
"256 -33 CURVE SMOOTH",
"201 -33 OFFCURVE",
"159 -4 OFFCURVE",
"131 43 CURVE"
);
}
);
};
components = (
{
name = O;
},
{
name = acutecomb.case;
transform = "{1, 0, 0, 1, 495, 295}";
}
);
layerId = "95C423A7-595F-441F-915A-E5EF8B5EF971";
width = 734;
}
);
note = Oacute;
unicode = 00D3;
},
{
glyphname = Ocircumflex;
lastChange = "2021-10-09 01:58:11 +0000";
layers = (
{
background = {
paths = (
{
closed = 1;
nodes = (
"640 560 LINE",
"611 582 OFFCURVE",
"583 603 OFFCURVE",
"559 630 CURVE",
"555 631 LINE",
"545 631 OFFCURVE",
"467 567 OFFCURVE",
"467 558 CURVE SMOOTH",
"467 556 OFFCURVE",
"470 552 OFFCURVE",
"473 552 CURVE SMOOTH",
"479 552 OFFCURVE",
"537 598 OFFCURVE",
"546 606 CURVE",
"559 592 OFFCURVE",
"622 550 OFFCURVE",
"640 549 CURVE",
"643 554 LINE"
);
},
{
closed = 1;
nodes = (
"245 -121 OFFCURVE",
"274 -117 OFFCURVE",
"303 -111 CURVE SMOOTH",
"483 -72 OFFCURVE",
"730 75 OFFCURVE",
"730 283 CURVE SMOOTH",
"730 423 OFFCURVE",
"615 516 OFFCURVE",
"481 516 CURVE SMOOTH",
"311 516 OFFCURVE",
"96 334 OFFCURVE",
"80 163 CURVE",
"53 122 OFFCURVE",
"27 71 OFFCURVE",
"27 20 CURVE SMOOTH",
"27 -83 OFFCURVE",
"127 -121 OFFCURVE",
"215 -121 CURVE SMOOTH"
);
},
{
closed = 1;
nodes = (
"145 350 OFFCURVE",
"326 493 OFFCURVE",
"479 493 CURVE SMOOTH",
"601 493 OFFCURVE",
"685 413 OFFCURVE",
"685 291 CURVE SMOOTH",
"685 240 OFFCURVE",
"670 189 OFFCURVE",
"644 145 CURVE SMOOTH",
"569 19 OFFCURVE",
"436 -55 OFFCURVE",
"297 -88 CURVE SMOOTH",
"268 -94 OFFCURVE",
"238 -99 OFFCURVE",
"209 -99 CURVE SMOOTH",
"135 -99 OFFCURVE",
"60 -70 OFFCURVE",
"60 15 CURVE SMOOTH",
"60 45 OFFCURVE",
"70 76 OFFCURVE",
"83 103 CURVE",
"87 82 OFFCURVE",
"94 62 OFFCURVE",
"105 43 CURVE",
"101 29 OFFCURVE",
"97 14 OFFCURVE",
"97 -2 CURVE SMOOTH",
"97 -12 OFFCURVE",
"102 -44 OFFCURVE",
"116 -44 CURVE SMOOTH",
"122 -44 OFFCURVE",
"127 -40 OFFCURVE",
"127 -34 CURVE SMOOTH",
"127 -27 OFFCURVE",
"118 -23 OFFCURVE",
"118 -6 CURVE SMOOTH",
"118 2 OFFCURVE",
"120 11 OFFCURVE",
"122 18 CURVE",
"158 -29 OFFCURVE",
"214 -53 OFFCURVE",
"273 -53 CURVE SMOOTH",
"368 -53 OFFCURVE",
"453 8 OFFCURVE",
"513 78 CURVE SMOOTH",
"543 113 OFFCURVE",
"580 165 OFFCURVE",
"580 214 CURVE SMOOTH",
"580 280 OFFCURVE",
"516 300 OFFCURVE",
"461 300 CURVE SMOOTH",
"437 300 OFFCURVE",
"413 296 OFFCURVE",
"390 292 CURVE SMOOTH",
"269 265 OFFCURVE",
"168 187 OFFCURVE",
"117 73 CURVE",
"108 95 OFFCURVE",
"103 118 OFFCURVE",
"103 142 CURVE",
"170 253 OFFCURVE",
"321 369 OFFCURVE",
"456 369 CURVE SMOOTH",
"478 369 OFFCURVE",
"507 365 OFFCURVE",
"523 347 CURVE SMOOTH",
"528 341 OFFCURVE",
"527 341 OFFCURVE",
"530 334 CURVE SMOOTH",
"532 329 OFFCURVE",
"534 327 OFFCURVE",
"539 327 CURVE SMOOTH",
"545 327 OFFCURVE",
"550 331 OFFCURVE",
"550 336 CURVE SMOOTH",
"550 338 OFFCURVE",
"549 339 OFFCURVE",
"549 340 CURVE",
"534 380 OFFCURVE",
"498 389 OFFCURVE",
"458 389 CURVE SMOOTH",
"334 389 OFFCURVE",
"188 293 OFFCURVE",
"109 202 CURVE"
);
},
{
closed = 1;
nodes = (
"139 60 OFFCURVE",
"148 76 OFFCURVE",
"158 91 CURVE SMOOTH",
"213 176 OFFCURVE",
"293 243 OFFCURVE",
"391 270 CURVE SMOOTH",
"416 276 OFFCURVE",
"442 282 OFFCURVE",
"467 282 CURVE SMOOTH",
"509 282 OFFCURVE",
"552 267 OFFCURVE",
"552 218 CURVE SMOOTH",
"552 169 OFFCURVE",
"507 114 OFFCURVE",
"475 80 CURVE SMOOTH",
"421 25 OFFCURVE",
"336 -33 OFFCURVE",
"256 -33 CURVE SMOOTH",
"201 -33 OFFCURVE",
"159 -4 OFFCURVE",
"131 43 CURVE"
);
}
);
};
components = (
{
name = O;
},
{
name = circumflexcomb.case;
transform = "{1, 0, 0, 1, 452, 295}";
}
);
layerId = "95C423A7-595F-441F-915A-E5EF8B5EF971";
width = 734;
}
);
note = Ocircumflex;
unicode = 00D4;
},
{
glyphname = Odieresis;
lastChange = "2021-10-09 01:58:11 +0000";
layers = (
{
background = {
paths = (
{
closed = 1;
nodes = (
"522 614 LINE",
"522 615 OFFCURVE",
"521 615 OFFCURVE",
"520 615 CURVE SMOOTH",
"508 615 OFFCURVE",
"471 592 OFFCURVE",
"471 578 CURVE SMOOTH",
"471 572 OFFCURVE",
"478 559 OFFCURVE",
"485 559 CURVE SMOOTH",
"494 559 OFFCURVE",
"502 573 OFFCURVE",
"503 580 CURVE SMOOTH",
"506 588 OFFCURVE",
"509 596 OFFCURVE",
"513 602 CURVE",
"514 604 OFFCURVE",
"522 613 OFFCURVE",
"522 613 CURVE SMOOTH",
"522 614 LINE"
);
},
{
closed = 1;
nodes = (
"600 614 LINE",
"600 615 OFFCURVE",
"599 615 OFFCURVE",
"598 615 CURVE SMOOTH",
"586 615 OFFCURVE",
"549 592 OFFCURVE",
"549 578 CURVE SMOOTH",
"549 572 OFFCURVE",
"556 559 OFFCURVE",
"563 559 CURVE SMOOTH",
"573 559 OFFCURVE",
"580 573 OFFCURVE",
"582 580 CURVE SMOOTH",
"584 588 OFFCURVE",
"587 596 OFFCURVE",
"591 602 CURVE",
"592 604 OFFCURVE",
"600 613 OFFCURVE",
"600 613 CURVE SMOOTH",
"600 614 LINE"
);
},
{
closed = 1;
nodes = (
"245 -121 OFFCURVE",
"274 -117 OFFCURVE",
"303 -111 CURVE SMOOTH",
"483 -72 OFFCURVE",
"730 75 OFFCURVE",
"730 283 CURVE SMOOTH",
"730 423 OFFCURVE",
"615 516 OFFCURVE",
"481 516 CURVE SMOOTH",
"311 516 OFFCURVE",
"96 334 OFFCURVE",
"80 163 CURVE",
"53 122 OFFCURVE",
"27 71 OFFCURVE",
"27 20 CURVE SMOOTH",
"27 -83 OFFCURVE",
"127 -121 OFFCURVE",
"215 -121 CURVE SMOOTH"
);
},
{
closed = 1;
nodes = (
"145 350 OFFCURVE",
"326 493 OFFCURVE",
"479 493 CURVE SMOOTH",
"601 493 OFFCURVE",
"685 413 OFFCURVE",
"685 291 CURVE SMOOTH",
"685 240 OFFCURVE",
"670 189 OFFCURVE",
"644 145 CURVE SMOOTH",
"569 19 OFFCURVE",
"436 -55 OFFCURVE",
"297 -88 CURVE SMOOTH",
"268 -94 OFFCURVE",
"238 -99 OFFCURVE",
"209 -99 CURVE SMOOTH",
"135 -99 OFFCURVE",
"60 -70 OFFCURVE",
"60 15 CURVE SMOOTH",
"60 45 OFFCURVE",
"70 76 OFFCURVE",
"83 103 CURVE",
"87 82 OFFCURVE",
"94 62 OFFCURVE",
"105 43 CURVE",
"101 29 OFFCURVE",
"97 14 OFFCURVE",
"97 -2 CURVE SMOOTH",
"97 -12 OFFCURVE",
"102 -44 OFFCURVE",
"116 -44 CURVE SMOOTH",
"122 -44 OFFCURVE",
"127 -40 OFFCURVE",
"127 -34 CURVE SMOOTH",
"127 -27 OFFCURVE",
"118 -23 OFFCURVE",
"118 -6 CURVE SMOOTH",
"118 2 OFFCURVE",
"120 11 OFFCURVE",
"122 18 CURVE",
"158 -29 OFFCURVE",
"214 -53 OFFCURVE",
"273 -53 CURVE SMOOTH",
"368 -53 OFFCURVE",
"453 8 OFFCURVE",
"513 78 CURVE SMOOTH",
"543 113 OFFCURVE",
"580 165 OFFCURVE",
"580 214 CURVE SMOOTH",
"580 280 OFFCURVE",
"516 300 OFFCURVE",
"461 300 CURVE SMOOTH",
"437 300 OFFCURVE",
"413 296 OFFCURVE",
"390 292 CURVE SMOOTH",
"269 265 OFFCURVE",
"168 187 OFFCURVE",
"117 73 CURVE",
"108 95 OFFCURVE",
"103 118 OFFCURVE",
"103 142 CURVE",
"170 253 OFFCURVE",
"321 369 OFFCURVE",
"456 369 CURVE SMOOTH",
"478 369 OFFCURVE",
"507 365 OFFCURVE",
"523 347 CURVE SMOOTH",
"528 341 OFFCURVE",
"527 341 OFFCURVE",
"530 334 CURVE SMOOTH",
"532 329 OFFCURVE",
"534 327 OFFCURVE",
"539 327 CURVE SMOOTH",
"545 327 OFFCURVE",
"550 331 OFFCURVE",
"550 336 CURVE SMOOTH",
"550 338 OFFCURVE",
"549 339 OFFCURVE",
"549 340 CURVE",
"534 380 OFFCURVE",
"498 389 OFFCURVE",
"458 389 CURVE SMOOTH",
"334 389 OFFCURVE",
"188 293 OFFCURVE",
"109 202 CURVE"
);
},
{
closed = 1;
nodes = (
"139 60 OFFCURVE",
"148 76 OFFCURVE",
"158 91 CURVE SMOOTH",
"213 176 OFFCURVE",
"293 243 OFFCURVE",
"391 270 CURVE SMOOTH",
"416 276 OFFCURVE",
"442 282 OFFCURVE",
"467 282 CURVE SMOOTH",
"509 282 OFFCURVE",
"552 267 OFFCURVE",
"552 218 CURVE SMOOTH",
"552 169 OFFCURVE",
"507 114 OFFCURVE",
"475 80 CURVE SMOOTH",
"421 25 OFFCURVE",
"336 -33 OFFCURVE",
"256 -33 CURVE SMOOTH",
"201 -33 OFFCURVE",
"159 -4 OFFCURVE",
"131 43 CURVE"
);
}
);
};
components = (
{
name = O;
},
{
name = dieresiscomb.case;
transform = "{1, 0, 0, 1, 471, 295}";
}
);
layerId = "95C423A7-595F-441F-915A-E5EF8B5EF971";
width = 734;
}
);
note = Odieresis;
unicode = 00D6;
},
